<?xml version="1.0" encoding="UTF-8" standalone="no"?>
<!-- Created with Inkscape (http://www.inkscape.org/) -->

<svg
   version="1.1"
   id="svg1"
   width="1300"
   height="1300"
   viewBox="0 0 1300 1300"
   sodipodi:docname="79949907-icono-de-ojos-de-tigre-sobre-fondo-blanco-ilustración-vectorial.svg"
   inkscape:version="1.4 (86a8ad7, 2024-10-11)"
   xmlns:inkscape="http://www.inkscape.org/namespaces/inkscape"
   xmlns:sodipodi="http://sodipodi.sourceforge.net/DTD/sodipodi-0.dtd"
   xmlns="http://www.w3.org/2000/svg"
   xmlns:svg="http://www.w3.org/2000/svg">
  <defs
     id="defs1" />
  <sodipodi:namedview
     id="namedview1"
     pagecolor="#505050"
     bordercolor="#eeeeee"
     borderopacity="1"
     inkscape:showpageshadow="0"
     inkscape:pageopacity="0"
     inkscape:pagecheckerboard="0"
     inkscape:deskcolor="#505050"
     inkscape:zoom="0.56538462"
     inkscape:cx="650"
     inkscape:cy="650"
     inkscape:window-width="1920"
     inkscape:window-height="974"
     inkscape:window-x="-11"
     inkscape:window-y="-11"
     inkscape:window-maximized="1"
     inkscape:current-layer="g1" />
  <g
     inkscape:groupmode="layer"
     inkscape:label="Image"
     id="g1">
    <g
       id="g2"
       transform="translate(-12.380951,-68.979591)">
      <path
         style="fill:#b9b9b9;fill-opacity:1"
         d="m 479.87244,781.25 c -1.24387,-1.58606 -1.2085,-1.62143 0.37756,-0.37756 1.66575,1.30637 2.19548,2.12756 1.37244,2.12756 -0.20765,0 -0.99515,-0.7875 -1.75,-1.75 z M 270.76166,728.29274 c 1.24391,-0.23919 3.04391,-0.23011 4,0.0202 0.95609,0.25029 -0.0617,0.446 -2.26166,0.4349 -2.2,-0.0111 -2.98225,-0.21589 -1.73834,-0.45508 z m 754.98834,0.002 c 1.2375,-0.23836 3.2625,-0.23836 4.5,0 1.2375,0.23835 0.225,0.43337 -2.25,0.43337 -2.475,0 -3.4875,-0.19502 -2.25,-0.43337 z M 887,582.62244 c 0,-0.20765 0.7875,-0.99515 1.75,-1.75 1.58606,-1.24387 1.62143,-1.2085 0.37756,0.37756 C 887.82119,582.91575 887,583.44548 887,582.62244 Z M 916,574.5 c 1.86578,-1.925 3.61733,-3.5 3.89233,-3.5 0.275,0 -1.02655,1.575 -2.89233,3.5 -1.86578,1.925 -3.61733,3.5 -3.89233,3.5 -0.275,0 1.02655,-1.575 2.89233,-3.5 z"
         id="path8" />
      <path
         style="fill:#a3a3a3;fill-opacity:1"
         d="m 1025.269,771.30701 c 0.973,-0.25354 2.323,-0.23687 3,0.0371 0.6771,0.27393 -0.119,0.48137 -1.769,0.46099 -1.65,-0.0204 -2.2039,-0.2445 -1.231,-0.49804 z m -3.4565,-42.99012 c 0.7219,-0.28887 1.5844,-0.25335 1.9167,0.0789 0.3323,0.33229 -0.2584,0.56864 -1.3125,0.52522 -1.165,-0.048 -1.4019,-0.28494 -0.6042,-0.60416 z M 157.40499,712.75 155.5,710.5 l 2.25,1.90499 c 2.11444,1.79022 2.70524,2.59501 1.90499,2.59501 -0.18976,0 -1.20226,-1.0125 -2.25,-2.25 z M 1141,713.62244 c 0,-0.20765 0.7875,-0.99515 1.75,-1.75 1.5861,-1.24387 1.6214,-1.2085 0.3776,0.37756 -1.3064,1.66575 -2.1276,2.19548 -2.1276,1.37244 z M 938.43709,691.75 935.5,688.5 l 3.25,2.93709 c 3.02946,2.73778 3.70965,3.56291 2.93709,3.56291 -0.1721,0 -1.6346,-1.4625 -3.25,-3.25 z M 900,568.62244 c 0,-0.20765 0.7875,-0.99515 1.75,-1.75 1.58606,-1.24387 1.62143,-1.2085 0.37756,0.37756 C 900.82119,568.91575 900,569.44548 900,568.62244 Z"
         id="path7" />
      <path
         style="fill:#8c8c8c;fill-opacity:1"
         d="m 501.87244,800.25 c -1.24387,-1.58606 -1.2085,-1.62143 0.37756,-0.37756 1.66575,1.30637 2.19548,2.12756 1.37244,2.12756 -0.20765,0 -0.99515,-0.7875 -1.75,-1.75 z M 271.8125,771.31689 c 0.72187,-0.28887 1.58438,-0.25335 1.91667,0.0789 0.33229,0.33229 -0.25834,0.56864 -1.3125,0.52522 -1.16495,-0.048 -1.4019,-0.28494 -0.60417,-0.60416 z M 211,732.5 c 6.85849,-6.875 12.69499,-12.5 12.96999,-12.5 0.275,0 -5.1115,5.625 -11.96999,12.5 -6.85849,6.875 -12.69499,12.5 -12.96999,12.5 -0.275,0 5.1115,-5.625 11.96999,-12.5 z m 154.87244,5.75 c -1.24387,-1.58606 -1.2085,-1.62143 0.37756,-0.37756 0.9625,0.75485 1.75,1.54235 1.75,1.75 0,0.82304 -0.82119,0.29331 -2.12756,-1.37244 z m 732.99996,0 c -1.2438,-1.58606 -1.2085,-1.62143 0.3776,-0.37756 0.9625,0.75485 1.75,1.54235 1.75,1.75 0,0.82304 -0.8212,0.29331 -2.1276,-1.37244 z M 268.75,662.33772 c 0.6875,-0.27741 1.8125,-0.27741 2.5,0 0.6875,0.27741 0.125,0.50439 -1.25,0.50439 -1.375,0 -1.9375,-0.22698 -1.25,-0.50439 z m 757,-0.0435 c 1.2375,-0.23836 3.2625,-0.23836 4.5,0 1.2375,0.23835 0.225,0.43337 -2.25,0.43337 -2.475,0 -3.4875,-0.19502 -2.25,-0.43337 z M 1013,659.62244 c 0,-0.20765 0.7875,-0.99515 1.75,-1.75 1.5861,-1.24387 1.6214,-1.2085 0.3776,0.37756 -1.3064,1.66575 -2.1276,2.19548 -2.1276,1.37244 z m 3.8724,-3.37244 c -1.2438,-1.58606 -1.2085,-1.62143 0.3776,-0.37756 1.6657,1.30637 2.1955,2.12756 1.3724,2.12756 -0.2076,0 -0.9951,-0.7875 -1.75,-1.75 z M 313,630.5 c 14.01691,-14.025 25.71029,-25.5 25.98529,-25.5 0.275,0 -10.96838,11.475 -24.98529,25.5 -14.01691,14.025 -25.71029,25.5 -25.98529,25.5 -0.275,0 10.96838,-11.475 24.98529,-25.5 z m 706.5,22.5 c 0.9955,-1.1 2.035,-2 2.31,-2 0.275,0 -0.3145,0.9 -1.31,2 -0.9955,1.1 -2.035,2 -2.31,2 -0.275,0 0.3145,-0.9 1.31,-2 z M 920,570.62244 c 0,-0.20765 0.7875,-0.99515 1.75,-1.75 1.58606,-1.24387 1.62143,-1.2085 0.37756,0.37756 C 920.82119,570.91575 920,571.44548 920,570.62244 Z m -543,-3.93535 c 0,-0.1721 1.4625,-1.6346 3.25,-3.25 l 3.25,-2.93709 -2.93709,3.25 C 377.82513,566.77946 377,567.45965 377,566.68709 Z M 394.87244,564.25 c -1.24387,-1.58606 -1.2085,-1.62143 0.37756,-0.37756 0.9625,0.75485 1.75,1.54235 1.75,1.75 0,0.82304 -0.82119,0.29331 -2.12756,-1.37244 z M 903,565.68709 c 0,-0.1721 1.4625,-1.6346 3.25,-3.25 l 3.25,-2.93709 -2.93709,3.25 C 903.82513,565.77946 903,566.45965 903,565.68709 Z M 923.40499,562.75 921.5,560.5 l 2.25,1.90499 c 2.11444,1.79022 2.70524,2.59501 1.90499,2.59501 -0.18976,0 -1.20226,-1.0125 -2.25,-2.25 z m -6,-6 -1.90499,-2.25 2.25,1.90499 c 2.11444,1.79022 2.70524,2.59501 1.90499,2.59501 -0.18976,0 -1.20226,-1.0125 -2.25,-2.25 z M 248.8125,492.31689 c 0.72187,-0.28887 1.58437,-0.25335 1.91667,0.0789 0.33229,0.33229 -0.25834,0.56864 -1.3125,0.52522 -1.16495,-0.048 -1.4019,-0.28494 -0.60417,-0.60416 z"
         id="path6" />
      <path
         style="fill:#767676;fill-opacity:1"
         d="m 508.07895,805.41667 c 0.048,-1.16495 0.28494,-1.4019 0.60416,-0.60417 0.28887,0.72187 0.25335,1.58438 -0.0789,1.91667 -0.33229,0.33229 -0.56864,-0.25834 -0.52522,-1.3125 z M 489.87244,789.25 c -1.24387,-1.58606 -1.2085,-1.62143 0.37756,-0.37756 0.9625,0.75485 1.75,1.54235 1.75,1.75 0,0.82304 -0.82119,0.29331 -2.12756,-1.37244 z m 611.99996,-48 c -1.2438,-1.58606 -1.2085,-1.62143 0.3776,-0.37756 1.6657,1.30637 2.1955,2.12756 1.3724,2.12756 -0.2076,0 -0.9951,-0.7875 -1.75,-1.75 z m -21.4674,-21.5 -1.905,-2.25 2.25,1.90499 c 2.1144,1.79022 2.7052,2.59501 1.905,2.59501 -0.1898,0 -1.2023,-1.0125 -2.25,-2.25 z m -856.89792,-0.73855 c -0.35034,-0.56686 0.0511,-0.7345 0.94098,-0.39301 1.73242,0.66479 2.04939,1.38156 0.61096,1.38156 -0.51754,0 -1.21592,-0.44485 -1.55194,-0.98855 z M 338.55887,711.4682 C 337.49125,710.66069 337.09865,710 337.68643,710 c 0.58777,0 1.62888,0.675 2.31357,1.5 1.5572,1.87632 1.06734,1.86551 -1.44113,-0.0318 z M 285,658.62244 c 0,-0.20765 0.6853,-0.9463 1.52289,-1.64144 1.27335,-1.05678 1.41968,-0.99492 0.89301,0.37756 -0.53789,1.40173 -2.4159,2.38422 -2.4159,1.26388 z M 958,599 c 0,-0.55 0.47656,-1 1.05902,-1 0.58246,0 0.7809,0.45 0.44098,1 -0.33992,0.55 -0.81648,1 -1.05902,1 C 958.19844,600 958,599.55 958,599 Z m -51,-15.5 c 1.29175,-1.375 2.57363,-2.5 2.84863,-2.5 0.275,0 -0.55688,1.125 -1.84863,2.5 -1.29175,1.375 -2.57363,2.5 -2.84863,2.5 -0.275,0 0.55688,-1.125 1.84863,-2.5 z m 168.405,-39.75 -1.905,-2.25 2.25,1.90499 c 2.1144,1.79022 2.7052,2.59501 1.905,2.59501 -0.1898,0 -1.2023,-1.0125 -2.25,-2.25 z"
         id="path5" />
      <path
         style="fill:#606060;fill-opacity:1"
         d="M 496.40499,794.75 494.5,792.5 l 2.25,1.90499 c 2.11444,1.79022 2.70524,2.59501 1.90499,2.59501 -0.18976,0 -1.20226,-1.0125 -2.25,-2.25 z M 398.30987,602.5 c 0.006,-3.3 0.1923,-4.52944 0.41486,-2.73209 0.22256,1.79735 0.21797,4.49735 -0.0102,6 -0.22818,1.50265 -0.41027,0.0321 -0.40466,-3.26791 z m 503,0 c 0.006,-3.3 0.1923,-4.52944 0.41486,-2.73209 0.22256,1.79735 0.21797,4.49735 -0.0102,6 -0.22818,1.50265 -0.41027,0.0321 -0.40466,-3.26791 z M 892,577.62244 c 0,-0.20765 0.7875,-0.99515 1.75,-1.75 1.58606,-1.24387 1.62143,-1.2085 0.37756,0.37756 C 892.82119,577.91575 892,578.44548 892,577.62244 Z m 147.25,-68.31177 c 0.9625,-0.25152 2.5375,-0.25152 3.5,0 0.9625,0.25153 0.175,0.45733 -1.75,0.45733 -1.925,0 -2.7125,-0.2058 -1.75,-0.45733 z m -778.5,-16.97295 c 0.6875,-0.27741 1.8125,-0.27741 2.5,0 0.6875,0.27741 0.125,0.50439 -1.25,0.50439 -1.375,0 -1.9375,-0.22698 -1.25,-0.50439 z m 777.0625,-0.0208 c 0.7219,-0.28887 1.5844,-0.25335 1.9167,0.0789 0.3323,0.33229 -0.2584,0.56864 -1.3125,0.52522 -1.165,-0.048 -1.4019,-0.28494 -0.6042,-0.60416 z m 6.9375,0.0208 c 0.6875,-0.27741 1.8125,-0.27741 2.5,0 0.6875,0.27741 0.125,0.50439 -1.25,0.50439 -1.375,0 -1.9375,-0.22698 -1.25,-0.50439 z"
         id="path4" />
      <path
         style="fill:#494949;fill-opacity:1"
         d="M 498.40499,795.75 496.5,793.5 l 2.25,1.90499 c 1.2375,1.04774 2.25,2.06024 2.25,2.25 0,0.80025 -0.80479,0.20945 -2.59501,-1.90499 z M 1115.5,692 c 0.9955,-1.1 2.035,-2 2.31,-2 0.275,0 -0.3145,0.9 -1.31,2 -0.9955,1.1 -2.035,2 -2.31,2 -0.275,0 0.3145,-0.9 1.31,-2 z m 32.7211,-160.27691 C 1142.591,526.04247 1140.4072,522 1142.9686,522 c 0.5328,0 0.759,0.5625 0.5027,1.25 -0.5665,1.51959 11.0442,13.75 13.0532,13.75 0.7862,0 2.164,-1.12114 3.0618,-2.49141 0.8979,-1.37028 2.1071,-2.19808 2.6872,-1.83955 1.3615,0.84142 -3.7826,5.33096 -6.1082,5.33096 -0.9477,0 -4.5226,-2.82461 -7.9442,-6.27691 z m -894.4086,-22.4062 c 0.72187,-0.28887 1.58437,-0.25335 1.91667,0.0789 0.33229,0.33229 -0.25834,0.56864 -1.3125,0.52522 -1.16495,-0.048 -1.4019,-0.28494 -0.60417,-0.60416 z m 5.4375,-0.006 c 0.9625,-0.25152 2.5375,-0.25152 3.5,0 0.9625,0.25153 0.175,0.45733 -1.75,0.45733 -1.925,0 -2.7125,-0.2058 -1.75,-0.45733 z m 785.5,0.027 c 0.6875,-0.27741 1.8125,-0.27741 2.5,0 0.6875,0.27741 0.125,0.50439 -1.25,0.50439 -1.375,0 -1.9375,-0.22698 -1.25,-0.50439 z m -789.5,-17.02705 c 0.9625,-0.25152 2.5375,-0.25152 3.5,0 0.9625,0.25153 0.175,0.45733 -1.75,0.45733 -1.925,0 -2.7125,-0.2058 -1.75,-0.45733 z m 785.5,0.027 c 0.6875,-0.27741 1.8125,-0.27741 2.5,0 0.6875,0.27741 0.125,0.50439 -1.25,0.50439 -1.375,0 -1.9375,-0.22698 -1.25,-0.50439 z"
         id="path3" />
      <path
         style="fill:#333333;fill-opacity:1"
         d="m 792.3732,800.5 c 3.56204,-31.52746 17.93263,-80.67353 35.08868,-120 11.30847,-25.92217 30.306,-59.01992 44.26293,-77.11547 1.22364,-1.58649 4.11393,-5.35953 6.42286,-8.38453 5.81346,-7.61641 22.36459,-26.18851 30.27057,-33.96675 l 6.57295,-6.46674 5.01384,4.93844 c 2.75761,2.71615 4.89709,5.26985 4.7544,5.6749 -0.14268,0.40505 -5.2813,5.81779 -11.41914,12.0283 L 902.18057,588.5 l -0.69245,8 c -2.1886,25.28492 7.79301,58.04385 24.83295,81.5 5.91276,8.13915 21.21944,22.95325 28.94493,28.01347 l 6.76599,4.43175 L 946.266,726.47261 930.5,742.5 l 16.00795,-15.74659 16.00796,-15.74658 7.57044,3.96692 c 16.12686,8.45049 38.55635,14.00735 56.59125,14.02035 14.7284,0.0106 33.0442,-3.42688 45.7345,-8.58343 l 6.0232,-2.44745 13.0323,12.76839 13.0323,12.76839 -12.4508,-12.7158 c -6.848,-6.99368 -12.248,-12.88975 -12,-13.10238 0.248,-0.21262 3.0844,-1.81306 6.3032,-3.55653 21.5289,-11.66139 40.3728,-30.45263 51.4737,-51.32999 9.5924,-18.0405 14.0382,-34.44329 14.8824,-54.90903 0.966,-23.41819 -2.9061,-41.62613 -13.4436,-63.21647 l -4.3098,-8.8302 -11.2275,-5.30964 c -23.7401,-11.22702 -44.5172,-17.41787 -67.5483,-20.12707 -32.3776,-3.80865 -59.89549,3.95597 -93.85334,26.48228 -11.14549,7.39348 -29.7476,21.53657 -34.25472,26.04369 -1.80527,1.80527 -1.99113,1.71505 -7.07797,-3.43578 l -5.22402,-5.28973 4.25459,-3.85167 c 12.78575,-11.57493 32.47752,-25.86434 49.0314,-35.57983 27.9202,-16.38638 46.07396,-21.77559 73.32586,-21.76783 27.4929,0.008 55.0311,6.86586 87.619,21.82037 11.287,5.17958 12.4674,5.96486 12.164,8.09228 -0.2543,1.78388 1.1958,3.90149 5.9712,8.71969 3.4688,3.5 7.073,6.36364 8.0092,6.36364 0.9362,0 3.0801,-1.15943 4.7642,-2.57651 l 3.062,-2.5765 12.7647,8.46119 c 22.3455,14.81187 46.4544,33.72271 47.0705,36.9217 0.369,1.9162 -9.806,26.6196 -16.4847,40.02213 -12.2975,24.67837 -29.8077,52.4209 -44.9663,71.2427 -8.2529,10.24731 -27.0052,29.95682 -33.8548,35.58285 -29.1623,23.95294 -51.4442,35.68601 -81.5,42.91563 -22.1797,5.33511 -34.0917,3.50178 -73.62192,-11.33081 -34.21338,-12.8376 -48.59797,-16.60722 -63.49986,-16.64074 -31.11216,-0.07 -75.82034,23.87921 -111.43609,59.69386 l -6.74682,6.7845 z m -291.01217,-1.75 c -9.75764,-10.26789 -33.73646,-28.63494 -50.07111,-38.35295 -12.94867,-7.70357 -28.4909,-14.41801 -41.34573,-17.86187 -10.3595,-2.77535 -24.1574,-3.39121 -34.03003,-1.5189 l -5.35881,1.01628 -15.77768,-15.75456 c -8.67772,-8.66501 -15.75605,-15.98483 -15.72962,-16.26628 0.0264,-0.28145 2.56761,-2.08672 5.64707,-4.01172 6.73882,-4.21251 23.47353,-20.36667 29.00627,-28 13.86421,-19.128 21.73949,-39.96692 24.3882,-64.5341 0.69237,-6.42177 0.88216,-13.90537 0.45404,-17.90305 l -0.7356,-6.86895 -9.65401,-9.97786 c -22.8824,-23.65 -49.30143,-43.30389 -75.65402,-56.28122 -14.97776,-7.37581 -26.97634,-10.85889 -42.86336,-12.44285 -27.27837,-2.7197 -64.18032,5.68931 -96.68388,22.03178 l -7.98683,4.0157 -4.91652,10.23028 c -8.84908,18.41309 -11.94549,30.99851 -12.72728,51.73027 -0.84651,22.44802 3.23233,41.45733 13.1332,61.2069 12.52062,24.97527 34.41235,46.6025 58.19253,57.48942 l 5.57513,2.55238 L 211.3615,732.37435 198.5,745.5 l 13.16038,-12.89615 13.16038,-12.89615 8.33962,2.65066 c 13.08357,4.15847 21.36221,5.64762 34.83962,6.2669 21.24318,0.97611 43.15744,-3.88309 62.20646,-13.79348 l 7.96009,-4.14129 15.41672,15.39265 C 362.06247,734.5491 369,741.81875 369,742.2379 c 0,0.41916 -0.67819,0.7621 -1.50708,0.7621 -1.93373,0 -28.69409,8.88377 -38.49292,12.77868 -22.50002,8.94348 -45.14164,15.16189 -55.34292,15.19968 -13.63582,0.0505 -38.38548,-6.95788 -57.74569,-16.35191 -32.95952,-15.99274 -60.47418,-40.68543 -90.05848,-80.82184 -17.14696,-23.26295 -38.96924,-64.12798 -48.424441,-90.68102 l -1.914472,-5.37641 5.493002,-4.89435 c 6.361311,-5.66802 24.427771,-19.49393 34.528171,-26.42374 43.20138,-29.64014 83.7586,-47.05285 122.28949,-52.50341 12.54354,-1.7744 39.58241,-0.7005 49.67534,1.97295 17.38234,4.6043 36.7647,13.9421 58,27.94255 34.36171,22.6547 66.73124,55.21581 91.30071,91.84107 28.83221,42.97964 49.02903,89.66846 63.72726,147.31775 1.74708,6.85237 7.47203,37.18686 7.47203,39.59163 0,2.43548 -1.49697,1.56926 -6.63897,-3.84163 z M 381.5,563 c 2.14824,-2.2 3.6809,-4 3.4059,-4 -0.275,0 -2.25766,1.8 -4.4059,4 -2.14824,2.2 -3.6809,4 -3.4059,4 0.275,0 2.25766,-1.8 4.4059,-4 z M 260,661.30915 c -13.81203,-2.31208 -29.34264,-11.51808 -39.4939,-23.41058 l -4.54212,-5.32123 5.86973,-1.60675 c 11.63944,-3.18612 20.34111,-10.52504 25.90328,-21.8466 2.4859,-5.05995 2.76301,-6.67916 2.76301,-16.14502 0,-9.90474 -0.19542,-10.91798 -3.33614,-17.2977 C 241.87015,564.92824 230.74973,555.96959 220.66398,554.3329 218.64879,554.00588 217,553.24846 217,552.64974 c 0,-0.59871 3.4875,-4.51492 7.75,-8.70267 19.7532,-19.40682 48.39885,-25.02946 74.16905,-14.55809 25.10225,10.19995 42.13333,35.34799 42.29199,62.44822 0.0701,11.97548 -1.08432,18.1554 -5.30222,28.38391 -7.81005,18.93958 -24.73436,33.94559 -44.40882,39.37527 -6.03831,1.66643 -7.83396,1.753 -6.95787,0.33545 0.3631,-0.5875 1.31303,-0.81765 2.11096,-0.51146 0.89175,0.3422 1.18827,0.13196 0.76951,-0.5456 -0.39453,-0.63836 10.63207,-12.52379 26.19806,-28.23855 L 340.5,603.5 l -27.24901,26.99206 -27.249,26.99206 -21.251,-20.99206 L 243.5,615.5 l 20.9459,21.20479 c 20.72445,20.9806 20.92633,21.22642 19.09501,23.25 -1.63875,1.81081 -2.95058,2.0296 -11.4459,1.90903 -5.27725,-0.0749 -10.72001,-0.3245 -12.09501,-0.55467 z m 755.1545,-0.16744 -2.3455,-0.65892 2.1335,-1.93072 c 2.1182,-1.91701 2.1525,-1.91162 4.8227,0.7586 l 2.6893,2.68933 -2.4772,-0.0997 c -1.3625,-0.0548 -3.5328,-0.3962 -4.8228,-0.75861 z m 5.3823,-2.0587 -2.9632,-3.13747 19.4082,-19.42728 19.4081,-19.42727 4.6478,4.34753 c 5.5513,5.1926 9.5197,7.39045 17.2017,9.52695 l 5.7395,1.59624 -4.7395,5.71813 c -11.4568,13.8227 -28.3875,22.3916 -46.2394,23.40262 l -9.5,0.53802 z m -13.0927,0.48134 c -5.0812,-1.55187 -15.48014,-6.80505 -21.03091,-10.62407 -7.3396,-5.04978 -15.10402,-14.74197 -20.38024,-25.44028 -4.44763,-9.01824 -7.84593,-20.56107 -6.89405,-23.4167 0.20041,-0.60124 13.18206,11.73041 28.84809,27.40369 l 28.48371,28.49686 -2.4854,2.40962 c -2.3195,2.24885 -2.7559,2.32697 -6.5412,1.17088 z M 987.27695,625.75 958.09918,596.5 l 0.4944,-7 c 1.53316,-21.70733 12.48888,-41.09356 30.059,-53.18965 10.1005,-6.95365 18.60822,-10.12863 30.84742,-11.51195 21.4051,-2.41927 40.9233,4.34207 55.75,19.31245 4.2625,4.3038 7.75,8.2895 7.75,8.85712 0,0.56762 -0.8831,1.03203 -1.9625,1.03203 -1.0794,0 -4.4699,0.93815 -7.5346,2.08479 -7.8146,2.92383 -16.5536,11.2415 -20.7352,19.7355 -3.0626,6.22107 -3.2677,7.29797 -3.2677,17.15868 0,9.82765 0.2116,10.94941 3.2112,17.02103 l 3.2111,6.5 -19.2015,19.25 c -10.5609,10.5875 -19.4411,19.25 -19.7338,19.25 -0.2928,0 -13.6623,-13.1625 -29.71005,-29.25 z M 1149.275,530.93453 c -5.4834,-5.75924 -6.998,-8.43453 -4.775,-8.43453 1.7168,0 15.4095,7.82173 15.8915,9.07776 0.6147,1.60201 -2.1493,5.42224 -3.9232,5.42224 -0.7801,0 -4.0171,-2.72946 -7.1933,-6.06547 z"
         id="path2" />
    </g>
  </g>
</svg>
