<?xml version="1.0" encoding="UTF-8" standalone="no"?>
<!-- Created with Inkscape (http://www.inkscape.org/) -->

<svg
   version="1.1"
   id="svg1"
   width="600"
   height="421"
   viewBox="0 0 600 421"
   sodipodi:docname="garras.svg"
   inkscape:version="1.4 (86a8ad7, 2024-10-11)"
   xmlns:inkscape="http://www.inkscape.org/namespaces/inkscape"
   xmlns:sodipodi="http://sodipodi.sourceforge.net/DTD/sodipodi-0.dtd"
   xmlns="http://www.w3.org/2000/svg"
   xmlns:svg="http://www.w3.org/2000/svg">
  <defs
     id="defs1" />
  <sodipodi:namedview
     id="namedview1"
     pagecolor="#505050"
     bordercolor="#eeeeee"
     borderopacity="1"
     inkscape:showpageshadow="0"
     inkscape:pageopacity="0"
     inkscape:pagecheckerboard="0"
     inkscape:deskcolor="#505050"
     inkscape:zoom="0.61724879"
     inkscape:cx="-29.971707"
     inkscape:cy="253.54444"
     inkscape:window-width="1920"
     inkscape:window-height="974"
     inkscape:window-x="-11"
     inkscape:window-y="-11"
     inkscape:window-maximized="1"
     inkscape:current-layer="g1" />
  <g
     inkscape:groupmode="layer"
     inkscape:label="Image"
     id="g1">
    <path
       style="fill:#161616;stroke:none"
       d="m 378.24019,27.240185 -1,9 c -4.0408,-0.678436 -5.40976,0.261841 -7,4 -9.74966,-2.320129 -19.74481,0.989532 -29,3.999999 v 1 l 31,-2 v -5.999999 l 7,4 v -13 l 22,-2 -39,27.999999 1,-3 c -20.7858,15.896271 -41.82516,31.873871 -63,47.629639 -10.14243,7.546747 -18.51059,18.082977 -32,18.370357 v 1 h 8 v 1 l -7,2 v 1 h 7 l -12,13.00001 -15,-24.00001 c -5.22081,4.405 -8.94258,9.92432 -13,1 l 5,3 c 0.18254,-8.84415 -1.06946,-12.09707 -5,-19.999996 5.65224,0.950531 5.84396,-2.162262 5,-7 l 6,-6 v -1 l -5,-2 v 6 h -3 l 1,9 -11,-2 c 2.63466,4.212067 17.20792,18.492646 4,16.999996 l 2,8 -7,-2 2,4 c -7.4912,0.96744 -15.33168,2.72934 -20.95679,8.10495 -6.88775,6.58225 -7.43313,13.27671 -17.04321,16.89506 l 67,-91.000006 c -1.51831,3.839752 -1.26537,5.578766 1,9 -6.54308,0.214813 -7.08446,3.050018 -6,9 l -4,-1 3,5 h -7 v 4 c 4.34181,-1.484192 8.20595,-1.653778 8,-7 l 8,-8 c -0.54269,-12.4776 5.77231,-23.238769 11,-34.999999 -11.78073,0.507172 -15.69427,10.092712 -26,13.999999 -0.87221,5.581848 -3.74335,6.494141 -9,6 l -9.32484,12.581787 -7.67516,7.418213 -10,6 1,5 -8,1 1,7 -20,9 v 1 l 24,-4 -1,-10 9,-1 v -11 l 7,5 c 0.0234,-6.619446 1.30423,-9.384644 8,-11 l 7,-16 c 10.8013,5.103516 19.80682,-16.078124 31,-18.999999 -12.05318,13.33081 -27.32996,25.622832 -37.84105,39.999999 -8.10063,11.080109 -16.85957,28.562439 -31.15895,31.999996 l 1,2 h -3 c 2.20296,7.32458 -5.97166,15.28394 -13,16 -2.12923,7.87061 -7.02727,11.78208 -13,17.00001 l 1,-4 -10,8 1,-4 h -1 l -18,21 -7,-17 2,-5 c 8.49529,3.85727 19.91277,6.51752 14,-8.00001 l 16,3 -2,-17 11,3 h 1 c 4.33282,-6.97604 6.97255,-10.84399 4,-18.999996 h -1 l -3,14.999996 c -9.57751,-2.88165 -14.59113,1.62198 -15,11 l -15,2 2,11.00001 c -6.31349,-1.49542 -11.27504,-0.1142 -17,-0.97375 -3.82545,-0.57438 -7.00777,-3.34229 -11,-3.84107 -17.46066,-2.18153 -28.487439,5.59964 -39.957572,17.81482 -5.43255,5.78543 -6.15064,14.418 -12.09722,19.48225 -18.59854,15.83893 -41.223,25.52665 -42.85185,53.51775 -0.53278,9.15565 3.99709,15.7345 6.57793,24 2.99942,9.60606 3.13933,19.51453 7.20139,29 6.7017,15.64938 17.50834,26.44855 27.12732,40 h 1 c -3.49723,-14.75778 -18.6428,-42.80377 -1.78704,-55.39661 3.17178,-2.36963 8.0802,-1.84439 11.78704,-2.90432 6.16031,-1.76149 11.584243,-5.85317 15.674383,-10.70293 9.793749,-11.61264 8.851729,-27.79953 25.325619,-30.99614 l -2,11 9,-15 1,6 h 1 l 3,-8 h 1 l 1,6 h 2 c 0.33974,-7.79231 2.78821,-14.18987 8,-20 0.96083,11.7634 1.45213,19.48627 -5,30 l 3,3 -21,-1 v 1 l 21,4 c 0,13.26056 0.46469,39.78888 13,48 2.52776,-14.68042 14.94612,-35.9624 26.17361,-45.69676 4.63588,-4.01937 11.68065,-3.68567 16.82639,-7.15355 9.78247,-6.59274 14.68663,-17.63608 19,-28.14969 l 3,5 7,-4 c 1.16483,7.88731 3.19536,16.59674 12,18 v -1 c -6.40244,-4.85445 -4.94478,-9.16539 -3,-16 h 1 l 1,3 c 7.68185,-10.30815 18.4986,-18.20641 25.45139,-29 5.36508,-8.32881 7.67648,-21.10504 19.54861,-22 l 13,-7 -11,-1 33,-36.00001 -3,10 h 1 c 9.61441,-17.55469 22.98807,-28.988064 37,-42.999996 15.84357,-15.843567 31.16037,-32.16037 47,-47.999999 l -6,19.999999 -11,1 c 3.8685,6.693939 4.39752,9.607666 -5,7 1.655,3.635864 5.117,6.914398 5.59723,11 1.48151,12.604401 -16.01331,11 -23.59723,11 l 4,9 -1,-6 c 8.75098,-0.02411 19.05978,-0.456329 22.77084,-10 0.99952,-2.570465 0.0359,-5.25592 0.831,-7.830231 1.47076,-4.762207 4.83355,-5.953308 2.39816,-11.169769 l 11,-1 -4,-10 c 8.71442,-4.968169 5.71298,-11.936187 6,-19.999999 l -27,4 m 113.99999,10 v 2 h 4 -8 l -13.99999,9.999999 -9,1 3,7 c -6.73672,2.176361 -5.4653,7.510498 -10.39352,11.242279 -7.72504,5.849579 -7.01871,-5.224152 -5.60648,-9.242279 l -6,2 c 0.53442,2.237274 0.62146,4.714233 1.30322,6.892761 4.34149,13.872986 19.58341,-7.071441 24.69678,-7.892761 l -5,-10 4,-1 5.99999,5 c -0.0921,-10.352264 4.80597,-8.217346 13,-10 l -27.99999,28.985352 -14,11.014648 c -2.00626,5.901489 -6.9527,9.973755 -11,14.575623 -10.80624,12.286953 -21.57153,22.621913 -38,26.424373 v 1 l 8,-1 v 1 l -7,5 12,-2 c -10.24677,20.57063 -35.54245,35.00001 -58,35.00001 v 1 l 5,1 v 1 l -8,2 v 1 h 5 v 1 l -21,8 1,-13 h 1 l 5,7 1,-7 h 4 l 1,-11 c 4.50488,0 14.84869,1.37277 16,-4 l 6,2 v -7 l 15,-4 -2,-4 13,-1 v -1 l -7,-4.00001 c -5.14346,2.69209 -13.56427,7.76948 -15,-1 h -1 l -3,8.00001 3,1 c -7.45776,7.94736 -16.58652,13.24127 -27,9 l -5,18 h -2 l -5,-4 c -0.34445,4.32846 -0.64984,11.12651 -3.72763,14.48611 -4.66193,5.08876 -16.15088,4.20797 -22.25772,7.99305 -7.65946,4.74742 -8.16266,14.58487 -15.1196,19.55171 -11.25217,8.03337 -24.7933,7.06929 -34.72452,17.97299 -7.58383,8.32645 -13.24559,19.6093 -14.08026,30.99614 -0.42175,5.75369 1.5583,12.47885 0.23303,18 -3.25882,13.57642 -14.17959,25.42599 -21.3233,37 21.4073,-15.8017 21.82951,-50.08986 44.00076,-64.89507 17.33176,-11.57354 48.6698,-0.0773 36.72147,23.89507 -13.93628,27.96082 -57.19388,43.09595 -85.72223,49 v 1 c 19.40628,-0.0536 34.09323,-8.77252 52,-13.99072 7.05637,-2.05631 15.18961,3.11261 23,1.31018 16.77502,-3.87125 22.48474,-18.49213 33,-29.31946 l 1,6 3,-4 h 1 v 5 l 10,-4 1,-8 -4,1 -4,6 -1,-5 -4,3 c -1.17114,-5.40527 -0.13547,-9.43289 5,-12 l -1,4 5,-6 h 1 v 5 h 1 c 1.54816,-11.4967 7.02975,-21.64717 15,-30 -0.009,13.40244 -2.94354,25.67181 -8,38 h 1 c 4.11539,-7.07764 6.7171,-14.93478 8.07947,-23 0.65976,-3.90581 0.34546,-10.51466 3.48456,-13.39275 2.87371,-2.63476 9.69638,-0.99977 9.54632,3.44753 -0.12207,3.61861 -3.61459,6.75642 -6.11035,8.94522 v 1 l 9,-9 h 1 c -0.054,4.84314 -0.51318,8.51256 -5,11 l -1,5 h 4 v 1 h -3 v 1 c 20.02045,-3.62619 20.46988,-31.58151 11,-45 3.63156,2.24106 7.04669,5.25595 11,6.91435 6.54596,2.74599 16.0155,-0.19655 17.45215,-7.91435 0.8074,-4.33751 -2.27292,-10.8221 2.11188,-14.22299 2.87091,-2.2267 8.3413,0.51353 11.43597,1.22299 l -1,-19 h 11 l -8,-17 9,-5 4,3 c -1.99103,-3.85925 -5.91913,-8.26071 -8,-2 l -9,-4 c 0,10.6114 2.46219,15.10736 8,24 l -8,-7 c -5.504,5.24173 -3.39795,17.56656 -1,24 l -12,-4 -3,14 -4,-1 v 1 c 7.94266,5.03143 5.78671,9.29201 -2,13 l 2,-12 h -1 c -1.43918,17.45593 -13.92978,5.03654 -23,1 5.79816,14.13657 9.64868,29.0065 -1,42 3.01892,-12.68015 -5.89981,-13.92256 -9,-24 h -1 l -6,5 13,-33 h 1 v 5 h 1 c 5.14304,-21.45323 29.26782,-18.66435 39,-35 l -11,7 25.71991,-36 20.28009,-30.00001 h 2 l 1,4 h 1 c 2.15173,-16.647701 14.63718,-30.11343 30.99999,-33.999996 v -1 l -9.99999,2 6.99999,-8 -5.99999,2 29.99999,-39.999999 v 20.999999 h 1 l 4,-25.999999 -16,5 m -224.99999,3 -7,12.999999 h -1 l 8,-12.999999 m 75,6.999999 v 1 c 7.69403,2.335968 4.20135,12.010498 -2.04013,14.395844 -5.38998,2.059936 -10.89667,-2.119996 -15.95987,-3.395844 l 4,7 -5,-1 1,7 -13,-4 v 1 l 13,9 h 2 l 1,-7 4,1 v -6 c 4.7377,0.585663 10.54642,1.66803 14.19983,-2.314026 5.07251,-5.528808 5.74527,-15.994964 -3.19983,-16.685974 m 143.99999,16 8,5 -2,-4 7,-1 h -13 m -176.99999,6 v 9 l -8,1 v 1 l 3,1 v 1 h -12 v 1 l 5,4 c -3.32135,1.098877 -3.73746,2.590271 -4,6 l -15,-7 v 8 l -3,4 -8,-2 c -1.63412,6.758976 -2.50735,9.871026 -10,10.999996 v 1 c 7.56393,-0.15616 12.89899,-0.47556 13,-8.999996 l 14,-1 -3,-8 c 5.67578,4.555023 8.81528,5.902435 16,5 v -6 l 4,-1 -3,-5 12,3 -2,-5 h 5 l 2,-5 v -1 l -6,-6 m 129,1 -2,11 h -1 l -8,-9 -3,3 7,13 2,-4 2,2 h 1 l 16,-12 -12,1 -2,-5 m 55.99999,0 -12,1 c 2.75476,3.926727 6.77606,7.279205 8.19214,12 2.5069,8.357391 -6.37879,20.672486 -12.19214,25.999996 -1.1846,-6.10058 -3.98836,-7.9284 -9.99999,-8 v 1 c 4.31143,2.50101 7.21536,4.92908 8,10 16.77382,-5.70239 18.89409,-23.728023 14.99999,-37.999996 l 3,-4 m -74.99999,7 -1,5 3,-1 3,4 c 0.85287,-4.414886 -0.41315,-7.210876 -5,-8 m -5,13 -2,8 c -4.90329,-1.449341 -15.82047,-2.768188 -20.57022,-0.396606 -5.77158,2.881772 -6.48218,17.427542 -2.42978,21.396602 v 1 l -12,8 v 1 c 6.95575,-1.25531 13.19907,-5.95233 18,-11 -7.94418,-4.77292 -3.82825,-10.75568 4,-12 l 1,-6 11,7 -3,-7 h 7 l 1,-5.999996 4,1 -6,-5 m -47,1 -4,10.999996 -17,-3.999996 9,10.999996 -17,2 c 2.28766,6.02328 2.29269,12.31906 -6,11 v 11.00001 h -12 l -3,11 -5,-1 2,18 h 1 l 4,-6 -2,-8 4,1 c 0.0375,-13.07379 5.8996,-7.19803 13.40125,-13.02701 4.52481,-3.51591 10.15783,-15.47904 8.59875,-20.973 l 13,-5 -2,-7 11,2 2,-12.999996 m 30,13.999996 h -6 c 0.25189,-7.671627 4.50186,-6.786892 6,0 m 64,-3 c -9.15991,6.29691 -0.49686,15.42184 1,24 l -15,-7 4,6 -9,1 10,18.00001 h 1 l -6,-15.00001 c 2.54041,0.20023 5.28903,0.93802 7.83023,0.65045 14.96167,-1.69302 5.668,-19.08255 6.16977,-27.65045 m 91.99999,21 v 1 h 10 l -13,10.00001 1,-8.00001 h -1 l -8,13.00001 7,-3 -7,10 h -1 v -12 c -3.42462,3.36658 -2.56177,6.52728 -2,11 -4.94324,-1.17032 -13.66968,-4.61819 -18.39734,-0.96915 -2.44446,1.88675 -1.75897,5.12802 -4.60266,6.96915 l 2,6 -5,5 c -5.97488,0.0708 -8.79855,1.68454 -7,8 l -1,1 -12,-3 v 1 l 17,6 -1,-9 13,-6 -1,-5 5,-1 -6,-10 21,2 c -5.88708,10.56174 -16.91748,19.68683 -26,27.57562 -5.40048,4.69071 -8.01422,8.86804 -15,5.42438 -1.48239,6.16228 -4.9505,11.9579 -12,10 -0.27744,13.36784 -11.487,19.90753 -23.99999,21 l 6,5 -11,6 4,2 -33,43 v -9 h -1 l -3,10 h -1 v -5 h -1 l -25,37 h -1 v -8 h -1 l -4,14 h -1 v -4 h -2 c -0.10983,2.40372 -0.29449,4.69037 -1.05865,6.99692 -5.57041,16.81338 -23.28028,-3.0459 -17.94135,-13.99692 l 2,5 h 1 c 1.80322,-4.03638 1.3577,-7.53726 2.65356,-11.42053 3.85349,-11.54743 15.56937,-3.38758 22.34644,-0.57947 -0.89481,-5.7984 -5.34613,-10.46133 -11,-12 l 5,7 c -11.0596,-3.10791 -18.88239,-0.99789 -19,12 h -1 l -4,-5 c -3.89999,11.52829 2.02145,14.86212 3,26 -14.71021,0.63159 -32.16577,4.38092 -39.08795,19 -3.69614,7.80594 -1.86023,17.08411 -8.21683,23.57178 -14.74856,15.05261 -36.78198,17.85669 -56.69522,19.42822 14.05164,19.94577 40.26016,29.53619 64,27.91049 9.0119,-0.61712 17.24661,-3.80755 26,-5.0216 10.79962,-1.49787 18.79837,3.96481 30,-1.79014 9.02847,-4.63845 14.42996,-11.33831 20.60107,-19.09875 2.85505,-3.59033 6.04993,-9.65302 10.4892,-11.39584 8.42444,-3.30735 18.55368,6.13318 27.90973,5.39584 v -1 l -17,-7 v -1 c 6.31689,-1.27454 10.22971,-6.05215 14,-11 l 4,18 h 1 c 2.64508,-6.50317 1.86966,-9.44211 0,-16 l 6,4 1.26389,-16.99615 5.73611,-12.00385 3,1 5,-9 -6,5 h -1 l -2,-2 c -1.36728,5.68381 -6.98248,16.07922 -12,19 l 5.8696,-19 -3.78085,-14 3.91125,-15 2,6 h 1 l 6,-28 3,2 c -2.00754,-15.88492 8.49011,-29.43773 23.99999,-34 v -1 h -3 l 15,-11 v -1 l -16,6 44.98535,-57.00386 21.01465,-27.99614 9,-9 v -1 l -6,1 17,-19.00001 v 4 h 1 l 2,-11 -23,8 m -306.99999,68.00001 -1.56636,-13.96065 13.56636,-35.03935 h -1 c -0.62659,6.07758 -3.33444,10.84698 -10,10 3.57785,15.20428 -10.2583,20.37712 -21,27 l 4,-9 c -4.0574,0.41502 -6.78075,0.75934 -9,-3 h -1 c 2.54539,20.14059 -2.84114,53.65909 -26,60 3.20784,-6.91977 9.83209,-11.44041 13.63658,-18 8.39693,-14.47772 0.005,-27.44945 -5.63658,-41 h -1 l 4,12 h -1 c -6.87967,-14.44882 -25.06827,-17.20343 -36.99924,-6.81174 -8.52865,7.42833 -11.5706,16.86449 -16.00076,26.81174 h -1 c 0,-5.80261 -0.0781,-11.33682 1.37808,-17 7.13516,-27.74832 31.59921,-30.11215 54.04553,-38.07486 6.6393,-2.35525 10.28214,-8.60477 17.57639,-9.92514 v -1 l -19,9 c 4.49333,-15.59742 16.5112,-19.15245 31,-21.40974 5.1526,-0.80276 13.27968,-2.00061 17.82639,1.15201 8.14968,5.65085 7.57791,15.65125 8.75,24.25773 0.91009,6.68277 4.7702,13.51779 5.10571,20 0.47534,9.18362 -12.83574,21.33258 -20.6821,24 m -91,-63.00001 -1,1 1,-1 m 416.99999,1 c -5.88055,5.95481 -6.88586,8.56343 -3,16.00001 h 1 l 2,-16.00001 m -442.99999,69.00001 v 4 l -3,-1 v 9 l -6,-3 v 2 c -5.45116,-4.2067 -3.86204,-8.23149 2,-11 -0.70208,-8.35756 13.97223,-18.39543 19,-25 l -5,1 -2,-10 h -1 c -0.56076,12.86137 -7.78393,18.24855 -15.89506,27.01466 -3.45045,3.72908 -4.73851,8.11196 -10.10494,8.98534 -2.37429,-8.24173 -7.22585,-16.9334 -15.000002,-21 l 9.000002,16 h -1 l -7.000002,-8 c 5.319583,6.15208 10.619022,13.92906 12.470682,22 3.57934,15.60144 -7.701879,44.07623 -25.470682,45 2.14461,-7.54718 10.73292,-11.74286 14.084103,-19 4.04982,-8.77008 0.6334,-17.98404 -0.0841,-27 h -1.000003 l -1,19 h -1 c 0,-7.6385 0.38224,-15.29407 -3.96991,-21.99614 -7.67477,-11.81877 -25.74211,-12.19223 -36.01542,-3.66359 -10.79735,8.96369 -14.00583,24.31874 -14.01466,37.65973 -7.48093,-5.61803 -5.17199,-19.3447 -2.79399,-27 6.47063,-20.83029 24.23201,-27.88869 40.77932,-38.96605 4.23775,-2.8369 6.64322,-7.41331 11.01467,-10.03395 v -1 l -6,2 c 6.0154,-17.66595 30.731192,-37.66914 49.999232,-25.85184 9.1337,5.60181 9.41437,16.08014 13.81095,24.85184 1.79633,3.58389 5.41522,7.05261 6.25232,11 2.1971,10.36061 -9.53548,32.39043 -21.0625,24 m 96,-61 v 1 l 15,9 c 2.42648,-8.84473 -8.99051,-9.99603 -15,-10 m 219,3 -6,3 -1,6 -4,-1 3,14 h 1 l 5,-16 9,1 -7,-7 m -355.000002,17 h 1 l 10.000002,-13 c -6.133779,2.08661 -9.852072,6.66226 -11.000002,13 m 464.999992,-9 1,1 -1,-1 m -454.999989,7 c 8.691459,-2.46646 13.450389,-3.03479 21.999999,0 -4.27419,-8.22064 -17.308,-7.64935 -21.999999,0 m 459.999989,-5 c -4.79132,4.71042 -5.82416,8.20041 -2,14 l -5,1 v 1 h 4 l -5,5 v -4 h -1 c -3.86938,10.52039 -11,11.73497 -11,24 h 1 l 18.76233,-23.98611 -2.70752,-9.05326 2.94519,-7.96063 m -470.999992,10 -2,1 v 1 l 2,-2 m 129.000002,1 1,1 -1,-1 m 84,0 c -3.4043,11.51721 0.0916,17.91248 -14,22 -1.98135,-6.86205 -6.06406,-12.64183 -13,-15 0,5.49199 0.6026,30.01524 -9,19 l -3,7 -5,-3 -11,24 h 1 l 11,-19 h 1 l 5,2 v -5 c 12.24292,1.50836 10.69006,-10.62369 13,-20 l 9,12 c 11.76898,-1.58611 16.7529,-6.03024 17,-18 6.22275,2.73886 8.90329,2.43044 12,-4 -5.87552,2.43127 -8.61151,0.86017 -14,-2 m -83,2 1,4 h 1 l -2,-4 m 264.99999,3 c -2.16187,6.86478 -11.18075,4.64917 -16.99999,7 v 1 l 13.99999,4 10,-3 -3,-5 v -1 l 2,-2 -6,-1 m -74.99999,2 -1,1 1,-1 m -251,111 c -17.14948,-20.69731 -11.33633,-60.05061 -2.38504,-83 3.68686,-9.45238 8.90186,-19.25841 18.38504,-24 24.97403,-12.487 33.0239,19.22534 25.53549,37 -3.81819,9.06294 -12.11256,15.5112 -18.21065,23 -10.19636,12.52171 -20.93585,30.82343 -23.32484,47 m 309,-101 4,14 -1,1 c -7.32004,-4.07936 -10.26999,-0.89282 -16,4 l 5,-9 -3,-1 -7,23 2,7 c -6.18289,4.16368 -7.37549,9.59924 -16,10 v 7 l -8,1 4,10 c -11.06781,-3.73689 -20.34238,-4.39574 -28,6 13.24475,-7.54486 17.06473,-6.80176 31,-1 l -5,-14 9,1 1,-7 h 10 v -1 l -3,-1 c 2.08829,-1.61546 3.63464,-3.82175 5,-1 h 1 v -7 h 4 l -2,-6 h 4 c -2.82022,-9.17471 -1.20212,-12.18723 2,-21 l 16,6 -9,-21 m -230.01466,2.91666 c 6.98523,-0.40087 9.86094,12.99038 2.0108,13.79631 -7.71907,0.79246 -11.40179,-13.25739 -2.0108,-13.79631 m 120.01466,50.08334 -7,-2 c 0.60861,3.63107 0.14957,5.05197 -3,7 v 1 l 4,-1 c -1.89114,3.41039 -8.10349,18.21434 -13.52625,13.37808 -4.83071,-4.30824 2.05216,-6.13545 5.52625,-4.37808 -3.13361,-12.7253 5.47449,-14.54817 11.75076,-24.00386 3.504,-5.27907 4.19803,-11.81096 4.24924,-17.99614 h -1 c -0.0503,2.99545 -4.41122,21.40135 -6,14 h -1 l -23,31 h -1 l 5,-28 h -1 l -5,23 h -1 l -1,-13 h -1 c 0,11.30528 3.32388,22.72964 1.69986,34 -3.38315,23.47836 -22.6839,41.52222 -46.69986,37 v -1 l 22,-5 v -1 l -12,1 c 6.25174,-13.60315 24.95865,-20.13593 22.81406,-38 -2.07257,-17.26402 -20.83118,-25.39859 -35.81406,-19.53627 -12.05887,4.71825 -20.65254,15.58969 -25,27.53627 h -1 c -2.32277,-18.4761 6.83595,-40.22499 25,-47.64737 8.63434,-3.52824 20.76813,-3.34653 30,-3.35263 v -1 l -11,-2 20,-11 v -1 l -11,3 c 4.71915,-16.34375 33.48605,-26.59042 49,-18.82098 17.6731,8.85075 15.59866,34.30047 6,47.82098 m -265.000002,-46 2,2 -2,-2 m 105.000002,2 c 2.42117,30.6796 -34.29102,44.16576 -37,75 h 1 c 5.38005,-18.67548 20.99617,-31.95786 32.07562,-47 5.90058,-8.01099 9.45952,-18.81989 3.92438,-28 m 330.99999,5 7,12 h -4 l 1,-4 -10,4 2,13 h 1 v -9 l 7,1 6.38116,-7.22377 1.61884,-8.77623 -12,-1 m -301.99999,3 h 1 l 2,4 -4,2 1,-6 m -163.000002,106 c -22.82495,-18.58255 -33.41856,-68.48352 -15.07254,-92.98534 9.38894,-12.53927 34.14637,-14.7872 39.28318,2.98534 2.65761,9.1949 1.6305,25.326 -4.74382,32.82639 -5.76114,6.77887 -13.6145,9.97311 -18.11497,18.17361 -6.79024,12.3728 -4.03604,25.98834 -1.35185,39 m 278.000002,-98 1,1 -1,-1 m 2,2 -4,21 h 1 c 3.47021,-6.07892 7.44852,-14.48843 3,-21 m -249.666672,1.66667 0.33333,0.66666 -0.33333,-0.66666 m 258.666672,6.33333 v 4 h 1 l -1,-4 m -268.000002,1 v 3 h 1 l -1,-3 m 426.999992,3 3,19 -7,1 1,15 -15,4 1,-6 6,-2 v -1 l -8,1 v 11 c -3.86435,0.3002 -5.3483,1.0892 -6,5 l 4,1 v 2 l -3,1 c 2.37009,8.93127 1.35828,12.15356 -9,14 v 1 c 4.67792,-0.0971 9.86765,-0.62451 13.84799,-3.36652 4.83133,-3.32824 1.75867,-7.87152 -2.84799,-8.63348 8.66635,-11.87848 7.53244,-18.80968 24,-15 l -2,-17 7,-2 -3,-17 h 8 l -12,-3 m -426.999992,3 c -1.11505,12.67548 -17.38462,31.34868 -27,16 h -1 l -2,42 h 1 l 6,-31 c 10.25439,1.89581 27.29704,-16.65924 23,-27 m 227.000002,1 6,14 c 4.12973,-6.04492 1.15826,-12.89151 -6,-14 m 176.99999,14 -1,1 1,-1 m -188.99999,17 1,1 -1,-1 m 1,2 c 3.71112,13.68481 -15.06635,30.18939 -27,34 l -1,-4 h -2 c -5.28824,15.1329 -24.29546,20.68457 -38,26 v 1 c 21.17653,-4.38257 44.97211,-16.43762 59.95987,-32.00385 5.71985,-5.94061 15.36764,-17.17471 8.04013,-24.99615 m 101,0 v 1 c 5.26566,1.54897 7.51489,5.95303 9,11 h -1 l -1,-3 h -1 l 5,6 c -0.3306,-7.21704 -3.24094,-13.80193 -11,-15 m 4,9 -1,13 -11,-1 v 1 l 14,5 -2,-18 m -72,12 v 3 h -1 l 1,-3 m 6,0 -1,1 1,-1 m 100,22 -7,-3 c 2.73038,7.047 9.31186,9.17523 13.14197,15.09338 4.56238,7.04959 1.19351,17.72654 -1.14197,24.90662 l 5,-2 c -1.51712,8.40637 -9.19235,18.48444 -17,22 v 1 l 9,-3 c -5.49185,8.49023 -12.79657,9.61786 -22,12 l 1,-4 -9,11 h -1 c 0.036,-13.08517 11.76849,-34.11996 27,-32 l -3,-17 h -1 l 2,12 -18,12.72144 -7.41125,2.15664 -4.58875,-10.87808 h -1 c 4.23578,22.48206 3.76459,58.73355 -28,59 l 11,-26 h -1 c -0.68329,4.54169 -1.96014,8.522 -6,11 3.58453,-15.63586 4.03711,-49.24805 -21,-47.78625 -9.30267,0.54312 -15.74683,6.83148 -23,11.78625 0.0227,-34.42236 42.33893,-28 66,-28 v -1 h -8 l 12,-10 h 1 1 l 2,2 c 1.03632,-6.0184 3.71906,-15.53809 9,-19 l 1,4 c 6.52652,-14.36087 14.26514,-9.27051 19,3 m 37,-12 1.99999,9 c -3.24257,2.19452 -2.02611,4.08881 0,7 l -7.99999,-5 1,5 c -15.35596,1.39325 -7.85257,12.79633 1,18 l -8,-13 c 7.5426,-1.40527 11.3363,-0.75476 17.99999,3 -0.0216,-7.83798 -0.18292,-18.19379 -5.99999,-24 m -176,8 1,1 -1,-1 m 103,22 v 1 c 9.28348,4.46143 16.20297,-2.33691 23,-8 l -23,7 m 28,5 2,2 -2,-2 m 12,14 1,1 -1,-1 m -168,44 c 14.83856,-0.041 34.04825,-4.34033 46,-13.52933 10.77267,-8.28244 20.16199,-23.83166 34,-26.94058 22.3299,-5.01675 29.11661,27.52866 21.62192,42.46991 -13.39774,26.70947 -59.88016,26.10248 -82.62192,13.6875 -6.92636,-3.78119 -15.56339,-8.33911 -19,-15.6875 m 114,-32 5,23 h 1 c 2.00113,-8.40518 0.93964,-17.24524 -6,-23 m 60,1 3,2 v 1 l -3,-3 m 1,7 -1,1 1,-1 m -77,16 c -1.90137,11.00006 -10.5654,18.67291 -21,21.79013 -6.17212,1.84384 -12.55234,2.01563 -15,-4.79013 -2.93182,1.91971 -3.97424,5.98944 -7.21295,7.39661 -11.28412,4.9028 -28.83512,-3.86292 -39.78705,-6.39661 v 1 c 10.62671,4.35977 20.56049,7.79581 32,9.28165 4.83978,0.6286 11.12036,2.38168 13,-3.28165 12.69366,2.3566 45.62308,-5.42276 38,-25 z"
       id="path1" />
  </g>
</svg>
