<?xml version="1.0" encoding="UTF-8" standalone="no"?>
<!-- Created with Inkscape (http://www.inkscape.org/) -->

<svg
   version="1.1"
   id="svg1"
   width="980"
   height="981.33331"
   viewBox="0 0 980 981.33331"
   sodipodi:docname="piel.svg"
   inkscape:version="1.4 (86a8ad7, 2024-10-11)"
   xmlns:inkscape="http://www.inkscape.org/namespaces/inkscape"
   xmlns:sodipodi="http://sodipodi.sourceforge.net/DTD/sodipodi-0.dtd"
   xmlns="http://www.w3.org/2000/svg"
   xmlns:svg="http://www.w3.org/2000/svg">
  <defs
     id="defs1" />
  <sodipodi:namedview
     id="namedview1"
     pagecolor="#505050"
     bordercolor="#eeeeee"
     borderopacity="1"
     inkscape:showpageshadow="0"
     inkscape:pageopacity="0"
     inkscape:pagecheckerboard="0"
     inkscape:deskcolor="#505050"
     inkscape:zoom="0.74898099"
     inkscape:cx="489.99908"
     inkscape:cy="490.66666"
     inkscape:window-width="1920"
     inkscape:window-height="974"
     inkscape:window-x="-11"
     inkscape:window-y="-11"
     inkscape:window-maximized="1"
     inkscape:current-layer="g1" />
  <g
     inkscape:groupmode="layer"
     inkscape:label="Image"
     id="g1">
    <path
       style="fill:#000000"
       d="m 150.74286,956.78662 c 0,-2.9026 -22.79406,-26.2488 -36.36911,-37.25 -14.14777,-11.46539 -31.14413,-22.39724 -47.14893,-30.32563 l -11.14863,-5.52277 v -32.10899 -32.10899 l 3.66667,3.37209 c 2.01666,1.85465 8.80389,7.81691 15.08272,13.24946 6.27884,5.43255 16.80498,14.7209 23.39144,20.64077 19.02038,17.09543 37.32517,28.16869 53.85917,32.58145 8.74043,2.33273 12.21745,4.4229 22.99732,13.82454 8.99424,7.84429 50.45189,51.59487 51.44712,54.29257 0.25812,0.6996 -15.53303,1.2047 -37.66666,1.2047 -31.60615,0 -38.11111,-0.3156 -38.11111,-1.8492 z m 166.69614,-9.0469 c -8.05253,-14.5902 -21.04756,-28.1489 -38.11013,-39.76323 -16.7428,-11.39666 -27.22208,-20.55518 -41.96276,-36.67401 -38.40085,-41.99104 -45.78647,-46.64405 -89.70284,-56.51358 -30.80179,-6.92223 -41.07908,-13.77777 -52.28374,-34.87623 -5.75023,-10.82771 -8.36735,-13.98851 -22.8978,-27.65445 l -16.40554,-15.42948 0.0902,-80.76312 c 0.0658,-58.90401 0.47864,-79.86094 1.52526,-77.4298 14.32705,33.27951 19.94248,43.02316 38.65935,67.07998 6.3845,8.20601 14.75146,20.62002 18.59324,27.58669 15.36826,27.86869 24.74756,39.14483 39.50691,47.49667 27.03388,15.2976 38.45445,26.50067 53.52267,52.50332 12.52679,21.617 31.50845,43.05281 54.15212,61.15348 5.83928,4.66774 16.73018,14.37285 24.20199,21.5669 7.47182,7.19405 18.69712,16.44661 24.94513,20.56124 14.80363,9.74895 24.29513,18.53865 34.16969,31.64318 8.25523,10.95554 17.88901,29.23604 22.52487,42.74184 l 2.63157,7.6667 -23.59486,-0.039 -23.59485,-0.039 z m 96.60604,5.8961 c -14.90864,-36.0645 -27.75702,-64.0824 -32.96377,-71.8826 -7.50809,-11.24783 -18.00555,-21.22639 -28.67277,-27.25544 -29.03848,-16.41239 -44.50027,-32.34143 -58.75311,-60.52863 -2.96648,-5.86667 -8.69631,-15.15571 -12.73297,-20.64232 -4.03665,-5.48661 -7.15645,-10.15857 -6.93289,-10.38213 0.22356,-0.22356 5.13451,1.20169 10.91323,3.16723 13.6747,4.65121 33.03594,5.76366 46.25617,2.65775 16.71813,-3.92769 25.46913,-1.98429 42.25059,9.38293 13.96339,9.45835 20.62621,12.60878 43.28242,20.46555 23.56549,8.17209 39.14406,15.77378 56.22302,27.4345 32.10701,21.92116 68.39112,34.82742 125.16122,44.51979 42.1312,7.19307 55.6823,12.22439 98.4229,36.54308 31.593,17.97589 48.4185,28.77779 61.624,39.56269 16.1525,13.1916 20.5269,11.9576 -42.387,11.9576 -48.2075,0 -55.5529,-0.2646 -57.0382,-2.0542 -0.9377,-1.1298 -8.9611,-7.0192 -17.8299,-13.0874 -8.8688,-6.0683 -25.9971,-17.8428 -38.0628,-26.1655 -24.4687,-16.87812 -20.6304,-15.09241 -107.39566,-49.96299 -64.53529,-25.93643 -75.74419,-31.50704 -100.85211,-50.12147 -12.23215,-9.06864 -30.89251,-17.27511 -39.28117,-17.27511 -7.87363,0 -7.6423,1.77592 1.79995,13.81799 4.21667,5.37769 13.2838,17.41223 20.14919,26.74344 17.46722,23.74086 26.48774,33.83448 42.02939,47.02933 13.83181,11.74318 54.67951,48.32841 70.15475,62.83411 l 8.66667,8.1237 -40.98211,0.059 -40.9821,0.059 z m 491.13184,-8.6374 c -8.3054,-7.5005 -25.4741,-23.2505 -38.1527,-34.99996 -32.3757,-30.00305 -40.6519,-36.94803 -52.2559,-43.85059 -20.9076,-12.43678 -38.4022,-17.57557 -66.6921,-19.58994 -31.0215,-2.20887 -37.6838,-3.98869 -64.3877,-17.20113 -21.7079,-10.74051 -36.0611,-15.21549 -55.7566,-17.38354 -22.4525,-2.47154 -34.5246,-6.882 -42.7717,-15.62632 -3.9991,-4.24021 -30.6843,-44.75361 -40.6597,-61.72941 -9.2571,-15.75347 -15.1757,-28.63174 -21.74485,-47.31504 -17.03213,-48.44064 -42.98695,-78.64519 -92.23173,-107.33334 -9.124,-5.31529 -29.16556,-26.12163 -39.81406,-41.33333 -26.24496,-37.49172 -44.49872,-57.58402 -85.89171,-94.54284 -53.21177,-47.51152 -71.33701,-61.00129 -100.74194,-74.97751 -34.26377,-16.28564 -43.07658,-22.15703 -55.37653,-36.89375 -6.87603,-8.23825 -10.1018,-14.09151 -24.02052,-43.58589 -3.69064,-7.82063 -7.2231,-12.8012 -13.23928,-18.66667 -9.04084,-8.81435 -10.66976,-9.87595 -36.697,-23.91606 l -18,-9.7099 -0.35232,-41.50838 -0.35231,-41.50837 6.35231,2.52846 c 3.49378,1.39065 18.65232,7.58838 33.68565,13.77274 15.03333,6.18436 37.23333,14.69397 49.33333,18.91024 27.35038,9.53029 47.33702,19.07519 65.81358,31.43022 15.43677,10.32236 34.88001,28.54535 45.52482,42.66772 3.5929,4.76666 11.73926,14.66666 18.10303,22 27.65955,31.87369 47.43236,46.65598 82.98403,62.03942 24.06452,10.41288 45.83278,25.96791 65.62502,46.89394 24.50823,25.91216 54.69739,68.88488 71.00127,101.06663 10.29227,20.31562 13.81936,29.45661 26.23811,68 15.0805,46.80464 32.5957,71.29355 69.3768,96.99972 33.0142,23.0735 56.1703,47.64451 72.9078,77.36293 4.5134,8.01389 9.5627,14.84305 13.8866,18.78168 8.1131,7.39021 34.5459,21.91899 53.5533,29.43552 25.9124,10.24717 39.9652,18.01801 70.319,38.8846 12.7983,8.79814 32.1313,17.20221 39.5725,17.20221 5.2833,0 5.3021,-0.0186 4.3997,-4.33333 -1.222,-5.84299 -19.635,-39.96612 -26.2113,-48.57514 -5.7602,-7.54065 -15.8835,-15.84161 -24.7484,-20.29349 -8.5583,-4.2979 -33.7425,-14.44768 -48.8747,-19.69761 -18.8939,-6.55499 -30.0764,-12.7779 -39.1936,-21.81066 -9.7637,-9.67327 -16.0887,-21.55131 -21.4998,-40.37597 -4.7553,-16.54315 -7.0247,-21.41689 -16.9495,-36.39952 -17.0893,-25.79854 -25.7002,-52.2573 -32.4949,-99.84761 -7.4046,-51.86181 -17.0409,-78.22247 -40.0857,-109.65599 -5.7837,-7.8892 -12.1308,-18.244 -14.1047,-23.01067 -3.4088,-8.2321 -3.6369,-10.20434 -4.5503,-39.33333 -0.8379,-26.72524 -1.403,-32.35243 -4.3965,-43.78295 -3.8697,-14.77674 -13.3958,-35.7188 -22.5564,-49.58818 -11.7331,-17.76411 -48.4038,-61.41745 -68.96117,-82.09234 -22.28485,-22.41225 -38.06422,-35.27046 -59.24557,-48.27772 -25.73399,-15.80298 -38.36348,-31.27716 -44.86296,-54.967944 -3.23752,-11.80086 -14.01428,-37.72095 -26.582,-63.93459 -6.62318,-13.81457 -23.98806,-55.474689 -23.98806,-57.549809 0,-0.260223 10.18857,-0.473132 22.64127,-0.473132 h 22.64126 l 0.89983,3.666666 c 1.90297,7.754312 9.75679,24.549849 15.56596,33.28808 8.92644,13.427285 15.09471,19.948855 37.55896,39.710235 30.11848,26.49467 34.35994,31.64322 74.69395,90.668354 39.58633,57.93101 50.75433,71.65736 80.81053,99.32231 60.2944,55.4976 93.1881,99.34508 109.0353,145.34435 7.1727,20.82022 14.7744,29.13339 31.7506,34.72245 11.7311,3.8622 25.8016,10.92381 34.3519,17.24029 5.667,4.18645 40.6692,40.0378 108.0819,110.70392 32.3777,33.94027 41.6298,45.90149 52.0294,67.2643 8.387,17.22855 13.3059,33.3655 15.3864,50.477 3.6561,30.06965 9.6043,42.17421 32.5377,66.21421 7.8819,8.26223 14.0747,16.27809 17.6937,22.90235 9.8197,17.9744 24.89522,34.9142 46.70032,52.47547 l 8.2778,6.66667 0.01,31.73292 c 0,25.88745 -0.3183,31.53651 -1.7497,30.66666 -3.523,-2.14074 -36.29442,-29.26898 -43.91642,-36.35402 -9.7203,-9.03548 -17.6558,-20.9372 -24.8455,-37.26322 -10.0245,-22.76315 -21.7779,-37.84616 -66.0664,-84.78234 -21.7066,-23.00421 -25.6755,-27.90461 -30.7524,-37.97003 -6.1194,-12.13235 -8.6984,-21.33117 -10.1015,-36.02997 -2.5997,-27.23512 -7.5661,-43.12089 -18.6223,-59.5662 -2.3789,-3.53859 -18.844,-20.8338 -36.5891,-38.4338 -17.745,-17.59999 -42.7708,-43.42323 -55.6128,-57.38496 -12.8421,-13.96173 -29.8869,-31.04217 -37.8774,-37.95655 -26.7496,-23.14697 -32.6449,-29.90026 -41.238,-47.23973 -6.1302,-12.36968 -9.4764,-17.33035 -16.5041,-24.46708 -13.4197,-13.62797 -37.0559,-34.95167 -38.742,-34.95167 -3.0207,0 0.2949,10.23487 9.9345,30.66667 8.8985,18.86093 15.5407,37.06242 23.3553,63.99999 1.5956,5.5 5.8803,15.22732 9.5216,21.61625 13.2029,23.16552 28.9856,59.447 40.7675,93.71708 7.9471,23.11557 14.6325,32.95299 30.377,44.69925 10.8483,8.09346 12.5594,10.6849 16.8226,25.47861 5.1891,18.00629 14.0875,35.49735 31.0695,61.07173 27.0309,40.70762 41.8005,56.46648 72.5012,77.35743 20.4395,13.90845 23.9928,18.72682 54.636,74.0885 17.8808,32.30441 21.8792,40.5473 24.2088,49.90723 1.5347,6.16644 4.2834,13.75928 6.1082,16.87298 6.8908,11.75834 21.2545,19.86914 45.987,25.96794 22.62132,5.5781 38.79872,11.7311 50.85662,19.3429 4.2124,2.6592 5.0833,3.7666 3.6672,4.6633 -1.0214,0.6468 -26.8618,1.1851 -57.42312,1.1964 l -55.566,0.02 z M 493.40952,576.8466 c 0,-2.7807 -14.75943,-36.01084 -27.39086,-61.66918 -3.05626,-6.20821 -8.70075,-13.91026 -16.42603,-22.41375 -7.3449,-8.0848 -14.17383,-17.31119 -18.16449,-24.5416 C 419.62535,446.83745 407.84766,433.00883 390.74286,420.452 367.5517,403.42711 324.05918,375.69469 289.76068,356.06206 257.6858,337.70225 237.98171,314.22927 228.68359,283.30249 c -8.6163,-28.65896 -18.67428,-40.24448 -44.06393,-50.75608 -11.78149,-4.87766 -90.8047,-35.15812 -93.04347,-35.6528 -0.64167,-0.14178 -1.40907,0.39441 -1.70533,1.19154 -0.58638,1.5777 48.74334,48.41011 68.33894,64.8793 20.62853,17.33731 24.71948,23.51669 27.21426,41.1072 2.31301,16.30887 9.18321,28.09309 23.09011,39.60573 14.89882,12.33378 36.95739,23.09297 62.28338,30.37905 36.64073,10.54125 52.80085,21.7447 71.33091,49.45218 12.98627,19.418 26.23356,32.83613 50.14837,50.79508 25.88893,19.44143 35.26937,30.21141 45.27899,51.98625 11.94872,25.99316 15.57118,31.38766 26.98415,40.1843 8.8076,6.78853 21.56527,13.49491 25.67161,13.49491 2.46469,0 3.19794,-0.71597 3.19794,-3.12255 z m 31.77763,228.55251 c -6.35563,-3.55207 -13.55563,-7.9561 -16,-9.78673 -11.05765,-8.28128 -24.16861,-12.64813 -42.91327,-14.29304 -20.31614,-1.78281 -20.86786,-2.35395 -20.48497,-21.20601 0.32261,-15.88356 -1.39497,-20.91056 -9.92921,-29.06076 -9.60128,-9.1692 -38.31548,-20.27037 -68.45018,-26.46344 -11.73333,-2.41135 -26.43333,-5.67103 -32.66666,-7.24374 C 306.2249,690.15014 256.67125,674.40547 239.7541,667.16462 218.84786,658.21638 201.4017,644.481 187.44586,625.9823 172.05046,605.57543 157.42534,594.67028 126.32088,580.40475 96.25941,566.61756 87.14475,559.16988 79.16843,541.876 74.0387,530.75397 73.25596,512.79935 77.26392,498.19021 c 3.60527,-13.1413 3.62065,-24.96893 0.0428,-32.88772 -1.491,-3.3 -6.88323,-12.65254 -11.98272,-20.78343 l -9.2718,-14.78343 0.34533,-69.66257 0.34534,-69.66257 8.86066,11.77934 c 7.34649,9.7664 9.47628,13.82997 12.46322,23.77933 6.90014,22.98407 14.7148,37.20618 39.95336,72.71223 8.09752,11.39173 18.88169,27.03404 23.96483,34.76069 8.49948,12.91967 9.99931,14.48652 18.66667,19.50067 10.55975,6.10892 17.43187,8.34135 25.71102,8.3523 6.52233,0.009 9.08674,3.08883 7.72674,9.28085 -0.96124,4.37653 1.72617,11.63574 5.57572,15.06105 4.69513,4.17772 19.1556,9.12839 38.30939,13.11558 22.00126,4.57995 50.56144,12.94711 61.62815,18.05495 5.74732,2.65268 11.14859,7.00545 20.47358,16.49924 14.93341,15.20372 17.34309,16.96482 32.07629,23.44262 13.95867,6.13727 17.9803,9.0714 22.14277,16.15507 3.63577,6.18733 4.1553,12.03691 2.52213,28.39808 l -0.99819,10 6.09997,9.33333 6.09997,9.33333 0.0836,20 0.0836,20 27.61163,12.59044 c 68.58114,31.27186 74.15648,34.8105 85.73715,54.41699 12.30339,20.83008 38.76237,72.22261 37.90077,73.6166 -1.2393,2.00536 -1.6062,1.87162 -14.24867,-5.19407 z M 357.16416,644.96915 c -6.02622,-8.25 -19.43253,-27.9 -29.7918,-43.66666 -35.28391,-53.70161 -40.24299,-57.77892 -105.92238,-87.08815 -19.45559,-8.68199 -36.18106,-16.12506 -37.16773,-16.54014 -2.04248,-0.85925 11.84651,22.08337 24.79733,40.96162 26.71251,38.93852 53.96897,65.70327 87.45775,85.87997 11.84807,7.13836 67.69013,35.12862 70.56123,35.36809 0.5623,0.0469 -3.90818,-6.66473 -9.9344,-14.91473 z m 662.24534,74.48563 c -39.71342,-33.62263 -55.87372,-58.97654 -66.75132,-104.72654 -4.6174,-19.42066 -12.4252,-36.68771 -19.8376,-43.8712 -4.3819,-4.24665 -6.2318,-7.28951 -7.2046,-11.85089 -1.6298,-7.64142 -0.2451,-11.57516 5.2509,-14.9175 6.1489,-3.73938 11.6932,-4.36202 19.8957,-2.23432 5.5074,1.42859 7.56,1.51108 8.3804,0.33676 1.9183,-2.7461 0.032,-21.52731 -2.8068,-27.94472 -6.22,-14.06125 -25.2856,-38.36657 -38.232,-48.73893 -4.4154,-3.53753 -21.528,-15.9631 -38.028,-27.61238 -16.5,-11.64927 -42.6,-30.08775 -58,-40.97439 -15.4,-10.88663 -31.6,-21.5001 -36,-23.58548 -4.4,-2.08538 -20.3,-8.41781 -35.3333,-14.07208 -33.318,-12.5314 -41.4018,-16.62553 -50,-25.32307 -11.8728,-12.00998 -17.6236,-25.99841 -34.7414,-84.50651 -11.5579,-39.50455 -16.4606,-47.99175 -37.2586,-64.49994 -3.6667,-2.91036 -14.9804,-13.16797 -25.1416,-22.79467 -10.1612,-9.6267 -20.9612,-19.11494 -24,-21.08497 -20.796,-13.48189 -27.5523,-20.90745 -34.9218,-38.381 -10.1429,-24.049884 -19.15004,-32.189114 -55.64536,-50.283574 -11.1602,-5.53325 -23.89126,-12.62289 -28.29126,-15.75476 -15.77267,-11.22679 -30.7397,-29.530515 -40.07629,-49.01073 l -4.62737,-9.654725 43.57952,-0.351844 c 42.44481,-0.342683 43.65581,-0.280179 46.50925,2.400487 3.80849,3.577888 47.05051,19.63893103 69.64591,25.86803 32.4249,8.938881 46.9985,16.413282 74.1233,38.015932 48.3112,38.47578 73.124,55.44836 102.2064,69.911724 23.5524,11.71321 42.0701,18.00187 69.3059,23.5365 11.3667,2.30983 23.782,5.67125 27.5897,7.46981 10.534,4.97584 19.6838,14.12761 30.3855,30.39216 16.2231,24.65581 28.6192,34.26453 65.6917,50.92047 12.2832,5.51861 28.3331,13.60825 35.6665,17.97698 12.8973,7.68342 17.3772,11.17349 43.25982,33.70203 l 12.0735,10.50895 v 68.70239 68.7024 l -8.3333,-7.98357 c -11.3096,-10.83487 -22.455,-18.83177 -35.81202,-25.69533 -6.1534,-3.16196 -41.488,-22.01559 -78.5214,-41.89694 -37.0333,-19.88135 -70.5676,-37.24084 -74.5207,-38.57664 -12.4003,-4.19024 -11.6162,-1.30852 4.0039,14.71499 32.367,33.20281 50.7501,53.24428 70.2834,76.6239 17.7018,21.18741 23.0447,26.54309 46.2334,46.34449 43.15512,36.85105 57.20832,55.89875 67.41082,91.36855 2.3185,8.06051 5.3495,17.53272 6.7357,21.04936 2.3747,6.02475 2.5202,11.12509 2.5202,88.34452 0,45.07285 -0.45,81.92879 -1,81.90208 -0.55,-0.0267 -7.6,-5.63633 -15.6667,-12.46581 z M 835.93028,360.81165 c 1.2058,-1.45292 -1.7076,-4.9127 -14.3151,-17 -8.706,-8.3467 -17.0327,-17.57582 -18.5038,-20.50916 -1.471,-2.93333 -3.3206,-9.77701 -4.11,-15.20818 -1.6546,-11.38293 -7.1132,-20.64926 -16.6113,-28.19871 -10.6838,-8.49193 -21.3112,-19.27455 -26.4912,-26.87832 -7.3531,-10.79375 -23.9879,-42.69434 -23.2568,-44.59964 0.4173,-1.08737 7.0752,0.93875 20.9435,6.37349 11.1824,4.3822 24.8675,9.15524 30.4112,10.60675 19.5235,5.11188 27.8857,10.36568 48.6417,30.56048 25.4117,24.72455 28.7903,26.32428 57.4377,27.19644 19.4557,0.59232 25.6749,1.90207 37.5109,7.89986 8.4491,4.28149 26.3727,17.79804 38.5535,29.07409 11.2474,10.41198 16.1756,13.43693 36.54202,22.42983 16.9931,7.50338 20.7714,8.27379 19.6558,4.00794 -0.3935,-1.50478 -8.7135,-17.25478 -18.4888,-35 -15.94512,-28.94515 -18.80212,-33.30403 -27.77342,-42.37427 -18.5884,-18.79333 -36.5465,-23.37358 -67.1239,-17.12007 -7.4485,1.52333 -16.6528,2.80189 -20.454,2.84125 -12.2173,0.12649 -15.399,-3.04605 -33.7554,-33.6585 -15.4126,-25.70309 -34.6011,-42.35828 -60,-52.07858 -4.0334,-1.54358 -19.0334,-5.44919 -33.3334,-8.67913 -31.5602,-7.12851 -39.9264,-9.7886 -54.9492,-17.47162 -8.6513,-4.42446 -13.7557,-8.18798 -20,-14.74613 -33.7667,-35.463904 -36.6258,-37.323404 -76.2033,-49.561854 -10.9055,-3.37228 -18.2984,-8.18972 -30.8475,-20.1011 -5.1333,-4.87248 -11.15,-10.10735 -13.3704,-11.63304 -7.6096,-5.22881 -85.53014,-44.347648 -88.3357,-44.347648 -4.96378,0 -4.44172,2.256523 2.42268,10.471646 5.07362,6.071982 12.6839,12.071392 31.00381,24.441232 34.16661,23.06976 40.16391,29.59001 50.98221,55.42787 2.8726,6.86071 9.6606,14.103344 16.4774,17.581014 2.7664,1.41133 10.6827,4.15747 17.5916,6.10253 21.2574,5.98455 32.645,12.39955 45.6823,25.73428 30.261,30.95154 44.6986,52.27689 51.6166,76.24143 2.3923,8.28742 2.9275,13.88185 3.1249,32.66666 0.2211,21.03304 0.4622,23.06375 3.3453,28.17616 4.8377,8.57833 11.1003,11.35255 28.2089,12.49605 21.0732,1.40849 24.0348,3.39016 37.6743,25.20839 5.7431,9.18691 9.1325,11.73617 40.8684,30.73841 25.9684,15.54887 26.7396,15.88902 29.2285,12.89015 z m -267.2048,135.42582 c -8.5157,-2.94466 -18.0144,-8.50525 -22.936,-13.42685 -6.1733,-6.17331 -30.78341,-38.23878 -41.57888,-54.1748 -5.46458,-8.06666 -13.49772,-22.15085 -17.85144,-31.29818 -9.21363,-19.3582 -14.77607,-28.43668 -23.89274,-38.99544 -14.26638,-16.52307 -36.70353,-29.31647 -61.72925,-35.1973 -23.10453,-5.42937 -50.05554,-13.72535 -57.22483,-17.61477 -7.98281,-4.33077 -13.03834,-11.01555 -16.7375,-22.13151 -1.5348,-4.61209 -4.48644,-11.05976 -6.55919,-14.32815 C 318.1429,265.80208 301.51358,247.68001 283.2616,228.79919 198.68243,141.30601 187.94,129.80934 182.8171,121.3025 174.90609,108.16583 161.30694,91.960976 150.46583,82.752456 135.14806,69.741436 120.41519,60.255996 87.07619,41.940406 l -31,-17.0306 0.0204,-21.470323 c 0.0174,-18.280719 1.09776,-27.333501 2.95552,-24.765041 0.24985,0.345429 2.77303,4.205215 5.60707,8.577302 11.3471,17.505205 26.52563,28.144606 53.4687,37.478942 28.06902,9.72441 45.96952,19.86599 62.71721,35.53264 17.48407,16.35548 27.20349,31.757 46.48837,73.666034 11.15398,24.23933 28.62233,45.17804 52.52723,62.96258 8.55185,6.36232 24.54881,18.28536 35.54881,26.49564 26.54712,19.81448 36.41815,26.03943 56.4931,35.62611 9.26213,4.42307 22.84024,12.0445 30.17357,16.93649 24.8121,16.5519 43.54148,28.25528 44.18622,27.61054 1.3117,-1.3117 -7.33873,-20.98795 -12.04679,-27.40162 -2.6828,-3.6547 -8.25706,-8.88793 -12.38726,-11.62939 -15.12537,-10.03965 -22.03969,-19.13173 -29.20427,-38.40254 -8.527,-22.93539 -19.20729,-35.04112 -50.39172,-57.11726 -41.42559,-29.32607 -58.84764,-47.56298 -76.41238,-79.986314 -19.76451,-36.48396 -42.612,-61.09624 -78.41047,-84.467061 -8.06666,-5.26627697 -18.86666,-13.526901 -24,-18.356941 l -9.33333,-8.781891 37.91702,-0.0576 37.91702,-0.0576 7.70945,6.056887 c 4.2402,3.331287 13.59667,8.612349 20.79216,11.735691 16.81482,7.298799 26.21072,13.600998 36.20297,24.282743 10.26067,10.96869 17.53047,24.10556 23.56959,42.59134 13.17363,40.324546 31.2709,62.683136 80.77155,99.790616 27.34346,20.49764 34.11985,26.77278 41.57982,38.50408 6.42863,10.10946 9.93196,20.52424 12.94724,38.48988 1.45544,8.6718 4.17476,21.04283 6.04293,27.49117 6.1254,21.14296 8.95133,27.33846 33.3235,73.05758 3.51835,6.6 10.50714,20.96122 15.53063,31.91383 10.55326,23.00902 20.51671,40.17599 31.00381,53.4195 17.6205,22.25176 23.222,30.25786 28.9988,41.44719 5.7095,11.05907 13.0268,28.68454 13.0268,31.37822 0,1.82822 -5.351,1.31195 -12.684,-1.22376 z M 1024.879,230.21255 c -11.0777,-6.71689 -28.91772,-23.86165 -36.48122,-35.05945 -7.8844,-11.67288 -15.3239,-26.96858 -22.1661,-45.57356 -9.4139,-25.59798 -18.6992,-36.93638 -37.4888,-45.77781 -11.0769,-5.212214 -23.5331,-8.056174 -66.3621,-15.151544 -65.166,-10.79588 -85.8706,-19.45182 -115.3443,-48.22176 -14.7924,-14.43912 -23.4308,-20.92898 -41.7794,-31.38788 -13.592,-7.747604 -21.7273,-13.575309 -37.2889,-26.711955 l -5.892,-4.973904 55.5797,-0.0261 55.5797,-0.0261 13.8029,11.866997 c 27.2232,23.405001 48.9303,35.338474 99.7044,54.812464 33.0719,12.68446 52.4714,21.51196 66.5256,30.27151 21.8844,13.63997 39.6657,31.632592 50.72722,51.330092 4.8039,8.55438 8.5452,12.15973 22.4363,21.62095 l 9.6442,6.56869 v 41.09798 c 0,22.60389 -0.45,41.05751 -1,41.00804 -0.55,-0.0495 -5.1388,-2.59947 -10.1972,-5.66667 z M 1023.4095,15.183712 C 998.46908,-0.65047197 992.41998,-2.764836 972.87418,-2.48009 c -6.6722,0.0972 -14.2313,-0.282111 -16.798,-0.842919 -6.5929,-1.440525 -19.4266,-7.983834 -27.0286,-13.780576 l -6.4617,-4.927254 56.2861,-0.347966 c 30.95732,-0.191382 56.50752,-0.126489 56.77822,0.144207 0.2707,0.270695 0.3273,10.514728 0.1258,22.76451603 l -0.3665,22.27233797 z"
       id="path1" />
  </g>
</svg>
