<?xml version="1.0" encoding="UTF-8" standalone="no"?>
<!-- Created with Inkscape (http://www.inkscape.org/) -->

<svg
   version="1.1"
   id="svg1"
   width="848"
   height="1264"
   viewBox="0 0 848 1264"
   sodipodi:docname="tigrefondo.svg"
   inkscape:version="1.4 (86a8ad7, 2024-10-11)"
   xmlns:inkscape="http://www.inkscape.org/namespaces/inkscape"
   xmlns:sodipodi="http://sodipodi.sourceforge.net/DTD/sodipodi-0.dtd"
   xmlns="http://www.w3.org/2000/svg"
   xmlns:svg="http://www.w3.org/2000/svg">
  <defs
     id="defs1" />
  <sodipodi:namedview
     id="namedview1"
     pagecolor="#505050"
     bordercolor="#eeeeee"
     borderopacity="1"
     inkscape:showpageshadow="0"
     inkscape:pageopacity="0"
     inkscape:pagecheckerboard="0"
     inkscape:deskcolor="#505050"
     showgrid="false"
     inkscape:zoom="0.58148734"
     inkscape:cx="423.91293"
     inkscape:cy="632"
     inkscape:window-width="1920"
     inkscape:window-height="974"
     inkscape:window-x="-11"
     inkscape:window-y="-11"
     inkscape:window-maximized="1"
     inkscape:current-layer="g1" />
  <g
     inkscape:groupmode="layer"
     inkscape:label="Image"
     id="g1">
    <path
       style="fill:#3f352f;stroke:none"
       d="M 3.4394229,6.8789111 V 905.87891 l 9.0000001,-3 14,18.99998 -21.9722201,9.7022 -1.02778,21.2978 v 59.00001 259 H 851.43941 V 6.8789111 H 3.4394229 m 28.0000001,2 v 1 l -4,0.9999999 4,-1.9999999 m 462.999997,10.9999979 5,1 -6,-2.999998 c 0.67032,-5.875732 6.93787,-9.3223879 9.3812,-1.978394 2.14978,6.461552 -4.70856,7.710942 -8.3812,3.978392 m -65,-4.666624 0.33335,0.333252 c -0.4935,0.164429 -1.10675,-0.333252 -0.33335,-0.333252 m -274,28.666624 -3,2 3,-2 m 141,9 -8,-3 v -2 c 4.91754,-2.24939 9.38034,-1.11706 8,5 m 183,-7 2,3 -3,1 -1,-1 2,-3 m -214,3 -4,5 -2,-4 6,-1 m -243.999997,8 -1,1 1,-1 m -10,6.33338 c 0.77338,0 0.16011,0.49768 -0.33333,0.33325 l 0.33333,-0.33325 m 169.132717,15.15893 c 4.9102,-1.12878 6.60331,5.24744 1.84876,6.84571 -4.66675,1.56872 -6.48413,-5.78015 -1.84876,-6.84571 m 29.86728,15.50769 4,-8 -5,-3 -4,2 c 5.66469,-19.69323 27.63616,11.12635 5,9 m -90,-6 -2,2 v -2 h 2 m 341,14.000001 2,-4.000001 -3,-1 c 4.63864,-15.28076 17.95023,11.791881 1,5.000001 m -142,-3.000001 -1,1 1,-1 m -6,5.000001 1,2 h -2 l 1,-2 m -194,3 -1,1 1,-1 m 276,3 -1,1 1,-1 m 94.66666,6.66663 -0.33331,0.66675 0.33331,-0.66675 m -384.66666,3.33337 -1,1 1,-1 m 213,9 5,-4 h -3 c 3.39029,-3.41833 7.16052,6.43946 -2,4 m -85,14.33338 0.33333,0.33325 c -0.49348,0.16443 -1.10667,-0.33325 -0.33333,-0.33325 m 145,-0.33338 v 2 h -2 v -2 h 2 m -135,28 h -1 l -2,-6 c 3.4408,1.32923 4.23303,2.49756 3,6 m -1,-4 v 3 h 1 l -1,-3 m -231.999997,22 1,1 -6.0000001,2 v -1 l 5.0000001,-2 m 2,5 v 2 h -2 v -2 h 2 m 226.999997,5 -1,1 1,-1 m -160.999997,12 c -15.52475,-5.02978 4.45418,-16.39453 1.85108,-4.04394 -0.28476,1.35107 -1.25534,2.83704 -1.85108,4.04394 m 146.999997,-6 2,1 v 1 l -2,-2 m -174.999997,9 v 2 h -2 v -2 h 2 m 16,0 v 2 h -2 v -2 h 2 m 171.999997,10 -1,1 1,-1 m 472.99999,32 h -1 l -1,-3 h -1 l 3,12 h 4 l -3,20 3,4 8,-1 -7,12 h 7 l -21,29 12,-4 -9,15 4,-2 -5,8 c 9.7019,2.07905 -5.7158,12.58002 -4.9445,16 0.9669,4.28657 15.1217,7.50623 18.9445,9 v 2 l -10,2 v 1 c 15.9008,5.78669 38.9573,17.49653 47,33 l -19,-7 v 1 l 13,8 -10,-3 v 1 c 7.9577,3.33063 15.9309,8.16126 20,16 l -13,-6 c 8.1637,7.51948 17.7925,14.89136 21,26 -10.1899,-5.42352 -19.3448,-10.43054 -31,-12 v 1 c 10.7347,5.07825 24.5841,14.60193 29,26 l -9,-6 c 6.5718,6.71094 13.3552,14.47858 15,24 l -10,-8 9,20 h -1 l -3,-6 h -1 l 1,5 -35,-26 c 9.3473,8.23414 19.0855,19.22736 21,32 l -7,-7 12,22 -8,-5 9,21 h -1 l -15,-20 c 5.6344,11.32605 9.9986,18.90351 10,32 l -13,-16 4,15 c -19.3364,-4.76373 -38.5444,-4.77307 -58,-1 l 6,-12 h 6 l -3,-7 8,2 v -7 l 5,3 -5,-13 c 4.6481,-3.80664 -3.0783,-14.43505 -6,-18 0,17.96216 -9.0108,30.1803 -19,44 l -3,-1 v 11 c -5.9101,-0.9613 -7.6155,-6.27728 -10.449,-11 -4.8855,-8.14257 -9.6887,-17.41485 -17.551,-23 5.6778,8.32099 19.6608,22.27222 19.6389,32.89582 -0.01,3.4461 -3.8371,5.71887 -4.6389,9.10418 l -3,3 c 13.4384,-7.03088 14.69,5.69532 3,11 v 1 c 2.9782,1.10981 3.8787,1.0351 5,-2 h 5 l -3,19 -5,-3 h -2 l 1,7 4,-1 -5,11 -6,-1 5,2 c -1.5925,4.69373 -7.2947,14.8512 -13,12 -1.7257,3.90772 -4.2327,5.73816 -8,3 h -1 c -9.9813,7.56183 -35.31658,-0.75024 -31.9413,-14.95678 1.2607,-5.30658 8.2108,-8.17145 11.7716,-12.04706 12.1573,-13.23224 22.3494,-20.8877 23.1697,-39.99616 l -4,12 -14.0394,8.15662 -17.96059,1.82874 -21,-9.06946 -15,1.0841 -7,-13 c 3.56671,9.9701 6.42768,20.67524 15.00385,27.62116 6.3067,5.10785 12.81952,9.66394 19.08563,14.84955 2.492,2.06231 7.07776,3.46429 8.21686,6.74225 2.74605,7.90258 -6.88312,12.05554 -12.30634,14.47454 -16.60003,7.40442 -31.45697,8.84235 -49,7.3125 v 1 h 2 v 1 l -7,-1 v -1 h 5 v -1 h -6 c 1.84503,-4.19976 6.26001,-8.96746 0,-11 l 2,5 v 1 l -8,4 -1,-6 -4,1 7,-9 -8,8 c -5.64038,-2.32397 -10.49219,-4.71466 -12,-11 l 8,-3 -1,4 h 4 l 1,-6 -15,5 5,-3 v -1 l -9,-1 7,-4 v -1 l -8,2 c 2.1991,-8.36584 9.82498,-10.0722 17,-13 v -1 l -19,3 c -0.19815,-3.60559 -1.43612,-9.17224 1.45832,-12.01391 2.6647,-2.61615 11.79528,-6.37921 12.54168,-0.98609 l 17,-1 -14,-4 c -0.23346,-5.09216 -3.71344,-4.19732 -5,0 l -7,-1 1,-3 -3,3 h -5 c 2.87564,-10.39532 12.23514,-5.83709 8,-17 h 8 c -3.03158,-11.86474 16.95185,-36.03765 30.9267,-30.10571 4.68695,1.9895 2.54419,7.19019 3.84259,11.10571 1.58954,4.79358 5.54944,8.77601 8.23071,13 0.9646,-21.84692 -7.03955,-41.98016 -11,-63 9.0741,-9.39044 1.63013,-33.31634 -7,-41 l -7,32 c -15.28912,-12.44592 -13.90179,-35.42285 -32,-45.35186 -16.78219,-9.20703 -28.64175,7.10937 -44,2.55096 -9.61838,-2.8548 -10.23715,-10.79504 -16,-17.1991 l 1,10 h -1 l -4,-12 h -1 l 1,4 c -7.78775,-6.5194 -4.90912,-20.75592 -9,-29 -11.8009,15.28034 -4.87558,35.9477 -3.17053,53 1.16989,11.70032 -3.82175,22.45746 -3.82175,34 0,12.35627 4.77231,24.04188 6.99228,36 l 5,-2 c 2.82154,9.91474 6.53174,7.8573 14,12.80402 4.56204,3.02173 8.7446,7.1565 14.16977,8.69983 11.72769,3.33624 36.2832,0.42352 42.83023,-11.50385 -21.60034,0.92731 -49.0917,-6.12414 -60.08795,-27 -4.89157,-9.28643 -5.69855,-22.65863 -5.91205,-33 h 1 c 12.54892,22.51746 40.10153,56.20289 67,32 l -13,2 c -3e-5,-2.94451 -4.28064,-3.43347 -7,-4 -7.2796,-1.5166 -14.66247,-4.66247 -20,-10 -7.01135,-7.01135 -8.62381,-17.61322 -13.16665,-26 -5.6662,-10.46063 -13.59931,-16.87219 -15.83335,-29 h 1 c 3.97528,4.22577 10.5549,8.78016 16,10.85572 3.21329,1.22485 7.75693,0.59326 10.41126,3.00232 2.67511,2.42791 2.88882,7.91406 4.38427,11.14196 3.30771,7.13971 8.33835,13.16987 15.20447,17.12037 15.8718,9.13195 35.7536,5.0523 45,24.87963 h -4 c 0,16.39118 -5.00262,41.35676 -23,48 l 1,-3 c -6.82019,2.6377 -11.63693,8.8675 -19,10.4668 -7.65552,1.66278 -9.86145,-6.29724 -15.90585,-6.2608 -9.90131,0.0597 2.9422,20.518 3.90585,23.794 l 5,-4 h 1 c 11.75974,6.62354 23.79807,-17.51623 33,-22 -3.02749,7.27167 -7.67673,13.36982 -11.25076,20.28553 -1.55682,3.01245 -1.51364,7.55096 -3.73688,10.11108 -2.06961,2.38324 -5.28134,1.58197 -7.01236,-0.39661 h -1 c -4.0982,5.80066 -20.19513,4.18488 -27,5.4599 -20.11242,3.76844 -44.66559,8.00135 -60,22.5401 25.1608,-15.20202 55.46955,-23.3905 85,-24 -1.84921,6.32172 -19.11111,6.81623 -25,7 v 1 l 24,-3 v 18 c -28.13943,6.45112 -54.65594,19.97669 -79,35 l -1,-12 -6,7 h -1 l 5,-14 c -5.14453,4.06543 -6.27658,9.92695 -8,16 h -1 c -0.76141,-3.69085 -2.76013,-8.33306 -0.95758,-11.96063 2.60437,-5.24121 10.16083,-9.85656 14.95758,-12.94989 14.94626,-9.63849 35.26514,-18.69934 53,-21.08948 v -1 c -19.68808,2.65339 -43.24817,12.49695 -59,24.50312 -7.65072,5.83142 -13.31363,13.96838 -21,19.49688 l -2,-26 -7,25 h -1 l -5,-23 h -1 l -6,17 h -1 l -2,-27 h -1 v 23 h -1 c -4.7742,-11.63989 -8.73727,-23.27349 -9,-36 h -1 l -6,25 h -1 c -0.11285,-13.63427 -3.09772,-23.78546 2,-37 l -13,22 h -1 l 1,-16 h -1 l -7,16 h -1 c 0,-10.66052 -0.24432,-22.00695 4,-32 l -6,15 h -1 l -1,-3 -3,1 4,-21 h -1 l -7,18 h -1 c 0,-14.71209 2.82092,-23.7655 9,-37 l -11,13 h -1 c 0.68347,-14.95642 10.39984,-28.54907 16,-42 l -8,4 c 1.40146,-10.35644 5.71918,-12.23327 13,-18 -12.89898,3.37433 -19.74475,12.23511 -30,20 l 20,-30 -14,15 h -1 c 0.009,-13.9898 9.56345,-13.47222 18,-22 l -21,11 c 4.8551,-13.15795 14.97519,-17.68536 24,-27 l -9,1 18,-15 v -1 l -15,7 23,-20 -14,2 32,-21 -9,1 v -1 l 24,-14 c -5.65948,2.39747 -9.65896,1.99183 -15,-1 l 18,-10 v -1 l -11,-1 v -1 l 21,-10 v -1 l -10,-2 v -1 l 21,-11 -19,-3 12,5 -15.53937,10.72681 5.53937,4.27319 -5,-1 v 1 l 3,2 -19,5 v 2 l 9,3 v 1 c -9.07272,3.49976 -15.12411,5.84302 -5,13 l -22,10 1,-3 -5,1 2,-3 -8,2 v -1 l 4,-4 -11,3 6,-12 c -5.72934,-0.13787 -10.28216,-1.6845 -13,-7 l 13,-5 -9,-9 4,-1 -13,-13 v -1 l 6,2 v -1 l -13,-9 c 3.06207,-4.37084 2.70532,-6.48663 0,-11 l 3,-1 -7,-12 7,-4 -8,-18 h 7 c 0.003,-5.1394 -1.31717,-17.11846 3,-20 -6.46655,-15.91528 10.49536,-21.7528 23,-14.23999 11.78882,7.08277 18.36194,19.58887 29.01465,28.03241 13.98251,11.08277 31.12091,16.13105 47.98535,20.91748 7.00723,1.98877 19.11753,7.55573 26.36576,5.11109 9.41534,-3.17554 -1.37421,-16.88123 0.59643,-22.39661 3.67444,-10.28393 25.1026,-20.94171 35.03781,-23.42438 v 4 c 7.00778,-5.38183 15.0268,-14.02191 25,-10.39733 4.04358,1.46954 7.2656,5.23913 11,7.39733 v 1 c -20.49209,0.88202 -45.48767,11.75812 -56,30 7.03211,-0.76379 12.00128,-5.9262 18,-9.26849 13.77024,-7.67236 35.03659,-18.539 51,-12.73151 l -2,3 6,5 -5,1 1,3 c -27.33941,-9.96423 -49.5159,6.22352 -69,24 -6.87015,6.26807 -14.91406,12.47974 -19.16049,21 -4.51453,9.05817 -0.74796,20.36677 -4.83951,30 11.51325,-2.62817 21.39353,-22.89031 30,-30.91052 17.07691,-15.91357 37.13611,-32.57593 61,-36.69598 5.15253,-0.88959 10.72724,1.56232 16,1.6065 l 4,12 c -39.87671,5.06611 -82.07461,30.17493 -83,75 18.02579,-19.74731 36.45755,-39.58105 60,-52.9992 6.53455,-3.72437 18.12049,-10.94116 25.91052,-10.25617 3.95215,0.34754 7.15979,4.23328 11.08948,5.25537 -0.85547,4.96802 -2.91022,13.05304 -7.22455,16.14197 -4.68744,3.35602 -13.23223,2.36194 -18.77545,3.5232 -16.25815,3.40588 -34.31305,13.40954 -37,31.33483 7.5376,-3.58581 15.06726,-10.21502 23,-12.48999 5.68152,-1.62933 12.16797,-0.69189 18,-2.03778 17.82556,-4.11377 29.98792,-16.27386 30,-34.47223 14.22669,8.01343 15.66901,31.24628 25.39044,42.95679 5.45234,6.56793 12.29981,6.01593 19.60956,8.59107 17.37009,6.11932 33.45059,13.71026 35.99999,33.45214 h 1 c -1.6836,-13.25225 -7.5371,-20.11376 -14,-31 l 18,5 c -7.6452,-12.21435 -21.9537,-18.47631 -36,-19.83026 -6.15874,-0.59362 -14.28728,2.57172 -19.81322,-1.15814 -3.82538,-2.58203 -6.84216,-16.34228 -8.18677,-21.0116 l 24.99999,5.35883 37,15.64117 c -9.1517,-12.99176 -26.0071,-28.14746 -41.99999,-31.48144 -8.50232,-1.77246 -15.81756,5.10974 -23.9992,0.13733 -9.82557,-5.9715 -3.32959,-13.36957 -10.0008,-20.65589 v -1 c 6.13776,-2.77423 13.55512,0.94227 20,1.86884 13.73346,1.97443 28.05639,3.28095 39.99999,10.99689 8.7285,5.63891 14.6595,15.77838 24,20.13427 -7.1946,-25.35314 -29.2817,-48.35614 -56.99999,-49.79089 -13.11078,-0.67865 -25.98059,6.97241 -38,-1.20911 v -1 c 10.14429,-14.97644 -15.99139,-9.73327 -11.38116,-19.56713 2.78723,-5.94538 16.25866,0.10882 20.38116,1.49151 10.8067,3.62451 21.85974,5.9361 32,11.38507 8.1214,4.36414 16.78129,12.48377 25.99999,13.69055 -16.6643,-16.6643 -36.05693,-31.35498 -58.99999,-37.85955 -4.87543,-1.38221 -9.85834,-3.26862 -15,-3.03626 -7.36035,0.33264 -13.36816,4.48737 -20,-0.10419 l 2,-8 -8,-1 c 5.30304,-8.2738 25.65851,-3.35827 34,-3 l -2,3 19,5 v 1 h -6 l 17,7.3125 21.99999,16.6875 -1.99999,-5 c 3.56069,-0.28063 7.59899,-1.55578 10.95679,0.18287 10.2562,5.31067 4.2924,22.01367 16.0471,26.05554 4.6472,1.59796 10.5109,-3.13135 14.9961,-4.38965 23.4091,-6.56738 40.9724,-28.76251 35,-53.84876 -6.3385,4.54114 -11.4087,1.38758 -17,-3 15.3721,-7.15673 19.4381,3.18128 33,7 -1.8904,-7.86364 -6.9481,-12.7434 -15,-14 19.2373,-13.14208 28,16.98182 28,30 m -372.99999,-20 6,20 c -15.36206,-8.7528 -20.52246,-15.19543 -38,-8 3.88358,-16.15454 18.88355,-16.16638 32,-12 m -295.999997,-2 -1,1 1,-1 m 16,0 -4,4 v -4 h 4 m 407.999997,4 24,4 v 1 c -21.81466,0.93702 -41.55505,16.62092 -61,25 l 1,2 -1,1 -12,-7 v -1 l 6,1 1,-3 -3,-1 v -1 l 11,-2 -4,-5 v -1 l 26,-4 v -2 l -6,-1 v -1 l 18,-1 v -4 m -109,4 v 8 l -13,-7 2,-4 11,3 m 202,-1 -1,1 1,-1 m 127.99999,31 c -7.5396,13.56946 -19.4257,22.21894 -35,21 v 3 l 8,2 -6,1 c 2.2894,7.75928 10.4619,13.10712 18,15 v -3 l -12,-5 v -1 h 7 l -10,-3 v -1 c 13.872,-2.479 29.7889,-19.69232 34,-33 l -3,1 16,-25 c -7.274,2.67005 -12.4085,13.60767 -16.3889,20 -1.7848,2.86622 -5.4961,6.94782 -0.6111,8 m -417.99999,-14 1,1 v 1 l -1,1 h -1 l -1,-1 v -1 l 2,-1 m 247,11 1,1 -1,-1 m 171.99999,0 -1,1 1,-1 m 11,10 -11,12 h 7 l -6,11 -4,1 v 1 l 10,-2 -9,8 v 1 l 5,-1 1,1 -11,10 v 1 c 7.1241,-0.79339 12.0412,-6.38006 16,-12 h -5 l 8,-12 -9,2 7,-10 -6,-1 7,-10 m -377.99999,3 c 2.61246,9.06843 8.57843,15.80506 17,20 v 1 l -10,-3 4,10 -9,-3 c 1.87897,12.16895 19.7002,16.86841 30,19 v 1 h -3 c 1.0766,6.77076 7.89008,8.4632 14,9 v 1 c -3.67251,0.76642 -8.15149,5.14454 -2.22607,7.16358 3.06427,1.04413 7.22348,-1.5235 10.22607,-2.16358 v -1 l -7,-2 1,-3 -1,-2 -14,-4 v -1 l 7,-2 -31,-15 v -1 l 16,2 v -1 l -6,-2 2,-2 -9,-4 v -1 l 18,2 v -1 l -27,-22 m 35,0 c 6.26264,14.19886 23.27332,16.52295 36,22 h -7 c 3.62042,7.20313 10.43158,10.81977 18,13 v 1 c -4.1022,0.53333 -7.59555,0.75458 -9,5 l 9,1 v -2 h -7 v -1 l 10,-3 v -2 l -16,-7 v -1 l 6,-1 c -2.48779,-7.9555 -22.4823,-12.87005 -30,-16 l 1,-4 -11,-5 m 6,5 3,3 -4,-2 1,-1 m -198,6 1,1 v 1 l -1,1 h -1 l -1,-1 v -1 l 2,-1 m 501.99999,2 v 1 h -3 l 3,-1 m -473.9807,1.60804 c 8.48047,-3.10193 11.68518,8.85736 3.68365,11.81714 -8.9374,3.30597 -11.92012,-8.80445 -3.68365,-11.81714 m -4.01929,4.39196 1,1 -1,-1 m 507.99999,0 -1,1 1,-1 m -591.99999,1 v 2 h -2 v -2 h 2 m 235,1.33332 c 0.77335,0 0.16025,0.49792 -0.33334,0.33337 l 0.33334,-0.33337 m -3,5 0.33335,0.33337 c -0.4935,0.16449 -1.10675,-0.33337 -0.33335,-0.33337 m -156,6.66668 -3,2 1,-3 2,1 m 487.99999,7 5,-1 v 1 c -6.0992,3.38587 -0.9304,6.45392 3,9 l -4,2 v 2 l 5,3 c -1.3848,6.23304 3.4516,8.42792 9,9 v -1 l -9,-4 v -1 h 4 c -3.1535,-5.42181 -2.2336,-8.09674 -1,-14 l -8,-2 1,-6 v -1 l 3,-3 -8,7 m -12,2 c 0,9.70386 -1.4183,19.48621 1.159,29 3.4256,12.64533 13.3951,21.89917 17.7507,34 5.1204,14.22547 1.2674,28.4347 1.0942,43 -0.1031,8.66663 0.9548,18.5633 -4.5032,25.99616 -5.8773,8.00403 -19.2567,13.14893 -28.5007,16.00384 9.1962,13.91712 27.6167,3.71308 34.892,-6.17358 5.4698,-7.4331 6.1021,-17.93835 6.108,-26.82642 h 1 c 4.9525,20.90857 7.9578,38.77369 -10,54.82642 -5.0033,4.47254 -14.3243,6.32343 -18,11.17358 l -4,-1 c 6.922,8.05323 26.1568,8.5542 32.9768,-0.64892 5.5391,-7.47461 5.9705,-15.72907 8.0232,-24.35108 l 18,8 -3,-7 v -1 c 2.6091,-2.86242 -1.3976,-7.10668 -3,-10 l 6,1 -7,-15 3,-1 -6,-7 c 1.9298,-3.87225 -1.2876,-6.19543 -4,-9 l 5,-1 -10,-13 12,4 -15,-20 9,4 -9,-13 6,2 -9,-17 4,1 -8,-12 h 5 v -1 l -8,-6 10,2 v -1 c -9.3051,-3.17468 -18.8196,-12.86352 -22.6705,-22 -3.1413,-7.45275 -3.2849,-17.04315 -11.3295,-21 m -596.999987,1 2,2 -1,2 -3,-1 2,-3 m 328.999997,0 -9,2 c 1.14209,6.90485 10.24741,7.45337 16,6 l -3,-1 v -1 l 9,-4 -9,-1 2,3 c -5.17407,1.06678 -8.43466,2.18915 -13,-1 l 7,-3 m 13,27 -4,10 5,-1 -14,15 v 1 l 9,-3 -9,10 h 6 l -9,10 3,1 -8,10 9,-3 -4,12 6,-2 -9,25 6,-3 -4,8 14,-7 -6,11 9,-2 -10,20 8,-3 -8,14 7,-2 -12,14 8,-1 -5,10 4,-1 -5,14 4,-2 -3,7 c 8.06015,-2.93328 18.763,-6.74652 23.76773,-14.01544 3.45352,-5.01599 8.34607,-14.3562 -1.76773,-13.98456 1.87082,-4.89288 4.3299,-30.85784 -1,-32 l 3.09336,-50 5.72146,-20 -1.7716,-24 3.95678,-31 c -8.45126,3.95209 -14.76285,15.47571 -20,23 m -85,-12 1,1 -1,-1 m 387.99999,0 1,1 -1,-1 m -136.99999,1 c -1.91601,7.77723 -1.99689,15.33765 -10.00079,19.55787 -13.04865,6.88012 -38.10809,-0.96656 -44.99921,16.44213 l 10,-1 c -6.92047,10.59266 -9.18646,25.2818 -4,37 h 1 c -3.70929,-11.70135 2.45728,-28.53063 14,-34.3117 4.89002,-2.4491 10.78943,-1.57727 16,-3.12811 16.99964,-5.05976 27.50952,-16.70533 21,-34.56019 h -3 m -251,2 -1,1 1,-1 m 364.99999,7 3,3 5,11 v -3 l 6,1 -10,-8 4,-4 h -8 m -104.99999,13 c -4.74652,16.85084 -21.34369,42.81397 -10,60 h 1 c 5.68817,-7.68707 4.02118,-16.12866 5.30017,-25 1.79523,-12.45214 6.69983,-22.01892 5.69983,-35 h -2 m -201,1 1,1 -1,-1 m -14,9 1,1 -1,-1 m 223,1 4,22 h 2 l 1,-5 h 1 l 11,33 c 10.65149,-14.95007 -7.19543,-40.94506 -19,-50 m 11,0 c 0.1698,20.2605 24.12639,26.15674 24.99999,45 4.8443,-3.38018 4.4232,-10.85394 2.7763,-16 -3.23,-10.09222 -18.3798,-24.61798 -27.77629,-29 m -237,1 v 1 l 11,1 -11,-2 m 13,2 3,-1 -3,1 m 192,-1 c -5.42785,10.89655 -28.33178,30.86866 -10,42 l 12,-42 h -2 m -83,2 c -2.66342,10.05335 -16.25616,2.02845 -14,16 l -9,-6 c -4.06723,14.19294 12.21521,12.02424 21,12 l -8,-10 c 5.289,0.4571 8.95127,2.30866 12,-3 h 1 l 7,8 c -0.49759,-8.38067 -1.2706,-13.61767 -10,-17 m 178.99999,0 -2,7 -4,-2 c 0,16.58552 -8.6041,20.28516 -15,34 l 23,-29 -2,8 9,-1 v 1 l -4,5 c 2.7867,-0.20117 15.182,-0.24029 8,-5 l 1,-6 h -7 l 1,-7 -4,1 -2,-6 h -2 m -150.99999,32 -9,-28 -3,1 -1,-4 c -11.08963,6.11994 6.83554,26.62092 13,31 m -145,-30 -1,1 1,-1 m -177,1 -1,4 -2,-4 h 3 m 404.66669,8.66669 -0.33337,0.66663 0.33337,-0.66663 m -234.66669,0.33331 1,1 -1,-1 m -7,5 v 1 h -5 l 5,-1 m 104,4 c 0.96643,6.41816 3.69232,10.12116 10,12 -0.85943,-5.88555 -4.38492,-10.07519 -10,-12 m 279.99999,2 v 1 h 3 l -3,-1 m -143.99999,3 1,11 c 3.63404,-3.66455 2.54663,-7.62316 -1,-11 m -150,1 -1,1 1,-1 m 200.33329,2.66669 0.3334,0.66663 -0.3334,-0.66663 m 31.6667,0.33331 c -4.8462,5.49158 -12.7171,3.60297 -19,6.91205 -16.0676,8.46259 -26.837,25.85865 -27,44.08795 h -1 c -4.3564,-11.31268 -5,-22.99127 -5,-35 h -1 c 0,23.90632 6.971,43.08942 11.5363,66 1.7276,8.66999 2.9231,22.15314 11.4637,27 l -12,-42 4,5 h 1 c -0.016,-4.6784 -2.5277,-10.70159 -0.5247,-14.9992 5.5533,-11.91522 21.6779,-10.15991 27.0571,-24.0008 2.8219,-7.26074 -0.4986,-23.66113 9.4676,-25 l 3,-8 h -2 m -225.99999,4 -1,1 1,-1 m 56,7 v 1 c -16.09424,2.35053 -14.55688,19.88996 -10,31 -11.13626,-3.55627 -22.01642,-22.31256 -9.89197,-31.29705 5.78849,-4.28943 13.61234,-2.69355 19.89197,-0.70295 m 241.99999,-2 3,2 v -1 l -3,-1 m -97,32 v -1 c 7.2657,-4.64361 9.9291,-10.53601 10,-19 -5.8049,2.68451 -7.7057,-1.62896 -8,-7 l 7,2 -3,-5 c 8.3757,-2.23022 7.0283,6.03895 6.9992,12 -0.044,9.05268 -3.4068,16.26252 -12.9992,18 m -313.99999,-28 -2,1 v 1 l 2,-2 m 173.09027,6.66205 c 4.81003,-0.51806 7.03595,6.94959 1.8125,7.96143 -5.45782,1.05725 -7.39389,-7.36029 -1.8125,-7.96143 m 9.90973,6.33795 c 2.06848,11.30951 -3.32861,18.89563 -15,19 v -1 c 9.76111,-2.90112 10.27185,-10.48638 15,-18 m -432.999997,1.33332 c 0.77337,0 0.1602,0.49792 -0.33333,0.33337 l 0.33333,-0.33337 m 563.999987,1.66668 1,5 c -3.0301,-0.85577 -3.283,-1.91955 -3,-5 h 2 m -622.999987,8 2,3 c -0.98594,-0.13751 -2.13842,-0.18682 -3.11574,-0.48382 -10.37634,-3.15295 4.63336,-9.18176 1.11574,-2.51618 m 610.999987,-4 8,8 v 1 c -5.316,-0.48272 -10.4581,-2.90521 -8,-9 m -560.999987,1 v 3 h -3 v -3 h 3 m 27.999997,1 -1,1 1,-1 m 400,0 v 1 l -3,1 3,-2 M 63.553623,446.8766 c 3.91466,-0.27527 3.751,5.6762 0.0656,5.66052 -3.2001,-0.0136 -3.31159,-5.43225 -0.0656,-5.66052 m -45.1142,1.00231 -1,1 1,-1 m 5,7 -3,-2 3,2 m 731.999987,-2 1,1 -1,-1 m -521.99999,8 v 1 c -46.18663,4.05793 -46.80627,68.40961 -90,77 l 12,-29 h 1 v 5 c 11.2656,-5.97137 14.05213,-22.71289 20.46373,-33 13.83611,-22.1994 32.40435,-25.49639 56.53627,-21 m 167,-1 -1,1 1,-1 m 329.99999,2 1,1 -1,-1 m -475.99999,7 c -10.315,18.01282 -25.08935,30.24164 -44,38 4.68277,-14.12304 28.1223,-42.14465 44,-38 m 504.99999,-1 2,2 -2,-2 m -1,4 6,12 h 1 l -7,-12 m -129.3333,1.66669 -0.3334,0.66663 0.3334,-0.66663 m -366.66669,6.66663 c 0.77332,0 0.16031,0.49792 -0.33334,0.33337 l 0.33334,-0.33337 m 0,2.66668 -1,1 1,-1 m -1,2 c -1.99392,4.32551 -4.45907,6.53699 -9,8 l 4,-7 3,2 2,-3 m 481.99999,1 2,2 -2,-2 m -587.99999,1 c -10.224,14.52765 -19.69323,26.71003 -25.3287,44 -1.15028,3.52912 -1.93047,16.02558 -5.89583,17.24848 -11.98524,3.69623 -6.48906,-19.31323 -4.96451,-23.24848 6.64623,-17.15557 19.13085,-30.64941 36.18904,-38 m 152,4 -1,1 1,-1 m 463.66669,0.66669 -0.3334,0.66663 0.3334,-0.66663 m -354.66669,6.33331 c -6.21515,7.6999 -9.83767,21.30951 -7,31 h 1 l 5,-6 1,12 5,-2 v 9 h 2 l 3,-4 v 10 l 8,-7 c 0.91864,3.85016 4.47058,10.22938 8,5 l 10,6 1,-3 h 2 c 2.79358,7.19013 12.41931,12.40455 15.55866,1.98456 1.27182,-4.22131 -2.41104,-9.00091 -3.55866,-12.98456 h -1 l -1,4 h -1 c -5.47735,-13.40448 -13.92404,-9.55871 -24.99615,-15.04321 -4.58295,-2.27014 -6.87458,-7.08972 -12.00385,-7.95679 -0.87591,-5.81323 -2.69684,-9.30792 -9,-8 l -2,-13 m 323.99999,6 2,2 -2,-2 m -346.99999,2 -1,1 1,-1 m -290.98533,11.92133 c 4.26336,-0.63055 4.30532,6.20178 0.061,6.32715 -3.921077,0.11578 -3.611967,-5.80194 -0.061,-6.32715 m 213.98533,14.07867 1,1 -1,-1 m 198,1 -3,4 3,-4 m 260.99999,14 v 1 c -9.518,-2.18206 -19.2087,-6.26354 -28.9606,-7.20526 -6.7251,-0.64941 -12.2206,2.68036 -18.0394,-2.79474 -5.8371,4.08851 -15.3326,1.07264 -22,0.28553 -10.8926,-1.28595 -21.246,0.86444 -32,1.71447 8.9534,-4.79522 22.0436,-5 32,-5 24.1884,0 46.0209,4.52277 69,12 m -255.99999,-8 c 1.35279,8.13416 8.76331,0.69996 0,0 m 153.99999,1 v 1 h -3 l 3,-1 m 145,24 v 1 l -42,-12.625 -35,-7.375 v 8 l -8,-6 1,-3 h -6 l 3,9 -7,-3 h -1 l 1,4 -52,1 0.043,-9.25769 11.9575,-2.70294 34,-0.0394 v -1 c -15.9904,-0.0441 -31.2354,-2.43005 -47,2 5.6083,-7.36706 26.5948,-4.03973 35,-3.9992 37.2574,0.17962 77.4667,10.67792 112,23.9992 m -309.33331,-22.33331 -0.33331,0.66663 0.33331,-0.66663 m -191.66666,1.33331 1,1 -1,-1 m 402.66667,0.33332 0.6667,0.33337 -0.6667,-0.33337 m 7.3333,-0.33332 1,1 -1,-1 m -219.99997,1 v 2 h -2 l 2,-2 m 213.99997,1 1,5 h 1 l -2,-5 m -403.99997,2 1,1 -1,-1 m 214,3 v 2 h 2 v -2 h -2 m 119.99997,1 v 3 h 3 v -3 h -3 m 84,4 v 1 l -9,-1 h 9 m -99,0 c -0.6001,7.93842 -7.5653,9.52723 -12.6991,14.46454 -5.8238,5.60102 -7.8203,14.15485 -16.3009,16.53546 l 1,-10 h -2 l -0.99997,10 c -8.35974,-1.72845 -9.05981,-14.23138 -16.00079,-19.60571 -5.70154,-4.41461 -13.30542,-1.72741 -15.99921,-9.39429 12.8559,-4.03002 17.63056,6.82746 29,8.04322 5.76177,0.61615 14.66787,0.98761 19.99997,-1.47687 5.1694,-2.38922 8.3432,-6.88617 14,-8.56635 m 97,13 c -3.7912,-2.43859 -4.6156,-5.63403 -5,-10 h -3 l 1,7 h -4 v 1 c 24.2632,3.63691 50.2563,18.88123 72,29.75312 9.5459,4.77295 22.099,9.91748 29,18.24688 -32.4419,-15.14642 -63.6043,-36.80706 -99,-45 l -2,14 10,3 v 1 l -27,-7 v 1 h 3 l -5,7 68,31 v 1 c -25.3357,-10.60412 -48.8728,-25.57153 -76,-32 l -4,8 -5,-9 -1,10 -21,-6 c 7.1072,-12.36621 12.9571,-6.77191 25,-5 v -1 l -20,-5 c 3.677,-12.40881 21.4352,-2.85491 31,-1 -1.3291,7.9585 -8.7812,3.15253 -13,0 v 5 l 16,4 2,-9 -33,-8 v -1 l 26,5 v -1 l -26,-5 1,-10 42,7 -5,13 11,3 -4,-15 7,2 v -1 c -16.9077,-5.5017 -33.318,-8.60437 -51,-10 v -1 l 40,5 v -1 l -29,-5 c 8.9081,-3.73809 27.4442,-2.03527 37,-0.55017 2.996,0.46564 8.0236,0.40949 10.3966,2.49927 2.4759,2.18036 1.6031,7.10632 1.6034,10.0509 m 93,22 v 1 c -29.2739,-12.18804 -56.8943,-29.67675 -89,-34 5.536,-3.55212 18.0093,2.17115 24,4.02552 22.659,7.01373 44.7458,16.57824 65,28.97448 m -510.99997,-32 -2,3 2,-3 m 183,0 v 2 l -8,1 c 0.85437,-3.98706 4.4895,-3 8,-3 m 10,0.33332 0.33335,0.33337 c -0.49357,0.16455 -1.10672,-0.33337 -0.33335,-0.33337 m 147.99997,2.66668 -1,4 3,-4 h -2 m -157.99997,1 c 0.001,9.4646 2.89188,16.48029 -9,17 0,-9.11602 -2.24145,-16.9602 9,-17 m 214.99997,0 v 1 l 9,2 -9,-3 m -170.39657,3.08179 c -2.1034,1.52619 -0.35035,5.05158 2.11804,3.74689 2.88012,-1.52234 0.49621,-5.6438 -2.11804,-3.74689 m 277.39657,-0.0818 -1,1 1,-1 m -307.99997,1 4,3 -4,-3 m 13.73151,5.08564 c -3.12506,2.23626 0.44836,7.41534 3.48688,4.86804 2.52258,-2.11481 -0.69593,-6.86524 -3.48688,-4.86804 m 179.26846,-1.08564 -1,6 -6,-1 v 1 l 11,2 v -1 l -2,-7 h -2 m -196.99997,6 -1,1 1,-1 m -1,2 -4,3 4,-3 m 145.99997,2 v 2 l 4,1 v -4 l -4,1 m -153.99997,0 c -0.78235,4.73047 -3.74173,5.59491 -8,7 -0.98556,-5.86187 2.97818,-6.3471 8,-7 m -12,3 2,5 c -20.91589,6.81739 -39.37741,16.51795 -58,28 l -2,-7 c 0.0418,5.56177 0.73709,9.30866 -4,13 v -6 l -11,11 3.56403,-14.67126 20.43597,-11.32874 49,-18 m 48.6073,3.04249 c -2.57165,2.02459 0.40296,5.49871 3.05011,3.87573 3.22937,-1.97992 -0.27698,-6.05896 -3.05011,-3.87573 m -34.6073,-0.0425 v 1 l -9,3 9,-4 m 188.99997,0 v 1 l 5,1 v -1 l -5,-1 m 44,1 5,2 v 1 l -6,-2 1,-1 m -183.99997,4 4,-3 -4,3 m -61,-1 v 1 l -11,3 11,-4 m 12,0 2,6 c -4.95865,0.80304 -7.8714,0.28663 -9,-5 l 7,-1 m 239.99997,0 -1,1 1,-1 m -183.99997,1 v 3 h 3 v -3 h -3 m 185.99997,0 -1,1 1,-1 m 85,0 -1,1 1,-1 m -333.99997,8 -47,21 -2,-6 -6,6 c 5.72739,-13.41503 24.219,-19.40637 37,-23.66668 7.57663,-2.52551 14.64649,-6.95239 18,2.66668 m 252.99997,-5 -3,-1 3,1 m -82,-1 c 35.9295,9.39496 69.4699,30.11316 99,52 v 1 c -24.5916,-11.68511 -45.1977,-32.27911 -72,-40 l 2,14 -35,-20 c 8.8147,-10.57446 16.5256,5.2204 23,10 l -3,-8 12,4 v -1 l -27,-11 1,-1 m 84,1 -1,1 1,-1 m -240.99997,1 -1,1 1,-1 m 143.99997,1 -1,4 h 3 l -2,-4 m 100,0 -1,1 1,-1 m -247.99997,1 v 1 l -2,1 6,6 -41,12 v -1 l 35,-16 -3,-1 5,-2 m 189.99997,0 -2,3 2,-3 m 60,0 1,2 -1,-2 m -256.99997,2 v 1 l -56,29.06403 -37,24.93597 c 3.95395,-8.10925 15.59168,-13.51275 23,-18.30865 21.14624,-13.68939 45.56961,-29.65631 70,-36.69135 m 259.99997,0 -1,1 1,-1 m -112,1 -1,5 h 3 l -2,-5 m -187.99997,2 -1,1 1,-1 m 88,5 h 5 l -1,-5 -4,5 m -90,-4 -1,1 1,-1 m 76,0 -1,2 1,-2 m 113.99997,189 c 20.5942,-3.71667 33.6806,-26.41973 41,-44 h 1 c 0,34.90351 5.19,69.6482 -3.8842,104 -13.0368,49.35254 -45.6094,90.33913 -59.1042,138.99993 -3.658,13.19071 -4.5748,26.35851 -3.9722,40.00001 0.2257,5.1096 2.3102,9.9077 1.9606,15 l 3,-1 10,15 c -4.9521,1.9656 -8.6687,4.0568 -11,9 25.3696,-16.552 46.3533,4.6813 50,31 1.2447,8.9824 1.4037,22.5603 -6.4707,29.0054 -7.5158,6.1517 -16.2025,2.222 -19.2854,-6.0054 -9.3354,-24.9133 -15.7833,-62.4416 -49.24387,-63.9607 -8.21887,-0.373 -16.28003,0.4038 -24,3.4245 -12.06708,4.7214 -16.32312,11.9339 -29,4.5362 4.61914,8.4204 17.65467,10.7118 24.99921,16.5177 15.2536,12.0583 17.26672,31.5526 15.00079,49.4823 h -1 c -4.46948,-8.2851 -13.17224,-1.4669 -21,-3.4189 -7.90466,-1.9712 -13.47564,-10.9373 -17.13501,-17.5811 -7.75299,-14.0761 -5.28198,-25.8971 -7.28937,-41 -6.59405,-49.6115 1.42817,-95.54381 11.42438,-143.99991 8.16352,-0.5434 27.77088,2.2577 33.7284,-3.4337 3.96185,-3.7848 0.56543,-7.86601 -2.77161,-10.52238 -6.81268,-5.42291 -15.67706,-6.48395 -23.95679,-8.04395 2.10498,-10.17114 5.77692,-20.13659 9,-30 1.04376,-3.19415 1.61011,-8.89331 4.51312,-10.97302 4.30494,-3.08398 13.4552,-2.02698 18.48688,-2.02698 10.26941,0 20.75447,-0.61212 30.99997,0.0895 9.5467,0.65381 20.0953,2.87427 27.8874,-4.41894 8.5899,-8.04004 -4.6956,-16.42554 -11.8874,-18.90973 -19.724,-6.81311 -37.26016,-1.33173 -56.99997,0.23919 3.12213,-10.84216 9.06,-29.26953 16.39356,-37.8302 12.99441,-15.1687 32.07791,-22.32763 45.43591,-37.1698 15.6117,-17.34625 23.5936,-40.87152 29.7462,-63 3.5933,-12.92401 8.2605,-26.46624 8.4205,-40 0.048,-4.03656 0.9268,-10.77758 -3.2199,-13.24847 -4.9174,-2.93011 -5.1609,3.6059 -2.7763,6.24847 -5.6178,23.70649 -21.6134,47.01722 -35.0008,67 -5.6112,8.37574 -12.6257,18.6344 -21.9992,23 l 1,-3 h -1 l -5,9 h -1 l 2,-6 h -1 l -13.99997,15 v -4 h -1 l -5,7 -1,-5 h -1 c -0.008,12.09369 -3.36297,27.79957 -13,36 l 1,-14 h -1 l -7,16 h -1 v -5 h -1 l -7,12 v -18 h -1 l -5,23 h -1 v -7 h -1 c -2.23181,6.8451 -4.58972,12.21399 -11,16 l 1,-4 h -1 l -3,5 1,-11 h -1 l -10,19 h -1 l 2,-16 -12,16 2,-9 -14,22 h -1 v -4 l -17,16 9,-21 c -7.81402,9.15992 -14.65436,14.59827 -26,19 l 3,-6 -22,12 1,-4 -13,10 10,-20 -27,28 c -3.34335,-10.58734 -9.89251,-31.73669 -5.3966,-42.8302 1.95486,-4.8236 7.06256,-8.26452 9.3966,-13.1698 h 1 l 1,10 c 18.36017,-8.9729 16.79373,-42.22241 11,-58 h -1 c 4.0589,19.6753 3.38523,37.2035 -7,55 h -1 l -1,-26 h -1 c 0,7.89332 -1.36706,20.61219 -9,25 l -5,-18 2,14 h -1 l -4,-7 2,22 h -1 c -10.59097,-22.38555 -36.76013,-40.77514 -61,-44.56091 -9.1965,-1.43634 -19.95563,0.0751 -27.99615,4.91358 -3.22077,1.93811 -7.35526,5.33728 -6.03702,9.60717 1.33502,4.32434 6.2616,6.0036 10.03317,7.4607 9.56006,3.69342 19.03086,6.93676 28,12.00384 22.01917,12.43952 52.93769,31.44458 60.36267,57.57562 1.90525,6.70521 0.63733,15.06891 0.63733,22 h -1 c -7.14456,-9.37072 -16.00476,-15.10028 -28,-14.99536 -4.6886,0.041 -12.93832,1.54444 -12.33795,7.99842 0.57092,6.13733 8.64722,9.22711 13.33795,11.4823 9.52765,4.58068 22.40351,11.41443 27.0116,21.51465 4.99551,10.9493 0.9909,30.833 2.15817,43 1.74777,18.218 10.22043,34.32881 12.83023,52.00001 h -3 l 6,8 -7,-5 c 5.92047,10.3911 7.12952,19.0766 11.44983,30 3.72324,9.4137 8.81476,18.1481 11.39429,28 1.92074,7.3358 2.23254,16.656 -3.84412,22 l -2,-11 h -1 c -0.57464,10.9605 3.49237,22.1133 1.67438,33 -3.70163,22.1669 -28.27417,33.1889 -48.67438,32 -0.92499,-7.954 -7.40933,-12.9507 -8.98224,-20.0895 -2.69918,-12.2506 -0.68829,-37.1597 5.97684,-47.9105 3.89551,-6.2834 10.52814,-10.2602 16.0054,-15 -5.00995,1.8371 -10.72043,8.3915 -16,8.2779 -3.85837,-0.083 -7.67599,-3.7947 -11,-5.4684 -8.06091,-4.059 -16.77093,-8.3526 -26,-7.72 -13.83847,0.9486 -20.59872,13.4901 -33,4.9105 6.70325,-15.0624 21.71106,-26.6556 23.81558,-44 3.45563,-28.4795 -13.58462,-62.99871 -23.39196,-89.00001 -16.82541,-44.60767 -30.53278,-90.05909 -38.99924,-137.00001 -3.70728,-20.55438 -6.42438,-41.09063 -6.42438,-62 0,-6.11407 -1.93414,-22.29803 7.04322,-23.49688 3.64144,-0.48627 7.70855,2.16461 10.95678,3.49688 l -6,-19 4,-1 -2,-2 3,-2 1,6 2,-1 1,6 c 5.95941,1.16254 8.74787,11.06922 11.56867,16 7.58624,13.26075 17.42471,24.45441 28.43133,34.96064 3.71533,3.54645 14.96475,14.2232 20.62732,9.28167 3.29343,-2.87408 -0.71249,-6.992 -2.70679,-9.24231 -6.09042,-6.87219 -12.58429,-13.2824 -18.83102,-20 -21.83078,-23.47625 -28.65854,-57.76995 -36.21606,-88 -1.95878,-7.83508 -9.46756,-23.09686 -6.26929,-30.89123 2.5148,-6.12866 10.16583,-2.85693 14.39584,-0.84717 11.31803,5.37744 22.30545,9.82477 27.76929,21.7384 4.99893,10.89997 11.95447,20.40558 17.23071,31 -2.32394,-0.89648 -4.62768,-1.88085 -7.00152,-2.64117 -9.25339,-2.96368 -11.06379,3.29858 -6.95526,10.64117 6.31097,11.27875 17.91464,19.74268 23.63812,31 2.33044,4.58368 0.10196,10.09192 0.31866,15 h 1 l 2,-10 h 1 l 28,42 -2,-17 h 1 l 11,33 h 1 c 0.30884,-5.95336 3.4719,-11.05322 3.90973,-17 0.98178,-13.3352 -4.15759,-26.3836 -10.16821,-38 -4.16739,-8.05407 -9.85669,-15.28137 -15.91129,-22 -2.47134,-2.74237 -7.02655,-5.94726 -7.11804,-10 -0.12344,-5.46807 6.89584,-12.04705 10.09259,-16 11.96982,-14.80114 29.93829,-28.83831 47.19522,-37 l 26,33 c -4.17715,-11.47863 -9.73041,-25.44335 -7,-38 l 4,1 c 2.53769,-16.00524 37.13025,-19.65319 50,-24 l 6,7 v 1 c -13.23419,10.12104 -22.9107,24.70093 -29,40 8.04358,-7.346 12.90604,-18.95733 21,-26.9992 2.57395,-2.55737 5.96509,-6.96906 9.99616,-6.91437 4.08923,0.0555 6.66858,4.20899 6.43133,7.91437 -1.04809,16.36828 -2.74188,30.34601 -1.42749,46.9992 h 1 l 4,-43 h 1 l 12,12.93519 9,7.06481 7,-1 v 1 l -3,2 12,1 -5,13 h -1 l -4,-7 c -0.93005,6.90101 -3.13635,18.70057 -9,23 l -2,-9 -2,4 h -1 l -3,-4 v 17 l -3,-5 h -1 l -3,13 -2,-4 h -1 l -1,10 h -1 l -5,-7 1,20 14,-11 c 8.62427,0.14051 12.31934,-9.10638 17.09491,-15 7.64923,-9.44 17.08679,-16.16674 25.79706,-24.26 2.92249,-2.71552 3.90973,-7.50306 7.33258,-9.56098 9.54614,-5.73944 22.24192,-2.16156 28.77542,-14.17902 l -23.99997,11 c -3.0885,-4.5429 -9.68554,-1.58587 -14,0 l 1,-3 c -13.46765,3.07709 -34.39996,-5.79315 -43.89508,-16.01544 -6.16992,-6.64239 -8.62616,-19.22839 0.89508,-23.98456 l 1,4 5,-1 -1,5 5,-5 43,-5.8302 42.99997,1.8302 c -0.01,15.47065 -8.4875,23.49103 -14,37 9.4046,-11.4353 15.9983,-21.93731 16,-37 l 6,4 2,-4 -1,4 c 12.4238,-8.26477 27.4801,19.10853 35,26 l -15.1844,-20.78857 -12.8156,-11.21143 c 3.6038,-1.69183 6.9084,-6.6845 11.0394,-6.62731 5.1027,0.0706 10.9363,5.23779 14.9606,7.97143 12.6552,8.59631 22.0529,12.86365 24.5895,28.65588 6.2584,38.9629 6.0089,77.28736 -19.2693,110 -10.8666,14.06263 -33.2663,22.46552 -33.3202,42 m -191.99997,-188 -2,2 2,-2 m 69,1 -2,4 -2,-4 1,-1 3,1 m -72,1 -1,1 1,-1 m 109,0 v 2 h 2 v -2 h -2 m -111,1 v 1 l -15,10 15,-11 m 77,0 c -5.37018,7.46753 -14.64514,18.10376 -23,22 l 23,-22 m -120,1 c -7.9e-4,7.29169 -0.0584,12.67847 -4,19 l 12,-13 h 1 l -2,19 9,-7 c -12.20862,21.32001 -36.1004,32.26807 -50,52 -13.1897,-4.05865 -15.56698,-31.5227 -17.41049,-43 -0.83044,-5.1701 -2.61557,-12.66717 2.63504,-16.21447 6.91287,-4.67029 17.64652,10.01666 24.77545,11.21447 l 6,2 -4,10 15,-23 h 1 l 5,2 v -1 l -5,-6 6,-6 m 99,1 6,5 -6,-5 m 23,3 3,1 -4,4 1,-5 m 136.99997,5 1,9 2,-1 1,3 v -6 h -1 v 2 h -1 l -2,-7 m -231.99997,1 -9,8 v -1 l 9,-7 m 255.99997,0 -1,1 1,-1 m -224.99997,1 -4,4 4,-4 m -55.33334,1.66669 -0.33331,0.66663 0.33331,-0.66663 m 283.33331,-0.66669 c 13.8316,10.6319 28.1182,21.56098 37,37 l -25,-25.24615 -12,-11.75385 m 82,0 5,3 v 1 l -6,-3 1,-1 m -339.99997,1 c 1.28482,5.47724 0.64353,9.01709 -5,11 l -2,-3 7,-8 m 24,1 -1,4 -3,-3 4,-1 m -37,2 -1,1 1,-1 m 359.99997,0 -1,1 1,-1 m -253.33328,2.66669 -0.33337,0.66663 0.33337,-0.66663 m -102.66669,1.33331 3,5 v 1 l -20,13 c 3.47428,-7.30316 9.56632,-15.53295 17,-19 m 102,1 -3,19 h -1 l 4,-19 m -3,20 -1,1 1,-1 m -445.999997,3 -1,11 c -5.16829,-2.93145 -2.30054,-7.47052 1,-11 m 325.999997,2 v 1 l -7.08334,7 -18.91666,24 c -14.62997,-7.057 16.27799,-33.79205 26,-32 m 325.99997,4 3,5 h -1 l -2,-5 m 4,6 1,2 -1,-2 m -655.999967,32 -10,29 c -26.94329,-1.39776 -18.02709,-25.138 -9,-41 l 19,12 m 438.999997,2 c -4.15902,7.79322 -2.81647,22.10944 -3,31 9.45276,-3.23956 8.53272,-24.6665 3,-31 m -222,3 1,1 -1,-1 m 1,2 1,1 -1,-1 m -2,1 1,1 -1,-1 m 140,26 c 8.3133,14.98847 13.89374,27.33228 18,44 h 1 c -0.0422,-15.30688 -6.10803,-34.72106 -19,-44 m 184.99997,10 1,1 -1,-1 m -554.999967,9 c 0.62937,7.9748 5.17914,23.42652 2.35725,30.78705 -2.05104,5.34986 -18.31572,10.91901 -21.84336,4.89508 -5.3253,-9.09375 -5.41192,-30.87786 -2.51389,-40.68213 l 22,5 m 128.999997,2 c 6.08737,6.60889 15.07393,13.85193 18.98766,22 3.72175,7.74842 2.90651,19.51587 4.43672,28 3.63417,20.14936 14.8833,41.08472 8.54707,61 -5.97671,18.78528 -16.67383,37.79041 -31.97145,50.38501 -5.07962,4.18213 -11.1084,9.9814 -18,10.4954 -10.48332,0.7819 -19.98169,-6.13742 -28,-11.88041 l 18,-22 c 10.88214,2.25208 18.07753,6.2063 29,2 -5.27478,-6.72119 -20.14519,-8.88287 -22.11343,-18.00305 -0.74753,-3.46386 2.37849,-6.33459 3.82484,-9.16674 3.98366,-7.80048 10.74506,-14.37104 12.72533,-23.11646 6.25041,-27.60382 -22.92621,-68.37659 4.56326,-89.71375 m 355,43 -4,18 h 1 l 3,-18 m -476.999997,11 c 3.69988,11.70008 1.51331,24.04493 1,36 -6.14586,0 -16.40816,1.44141 -21.3966,-3.08874 -4.27196,-3.87952 -2.34825,-23.96863 -2.6034,-29.91126 l 23,-3 m 390.999997,48 -1,1 1,-1 m 4,5 c -0.81814,39.63111 -21.34247,74.15661 -43,106.00001 h -1 c -0.085,-10.2665 -2.14087,-20.6863 0.30246,-30.9105 1.37705,-5.7624 6.73108,-11.8106 9.53012,-17.08951 5.11542,-9.64758 8.95478,-19.72033 12.51154,-30 2.69534,-7.79003 8.16199,-25.71337 18.65588,-24 l 3,-4 m -400.999997,15 c -3.75772,11.27308 -10.67337,28.67396 -22,34 l -12.11883,-18 12.11883,-24 22,8 m 106.999997,-3 1,1 -1,-1 m -1,58.00001 c -4.48602,10.8151 7.48476,14.3141 7.30788,24 -0.21864,11.9729 -9.55214,25.0386 -11.84723,37 -4.05041,21.10981 15.45421,66.16921 -13.46065,76.00001 l 2,-2 v -1 c -5.05154,-4.6703 -12.34894,-10.4125 -14.8125,-17 -2.91052,-7.7827 3.67501,-23.5895 10.8125,-27 v -1 c -15.27282,5.2099 -11.54153,26.0594 -16.59953,37.625 -1.93491,4.4245 -7.46211,7.5862 -10.40047,11.375 h -3.00002 c -4.58241,-7.3338 -10.906,-13.0433 -12.32716,-21.9607 -1.90839,-11.9745 1.80736,-31.8675 17.32716,-30.9305 5.02387,0.3033 8.79178,3.5056 13,5.8912 -10.43416,-10.1888 -22.057,-10.5891 -31,2 -20.015707,-9.9714 3.21385,-24.75141 7.19985,-38.00001 2.71769,-9.033 -4.11646,-14.7884 3.41589,-22.6998 9.18634,-9.6488 16.2048,-8.5802 28.38426,-9.3442 2.0228,-0.1268 6.94829,-0.7002 6.36884,-3.8372 -0.7237,-3.9179 -15.75646,-6.8519 -19.36884,-9.1188 5.86006,-13.4064 25.21835,-8.5032 37,-10 m -38,9 -1,1 1,-1 M 99.439923,1064.8789 c -12.7792,-6.4768 -14.43173,-14.4363 -17.55246,-27 -0.9403,-3.7855 -3.67449,-7.9139 -1.41899,-11.787 4.06948,-6.988 19.697417,-14.3578 23.618057,-3.1728 1.27733,3.644 -1.64916,8.376 -2.33565,11.9598 -2.028257,10.5886 -4.517107,19.3057 -2.310957,30 m -20,-43 c -6.1764,6.708 -10.74324,12.7128 -12,22 h -3 l -4,-17 c 4.73733,-7.7704 11.16907,-8.6397 19,-5 m 355.999997,6 -1,1 1,-1 m 24,42 1,-6 -10,7 c -2.38003,-5.7242 -5.13989,-11.2947 -7.57251,-17 -1.50894,-3.539 -3.1044,-7.2241 -3.90973,-11 -2.73898,-12.8418 3.5232,-18.0309 14.44287,-9.3164 7.34171,5.8591 12.02863,14.9257 12.03165,24.3164 0.002,5.265 -0.43188,10.317 -5.99228,12 m -362.999997,-9 1,1 -1,-1 m 537.999987,75 v -1 l 2,1 v -1 l -5,-7 c -10.5876,5.8642 -27.14727,8.6652 -34.77159,-4.0154 -4.72095,-7.8518 -4.70173,-17.8767 -9.69519,-25.9846 -6.69935,-10.8778 -15.75788,-17.7048 -26.53321,-24 15.58441,-16.9172 48.04049,-16.0542 63.86569,-0.7407 7.2175,6.984 10.4492,17.146 12.3334,26.7407 1.675,8.5292 3.7056,18.3373 2.3889,27 -0.5556,3.6547 -0.4491,8.5003 -4.588,9 m -482.99999,-71 -1,1 1,-1 m 510.99999,2 c 21.6937,-6.2303 31.922,24.99 31.9992,41 0.03,6.1173 1.5791,19.8617 -7.9845,19.9938 -5.4043,0.075 -7.3257,-7.8356 -7.8302,-11.9938 -2.3871,-19.6728 -5.6099,-31.8647 -16.1845,-49 m -270.99999,17 c -3.24164,11.2526 -10.7746,20.4856 -13.84491,32 -2.63226,9.8716 -1.15078,22.8688 -5.58874,31.9599 -9.43585,19.3294 -26.40207,5.0534 -35.13117,-4.9992 -9.6951,-11.1653 -15.04684,-28.2037 -11.91742,-42.9607 3.99421,-18.8348 22.48313,-34.9126 42.48224,-28.0493 8.4346,2.8945 16.62958,7.082 24,12.0493 m -61,-4 c -4.1896,9.8952 -13.41153,16.8389 -17.65124,27 -3.33206,7.9859 -2.01981,16.6023 -2.38813,25 -0.21572,4.9187 -0.67883,13.116 -6.06558,15.2431 -11.17724,4.4137 -16.92294,-12.6508 -18.76388,-20.2431 -4.56198,-18.8143 1.51565,-54.5158 26.86883,-53.9452 6.81983,0.1535 12.25,3.7599 18,6.9452 m -47,-6 -1,1 1,-1 m 6,8 -18.21838,28 -7.78162,16 c -3.10757,-16.7394 -1.23797,-61.6776 26,-44 m 82,73 -1,1 z"
       id="path1" />
  </g>
</svg>
