<?xml version="1.0" encoding="UTF-8" standalone="no"?>
<!-- Created with Inkscape (http://www.inkscape.org/) -->

<svg
   version="1.1"
   id="svg1"
   width="512"
   height="512"
   viewBox="0 0 512 512"
   sodipodi:docname="tigreheader.svg"
   inkscape:version="1.4 (86a8ad7, 2024-10-11)"
   xmlns:inkscape="http://www.inkscape.org/namespaces/inkscape"
   xmlns:sodipodi="http://sodipodi.sourceforge.net/DTD/sodipodi-0.dtd"
   xmlns="http://www.w3.org/2000/svg"
   xmlns:svg="http://www.w3.org/2000/svg">
  <defs
     id="defs1" />
  <sodipodi:namedview
     id="namedview1"
     pagecolor="#505050"
     bordercolor="#eeeeee"
     borderopacity="1"
     inkscape:showpageshadow="0"
     inkscape:pageopacity="0"
     inkscape:pagecheckerboard="0"
     inkscape:deskcolor="#505050"
     inkscape:zoom="1.4355469"
     inkscape:cx="262.26939"
     inkscape:cy="256"
     inkscape:window-width="1920"
     inkscape:window-height="974"
     inkscape:window-x="-11"
     inkscape:window-y="-11"
     inkscape:window-maximized="1"
     inkscape:current-layer="g1" />
  <g
     inkscape:groupmode="layer"
     inkscape:label="Image"
     id="g1">
    <g
       id="g2"
       transform="translate(-13.931969,-11.145578)">
      <path
         style="fill:#b9b9b9;fill-opacity:1"
         d="m 253.75,434.99066 2.25,-2.4351 2.25,2.4351 2.25,2.4351 -2.25,-1.86787 c -2.19695,-1.82382 -2.30305,-1.82382 -4.5,0 l -2.25,1.86787 z M 285,378.5 c 1.29175,-1.375 2.57363,-2.5 2.84863,-2.5 0.275,0 -0.55688,1.125 -1.84863,2.5 -1.29175,1.375 -2.57363,2.5 -2.84863,2.5 -0.275,0 0.55688,-1.125 1.84863,-2.5 z M 33.924314,149.25 31.5,146.5 l 2.75,2.42431 C 36.820289,151.1902 37.458588,152 36.674314,152 c -0.179127,0 -1.416627,-1.2375 -2.75,-2.75 z M 478.5,148 c 2.14824,-2.2 4.1309,-4 4.4059,-4 0.275,0 -1.25766,1.8 -3.4059,4 -2.14824,2.2 -4.1309,4 -4.4059,4 -0.275,0 1.25766,-1.8 3.4059,-4 z"
         id="path7" />
      <path
         style="fill:#a3a3a3;fill-opacity:1"
         d="m 0.07894737,299.41667 c 0.04798392,-1.16495 0.2849403,-1.4019 0.60416667,-0.60417 0.28887061,0.72187 0.25334429,1.58438 -0.0789474,1.91667 -0.33229167,0.33229 -0.56864035,-0.25834 -0.52521927,-1.3125 z"
         id="path6" />
      <path
         style="fill:#8c8c8c;fill-opacity:1"
         d="m 410.07895,387.41667 c 0.048,-1.16495 0.28494,-1.4019 0.60416,-0.60417 0.28887,0.72187 0.25335,1.58438 -0.0789,1.91667 -0.33229,0.33229 -0.56864,-0.25834 -0.52522,-1.3125 z M 0.15789474,303 c 0,-1.375 0.22697368,-1.9375 0.50438596,-1.25 0.27741228,0.6875 0.27741228,1.8125 0,2.5 -0.27741228,0.6875 -0.50438596,0.125 -0.50438596,-1.25 z M 504.87244,301.25 c -1.24387,-1.58606 -1.2085,-1.62143 0.37756,-0.37756 1.66575,1.30637 2.19548,2.12756 1.37244,2.12756 -0.20765,0 -0.99515,-0.7875 -1.75,-1.75 z M 242.8125,143.31689 c 0.72187,-0.28887 1.58437,-0.25335 1.91667,0.0789 0.33229,0.33229 -0.25834,0.56864 -1.3125,0.52522 -1.16495,-0.048 -1.4019,-0.28494 -0.60417,-0.60416 z m 25,0 c 0.72187,-0.28887 1.58438,-0.25335 1.91667,0.0789 0.33229,0.33229 -0.25834,0.56864 -1.3125,0.52522 -1.16495,-0.048 -1.4019,-0.28494 -0.60417,-0.60416 z m -25,-40 c 0.72187,-0.28887 1.58437,-0.25335 1.91667,0.0789 0.33229,0.3323 -0.25834,0.56864 -1.3125,0.52522 -1.16495,-0.048 -1.4019,-0.28494 -0.60417,-0.60416 z M 0.07894737,81.416667 c 0.04798392,-1.164943 0.2849403,-1.4019 0.60416667,-0.604167 0.28887061,0.721875 0.25334429,1.584375 -0.0789474,1.916667 -0.33229167,0.332291 -0.56864035,-0.258334 -0.52521927,-1.3125 z m 511.00000263,0 c 0.048,-1.164943 0.28494,-1.4019 0.60416,-0.604167 0.28887,0.721875 0.25335,1.584375 -0.0789,1.916667 -0.33229,0.332291 -0.56864,-0.258334 -0.52522,-1.3125 z M 241.8125,75.316886 c 0.72187,-0.288871 1.58437,-0.253344 1.91667,0.07895 0.33229,0.332292 -0.25834,0.568641 -1.3125,0.52522 -1.16495,-0.04798 -1.4019,-0.284941 -0.60417,-0.604167 z m -46,-3 c 0.72187,-0.288871 1.58437,-0.253344 1.91667,0.07895 0.33229,0.332292 -0.25834,0.568641 -1.3125,0.52522 -1.16495,-0.04798 -1.4019,-0.284941 -0.60417,-0.604167 z m 117,0 c 0.72187,-0.288871 1.58438,-0.253344 1.91667,0.07895 0.33229,0.332292 -0.25834,0.568641 -1.3125,0.52522 -1.16495,-0.04798 -1.4019,-0.284941 -0.60417,-0.604167 z M 195.75,32.337719 c 0.6875,-0.277412 1.8125,-0.277412 2.5,0 0.6875,0.277413 0.125,0.504386 -1.25,0.504386 -1.375,0 -1.9375,-0.226973 -1.25,-0.504386 z m 116,0 c 0.6875,-0.277412 1.8125,-0.277412 2.5,0 0.6875,0.277413 0.125,0.504386 -1.25,0.504386 -1.375,0 -1.9375,-0.226973 -1.25,-0.504386 z"
         id="path5" />
      <path
         style="fill:#606060;fill-opacity:1"
         d="m 250.8125,511.31689 c 0.72187,-0.28887 1.58437,-0.25335 1.91667,0.0789 0.33229,0.33229 -0.25834,0.56864 -1.3125,0.52522 -1.16495,-0.048 -1.4019,-0.28494 -0.60417,-0.60416 z m 9,0 c 0.72187,-0.28887 1.58438,-0.25335 1.91667,0.0789 0.33229,0.33229 -0.25834,0.56864 -1.3125,0.52522 -1.16495,-0.048 -1.4019,-0.28494 -0.60417,-0.60416 z M 321.5,484 c 0.99549,-1.1 2.03498,-2 2.30998,-2 0.275,0 -0.31449,0.9 -1.30998,2 -0.99549,1.1 -2.03498,2 -2.30998,2 -0.275,0 0.31449,-0.9 1.30998,-2 z M 0.19494872,307.5 c 0.0203797,-1.65 0.24449859,-2.20394 0.498042,-1.23097 0.25354341,0.97297 0.23686912,2.32297 -0.037054,3 C 0.38201364,309.94606 0.17456903,309.15 0.19494872,307.5 Z M 245.8125,103.31689 c 0.72187,-0.28887 1.58437,-0.25335 1.91667,0.0789 0.33229,0.3323 -0.25834,0.56864 -1.3125,0.52522 -1.16495,-0.048 -1.4019,-0.28494 -0.60417,-0.60416 z m 19,0 c 0.72187,-0.28887 1.58438,-0.25335 1.91667,0.0789 0.33229,0.3323 -0.25834,0.56864 -1.3125,0.52522 -1.16495,-0.048 -1.4019,-0.28494 -0.60417,-0.60416 z M 0.07894737,78.416667 c 0.04798392,-1.164943 0.2849403,-1.4019 0.60416667,-0.604167 0.28887061,0.721875 0.25334429,1.584375 -0.0789474,1.916667 -0.33229167,0.332291 -0.56864035,-0.258334 -0.52521927,-1.3125 z m 511.00000263,0 c 0.048,-1.164943 0.28494,-1.4019 0.60416,-0.604167 0.28887,0.721875 0.25335,1.584375 -0.0789,1.916667 -0.33229,0.332291 -0.56864,-0.258334 -0.52522,-1.3125 z M 210.8125,32.316886 c 0.72187,-0.288871 1.58437,-0.253344 1.91667,0.07895 0.33229,0.332292 -0.25834,0.568641 -1.3125,0.52522 -1.16495,-0.04798 -1.4019,-0.284941 -0.60417,-0.604167 z"
         id="path4" />
      <path
         style="fill:#494949;fill-opacity:1"
         d="m 198.87244,357.25 c -1.24387,-1.58606 -1.2085,-1.62143 0.37756,-0.37756 1.66575,1.30637 2.19548,2.12756 1.37244,2.12756 -0.20765,0 -0.99515,-0.7875 -1.75,-1.75 z M 511.15789,316 c 0,-1.375 0.22698,-1.9375 0.50439,-1.25 0.27741,0.6875 0.27741,1.8125 0,2.5 -0.27741,0.6875 -0.50439,0.125 -0.50439,-1.25 z M 0.2521834,313.5 c 0.0110994,-2.2 0.21588425,-2.98225 0.45507747,-1.73834 0.23919321,1.24391 0.2301119,3.04391 -0.0201807,4 C 0.43678756,316.71775 0.24108402,315.7 0.2521834,313.5 Z M 500.15789,223 c 0,-1.375 0.22698,-1.9375 0.50439,-1.25 0.27741,0.6875 0.27741,1.8125 0,2.5 -0.27741,0.6875 -0.50439,0.125 -0.50439,-1.25 z M 433,134.62244 c 0,-0.20765 0.7875,-0.99515 1.75,-1.75 1.58606,-1.24387 1.62143,-1.2085 0.37756,0.37756 C 433.82119,134.91575 433,135.44548 433,134.62244 Z M 248.8125,103.31689 c 0.72187,-0.28887 1.58437,-0.25335 1.91667,0.0789 0.33229,0.3323 -0.25834,0.56864 -1.3125,0.52522 -1.16495,-0.048 -1.4019,-0.28494 -0.60417,-0.60416 z m 13,0 c 0.72187,-0.28887 1.58438,-0.25335 1.91667,0.0789 0.33229,0.3323 -0.25834,0.56864 -1.3125,0.52522 -1.16495,-0.048 -1.4019,-0.28494 -0.60417,-0.60416 z M 0.15789474,75 c 0,-1.375 0.22697368,-1.9375 0.50438596,-1.25 0.27741228,0.6875 0.27741228,1.8125 0,2.5 C 0.38486842,76.9375 0.15789474,76.375 0.15789474,75 Z M 511.07895,75.416667 c 0.048,-1.164943 0.28494,-1.4019 0.60416,-0.604167 0.28887,0.721875 0.25335,1.584375 -0.0789,1.916667 -0.33229,0.332291 -0.56864,-0.258334 -0.52522,-1.3125 z M 201.8125,32.316886 c 0.72187,-0.288871 1.58437,-0.253344 1.91667,0.07895 0.33229,0.332292 -0.25834,0.568641 -1.3125,0.52522 -1.16495,-0.04798 -1.4019,-0.284941 -0.60417,-0.604167 z m 98,0 c 0.72187,-0.288871 1.58438,-0.253344 1.91667,0.07895 0.33229,0.332292 -0.25834,0.568641 -1.3125,0.52522 -1.16495,-0.04798 -1.4019,-0.284941 -0.60417,-0.604167 z m 7,0 c 0.72187,-0.288871 1.58438,-0.253344 1.91667,0.07895 0.33229,0.332292 -0.25834,0.568641 -1.3125,0.52522 -1.16495,-0.04798 -1.4019,-0.284941 -0.60417,-0.604167 z m -280,-32.00000004 c 0.721875,-0.28887061 1.584375,-0.25334429 1.916667,0.0789474 0.332291,0.33229167 -0.258334,0.56864035 -1.3125,0.5252193 -1.164943,-0.0479839 -1.4019,-0.2849403 -0.604167,-0.6041667 z m 457,0 c 0.72187,-0.28887061 1.58438,-0.25334429 1.91667,0.0789474 0.33229,0.33229167 -0.25834,0.56864035 -1.3125,0.5252193 -1.16495,-0.0479839 -1.4019,-0.2849403 -0.60417,-0.6041667 z"
         id="path3" />
      <path
         style="fill:#333333;fill-opacity:1"
         d="M 246.47702,510.83201 C 231.17147,509.60866 214.1327,503.14217 201.5,493.76249 c -12.76769,-9.47991 -25.22148,-24.3499 -32.17258,-38.41451 -2.09856,-4.24614 -4.86051,-8.2706 -6.28548,-9.15862 -1.39807,-0.87125 -5.39219,-3.78253 -8.87582,-6.46951 -3.48363,-2.68699 -6.52083,-4.69847 -6.74933,-4.46998 -1.26979,1.2698 -3.4066,22.06585 -3.41647,33.25013 -0.0135,15.31785 -0.93092,19.31054 -5.63283,24.515 -4.2775,4.73467 -8.79033,6.33946 -16.29974,5.79628 -4.87128,-0.35235 -6.74143,-1.12759 -12.6001,-5.22309 -27.26596,-19.06026 -41.974036,-42.80046 -46.991187,-75.84813 -0.671878,-4.42561 -0.903215,-4.35629 -9.86368,2.95576 -3.237969,2.6423 -7.588542,6.09535 -9.66794,7.67345 -11.54942,8.76509 -27.904359,2.43987 -31.019221,-11.99659 C 11.228711,413.14271 10.668038,405.1 10.679682,398.5 c 0.02693,-15.26349 2.858006,-30.26637 8.9244,-47.29355 2.489861,-6.98855 4.752375,-13.40741 5.027811,-14.26414 0.407016,-1.26601 -0.413883,-1.55769 -4.383899,-1.55769 -6.0734,0 -11.614873,-2.7552 -15.6947083,-7.80334 L 1.5,323.80332 1.5355359,303.15166 C 1.6171977,255.69401 13.131447,202.08056 31.623295,163.05494 l 5.423112,-11.44506 -4.89222,-5.05494 C 16.344858,130.21977 6.4589652,112.40968 2.3458698,92.853266 0.91436259,86.046921 0.58077271,79.222155 0.54450747,56 0.5027891,29.285976 0.63875671,27.061339 2.7142326,20.5 3.9320605,16.65 6.293853,11.853104 7.9626604,9.8402311 12.127446,4.8167732 20.075333,1 26.371184,1 31.664652,1 63.042284,9.3070033 126.7523,27.575182 l 36.25231,10.394968 6.24769,-1.425667 c 17.51407,-3.996548 39.70541,-4.770836 60.71784,-2.118532 15.83405,1.99866 32.98681,2.002051 49.53599,0.0098 22.0755,-2.657538 41.90244,-1.967767 61.49387,2.139347 l 7.5,1.572287 47.5,-13.50496 C 488.35819,-1.6163962 486.24948,-1.1715991 495.80523,3.5902311 502.6382,6.995243 506.5767,11.935632 509.28577,20.5 c 2.07411,6.557027 2.21213,8.803534 2.18107,35.5 -0.0272,23.345469 -0.35296,30.010778 -1.80136,36.853266 -4.11613,19.445234 -14.04721,37.460404 -29.33144,53.207794 l -5.3975,5.56106 5.44638,11.43894 c 6.58474,13.82979 11.54723,27.06204 16.16222,43.09576 5.16559,17.94667 4.51489,25.07124 -2.88305,31.56672 -6.8029,5.97302 -15.74144,6.55907 -23.48257,1.53963 -5.18104,-3.35945 -7.23016,-7.25947 -11.17195,-21.26317 -5.91738,-21.02226 -13.54838,-38.88342 -23.87456,-55.88094 -9.37291,-15.42837 -8.20982,-22.3874 5.58068,-33.39062 10.42011,-8.31403 19.5509,-18.74328 24.1512,-27.58563 C 471.18067,89.003088 472,84.500363 472,61.931027 V 42.282251 l -10.75,2.904714 c -13.04191,3.524001 -49.24137,14.171329 -54.66364,16.078186 l -3.91365,1.376316 7.41365,5.587729 c 9.99811,7.53567 11.96101,9.82398 13.49298,15.729885 3.53281,13.619312 -8.0919,26.819609 -21.60752,24.536159 -3.86307,-0.65266 -4.93734,-1.28333 -20.6422,-12.118216 C 352.25309,76.316928 321.39454,68.998737 285,73.532192 c -19.01035,2.368009 -39.64295,2.391346 -59,0.06674 -37.67563,-4.52451 -68.05908,2.584858 -97.32023,22.771781 -15.7165,10.842627 -16.78817,11.471807 -20.65159,12.124527 -9.037492,1.52688 -18.826107,-4.70833 -21.493729,-13.691181 -2.325147,-7.829618 -0.608319,-14.038007 5.534583,-20.014147 2.662839,-2.590551 7.352449,-6.377252 10.421356,-8.414891 3.0689,-2.037639 5.22653,-4.01792 4.79472,-4.400625 C 106.49732,61.276186 70.65483,50.558249 51,45.14352 l -10.5,-2.892656 -0.272411,19.10813 c -0.319737,22.427872 0.371075,26.638401 6.320314,38.522583 4.933346,9.854833 16.201466,22.778953 25.82335,29.618423 3.910795,2.77989 6.390063,5.50877 8.128007,8.94634 4.167781,8.24368 3.327859,12.64126 -4.951598,25.9251 -11.854214,19.01931 -22.147359,47.63358 -28.488578,79.19639 -1.987989,9.89502 -6.238952,40.58564 -5.696641,41.12795 0.152279,0.15228 3.845525,-0.41821 8.207214,-1.26775 C 53.931346,282.57849 61.1,281.79714 65.5,281.69171 c 7.108049,-0.17034 8.518817,0.11328 12.653326,2.54379 3.454738,2.0309 5.32217,4.07769 7.25,7.94634 4.483469,8.99715 3.482382,12.99761 -7.336666,29.31816 -4.010604,6.05 -9.899758,16.4 -13.08701,23 -6.098754,12.62899 -11.440345,26.49748 -10.208152,26.50365 0.400676,0.002 5.453502,-2.34831 11.228502,-5.22291 8.818564,-4.38958 11.382992,-5.22821 16.013989,-5.23697 7.787666,-0.0147 13.927105,3.69028 17.286726,10.43216 2.430485,4.87735 2.480735,5.41939 1.971075,21.2645 -0.55258,17.17952 0.72273,28.12693 4.23202,36.32819 l 1.68223,3.93138 3.30705,-13.02895 c 5.69133,-22.4224 15.93888,-45.907 22.70024,-52.02276 9.65727,-8.73518 24.27256,-5.92805 30.44044,5.84664 0.80523,1.53721 1.86677,6.32584 2.35897,10.64139 1.54224,13.52221 7.73621,22.92843 19.18633,29.13655 5.93729,3.21913 6.89751,3.42706 15.82093,3.42604 8.51636,-9.7e-4 10.09822,-0.30391 15.27756,-2.92575 9.40936,-4.76314 16.84408,-14.05852 19.15124,-23.94416 0.60953,-2.61173 -0.0544,-3.56494 -7.35147,-10.55493 -7.7814,-7.4539 -13.27984,-11.75566 -23.49685,-18.38299 -9.43929,-6.12285 -9.03729,-4.3668 -9.39175,-41.02545 l -0.31128,-32.19164 -19.18872,-10.39404 c -10.5538,-5.71673 -21.33752,-11.72753 -23.96382,-13.35734 -9.50328,-5.8975 -16.24564,-16.80273 -19.15404,-30.98016 -1.41239,-6.88493 -1.42557,-8.15444 -0.11713,-11.28599 1.63453,-3.91198 7.23296,-7.00289 10.98044,-6.06234 1.18257,0.29681 20.13116,10.25468 42.10797,22.1286 42.20265,22.8018 46.28672,25.59661 48.37032,33.1007 0.65246,2.34984 1.07857,15.14905 1.08195,32.49877 l 0.006,28.62219 4.25,0.66204 c 2.3375,0.36412 6.99492,1.34224 10.34981,2.17361 5.67493,1.40627 6.65012,1.37496 14,-0.4495 4.34511,-1.07858 9.13769,-2.23277 10.65019,-2.56485 l 2.75,-0.60378 0.006,-28.23095 c 0.003,-17.07036 0.4311,-29.76349 1.08195,-32.10753 2.06737,-7.44563 6.26729,-10.34979 47.88189,-33.10923 21.70818,-11.87242 40.43176,-21.82776 41.60797,-22.12297 3.73716,-0.93797 9.33636,2.15812 10.96887,6.06524 1.30844,3.13155 1.29526,4.40106 -0.11713,11.28599 -2.13199,10.3927 -6.21258,18.62992 -12.62399,25.48318 -4.4835,4.79249 -8.66404,7.49059 -26.99288,17.42106 l -21.68774,11.75031 -0.31226,31.5515 c -0.38315,38.71448 0.75573,35.23074 -14.81226,45.30935 -3.575,2.31443 -10.88493,8.49073 -16.24428,13.7251 l -9.74428,9.51705 1.08161,4 c 2.47114,9.13883 9.46714,17.34687 18.90695,22.18255 4.89251,2.50625 6.54931,2.81745 15,2.81745 8.92241,0 9.8843,-0.20836 15.82093,-3.42713 11.45012,-6.20812 17.64409,-15.61434 19.18633,-29.13655 0.4922,-4.31555 1.55374,-9.10418 2.35897,-10.64139 6.16788,-11.77469 20.78317,-14.58182 30.44044,-5.84664 6.74383,6.09991 16.89932,29.401 22.68608,52.05171 l 3.32121,13 1.68223,-3.93138 c 3.50929,-8.20126 4.7846,-19.14867 4.23202,-36.32819 -0.50966,-15.84511 -0.45941,-16.38715 1.97108,-21.2645 3.35962,-6.74188 9.49905,-10.4469 17.28672,-10.43216 4.631,0.009 7.19543,0.84739 16.01399,5.23697 5.775,2.8746 10.82783,5.22491 11.2285,5.22291 1.2322,-0.006 -4.1094,-13.87466 -10.20815,-26.50365 -3.18725,-6.6 -9.07641,-16.95 -13.08701,-23 -10.75186,-16.2192 -11.81394,-20.36089 -7.45041,-29.05366 4.69832,-9.35971 11.75061,-12.14947 26.31798,-10.41092 21.05557,2.51288 41.19265,9.92536 51.41982,18.92767 5.52399,4.86242 7.15849,9.11753 6.5791,17.12753 -0.33696,4.65842 -1.04599,6.64565 -3.41582,9.57364 -4.02309,4.97066 -9.5906,7.72036 -15.632,7.72036 -3.97002,0 -4.79092,0.29168 -4.3839,1.55769 0.27543,0.85673 2.53795,7.27559 5.02781,14.26414 6.06639,17.02718 8.89747,32.03006 8.9244,47.29355 0.0116,6.6 -0.54903,14.64271 -1.24594,17.87268 -3.11486,14.43646 -19.4698,20.76168 -31.01922,11.99659 -2.0794,-1.5781 -6.42997,-5.03115 -9.66794,-7.67345 -8.96047,-7.31205 -9.19181,-7.38137 -9.86368,-2.95576 -5.01295,33.01999 -19.72972,56.79101 -46.93269,75.80724 -5.22936,3.65558 -7.94819,4.87671 -11.64989,5.2324 -7.03797,0.67625 -11.52272,-0.47358 -15.51342,-3.97747 -6.29689,-5.52873 -6.75211,-7.27163 -7.52275,-28.80223 -0.57995,-16.20291 -2.03708,-29.26649 -3.43914,-30.83279 -0.16384,-0.18303 -3.14814,1.86565 -6.63177,4.55264 -3.48363,2.68698 -7.57073,5.65918 -9.08244,6.6049 -1.60074,1.0014 -4.26748,4.7379 -6.38572,8.94736 -5.05426,10.04401 -10.41186,17.67926 -18.19404,25.92878 -21.2873,22.56566 -46.37685,32.13429 -77.69466,29.63112 z m 20.72376,-39.93709 c 2.91457,-0.6078 7.99922,-2.38717 11.29922,-3.95416 6.23543,-2.96087 15.15437,-9.7217 15.05635,-11.41317 -0.031,-0.53483 -3.20635,-2.03111 -7.05635,-3.32508 -8.98913,-3.0212 -16.36525,-7.26272 -24.22437,-13.92982 L 256,432.94891 l -6.27563,5.32378 c -7.92779,6.72535 -15.24364,10.91139 -24.51725,14.02845 -4.01108,1.34821 -7.54232,2.70073 -7.84719,3.0056 -0.81503,0.81503 11.41051,9.64033 16.64007,12.01203 9.79965,4.44431 22.4853,5.81072 33.20078,3.57615 z M 212.76404,222.00429 c -8.11778,-2.4443 -14.79107,-11.02268 -14.74208,-18.95063 0.0516,-8.35162 6.52553,-16.24406 16.33502,-19.91426 16.28941,-6.09465 35.7923,-8.81393 51.58838,-7.19295 12.55359,1.28825 17.24041,2.30652 29.05464,6.31253 15.14488,5.13538 19.97455,11.24688 18.77267,23.75505 -0.79514,8.27525 -7.6719,15.26861 -16.2401,16.51546 -2.98157,0.43388 -6.37827,-0.19125 -13.03281,-2.39857 -19.93991,-6.61409 -35.55011,-6.82969 -53.88902,-0.7443 -11.24148,3.73026 -13.1984,4.01729 -17.8467,2.61767 z m -55.12678,-61.4691 c -4.2783,-1.52517 -9.13268,-5.69788 -11.09289,-9.53519 -3.68342,-7.21066 -2.05586,-17.17344 3.72009,-22.7717 8.23584,-7.9825 48.06984,-19.70386 79.23554,-23.31546 12.84307,-1.48831 40.15693,-1.48831 53,0 31.1657,3.6116 70.9997,15.33296 79.23554,23.31546 5.80563,5.62703 7.39843,15.52208 3.68189,22.87326 -2.04216,4.03933 -7.95694,8.69708 -12.6543,9.96495 -5.06202,1.3663 -7.47142,0.85442 -23.76313,-5.04851 -39.53269,-14.32377 -81.44928,-16.85915 -121.46568,-7.347 -9.98401,2.37326 -20.12608,5.56325 -35.75934,11.24742 -6.63109,2.41102 -8.8349,2.50717 -14.13772,0.61677 z"
         id="path2" />
    </g>
  </g>
</svg>
