<?xml version="1.0" encoding="UTF-8" standalone="no"?>
<!-- Created with Inkscape (http://www.inkscape.org/) -->

<svg
   width="210mm"
   height="297mm"
   viewBox="0 0 210 297"
   version="1.1"
   id="svg1"
   xml:space="preserve"
   inkscape:version="1.4 (86a8ad7, 2024-10-11)"
   sodipodi:docname="tigreheader.svg"
   xmlns:inkscape="http://www.inkscape.org/namespaces/inkscape"
   xmlns:sodipodi="http://sodipodi.sourceforge.net/DTD/sodipodi-0.dtd"
   xmlns="http://www.w3.org/2000/svg"
   xmlns:svg="http://www.w3.org/2000/svg"><sodipodi:namedview
     id="namedview1"
     pagecolor="#505050"
     bordercolor="#eeeeee"
     borderopacity="1"
     inkscape:showpageshadow="0"
     inkscape:pageopacity="0"
     inkscape:pagecheckerboard="0"
     inkscape:deskcolor="#505050"
     inkscape:document-units="mm"
     inkscape:zoom="0.35355339"
     inkscape:cx="401.63665"
     inkscape:cy="700.03571"
     inkscape:window-width="1920"
     inkscape:window-height="974"
     inkscape:window-x="-11"
     inkscape:window-y="-11"
     inkscape:window-maximized="1"
     inkscape:current-layer="layer1" /><defs
     id="defs1" /><g
     inkscape:label="Capa 1"
     inkscape:groupmode="layer"
     id="layer1"><path
       id="path4316"
       style="opacity:1;fill:#050505;stroke-width:2.1651"
       d="m 111.36919,39.835821 c -2.23912,0.05065 -4.38067,0.174431 -6.27942,0.377333 -6.064499,0.648026 -8.832108,1.238785 -16.17773,3.448865 -1.613404,0.485408 -5.784059,1.046674 -9.268077,1.247359 -3.484031,0.200683 -8.159985,0.800181 -10.392074,1.33268 -8.089056,1.92975 -16.950233,7.794676 -20.491439,13.562326 -2.941256,4.790536 -4.250213,6.098714 -6.523181,6.517995 -10.030702,1.850287 -17.261316,15.577974 -14.475583,27.483949 0.93593,4.000113 0.520608,5.343963 -2.318827,7.510592 -1.042224,0.79525 -2.335882,2.59103 -2.929281,4.06533 -1.247031,3.09822 -2.454855,3.63102 -5.213759,2.30123 -4.210864,-2.02967 -15.0227383,-1.9587 -15.7099955,0.11788 -0.529316,1.59119 0.5373403,2.72778 3.6011777,3.83942 1.6052434,0.58242 4.7905351,2.10778 7.0794468,3.38877 3.447894,1.92955 4.134021,2.55217 4.00017,3.63392 -0.144535,1.16802 -0.611441,1.34693 -4.428312,1.6908 -6.5728294,0.59214 -11.71419911,3.47179 -11.35566411,6.36056 0.1356657,1.09293 0.53036481,1.24787 3.08867251,1.21252 1.6134085,-0.0233 5.2682659,-0.27066 8.1211666,-0.55158 4.486246,-0.44181 5.229986,-0.38001 5.507506,0.45423 0.552215,1.66008 -0.67756,3.29332 -3.814733,5.06394 -3.7009407,2.08878 -6.7336327,5.57704 -7.5649,8.70147 -0.9414725,3.53878 -0.020154,3.84141 2.8428213,0.93493 2.8436287,-2.88747 7.5031557,-5.18605 8.8462007,-4.36334 1.484376,0.90926 1.521346,2.17287 0.233332,8.08019 -1.799388,8.25261 -2.212372,19.04845 -1.10421,28.87912 1.133056,10.0515 2.353419,14.92009 3.801207,15.16537 0.883699,0.14976 1.434121,-0.74746 3.090729,-5.03628 1.108746,-2.87045 2.439353,-5.661 2.956374,-6.20075 0.887225,-0.92625 0.954978,-0.74626 1.209435,3.1917 0.510811,7.90513 5.477148,21.09212 7.94301,21.09212 1.105763,0 2.600116,-3.15178 2.600116,-5.4821 0,-2.37548 1.040228,-1.89062 2.813653,1.31105 7.450804,13.45121 7.879207,14.67094 8.896173,25.33893 0.319529,3.35172 1.028193,7.2279 1.575067,8.61373 1.899777,4.81416 7.451126,9.97224 13.536993,12.57934 3.868657,1.65733 5.198701,1.67788 5.558571,0.0925 0.312452,-1.37834 0.634881,-1.47032 2.395929,-0.68255 4.014155,1.79561 5.75855,2.77659 5.75855,3.23737 0,0.28701 0.302462,0.52152 0.671901,0.52152 0.369464,0 0.981301,0.57173 1.359435,1.27019 1.061432,1.96067 2.258413,1.18268 3.375138,-2.19307 1.301364,-3.93388 1.96685,-4.80432 7.078398,-9.25185 2.319598,-2.0183 4.785931,-4.18141 5.48044,-4.808 1.022274,-0.92229 1.414364,-0.99391 2.058404,-0.37732 0.66282,0.63459 1.326189,0.1758 3.979329,-2.74347 2.17888,-2.39749 4.59109,-4.25251 7.6378,-5.87629 2.44907,-1.30525 6.2318,-4.01976 8.4066,-6.03131 5.15072,-4.76404 6.6499,-5.59607 11.27231,-6.26563 4.34559,-0.62945 5.47221,-1.63057 4.64914,-4.12784 -0.73606,-2.23333 -0.72537,-2.2417 2.17613,-1.79771 2.95904,0.45283 3.27574,0.0474 3.68454,-4.71187 0.1661,-1.93476 8.20996,2.10386 10.40144,5.22259 0.77535,1.1034 1.9991,2.83744 2.71887,3.85264 l 1.30838,1.8458 1.05422,-1.53817 c 0.57976,-0.84601 1.35231,-2.36879 1.71673,-3.38399 0.73415,-2.04499 2.53179,-4.55651 1.91466,-2.67497 -0.18344,0.55932 -0.0248,1.5035 0.35209,2.09816 0.64748,1.02149 0.82868,1.00112 3.29598,-0.36652 1.43631,-0.79615 4.52591,-3.60922 6.86484,-6.25121 2.33892,-2.64201 4.31895,-4.80318 4.40019,-4.80318 0.0811,0 0.15017,1.03828 0.15421,2.30726 0.0125,3.67733 0.51226,5.07595 1.81569,5.07595 2.74665,0 12.62991,-12.79009 16.40274,-21.22673 2.51417,-5.62202 4.47126,-12.02319 5.76168,-18.84376 0.57279,-3.02742 1.18769,-5.77609 1.36569,-6.10822 0.18908,-0.35286 0.99154,-0.0546 1.93132,0.7174 1.50028,1.23239 1.66768,1.25132 2.49594,0.29563 0.76216,-0.8793 0.88077,-2.48107 0.83441,-11.30793 -0.0496,-9.45971 -0.18384,-10.8251 -1.67715,-17.05085 -3.41222,-14.22629 -8.22033,-25.06645 -16.10064,-36.300808 -1.18684,-1.691973 -2.15867,-3.353216 -2.15948,-3.691605 -8e-4,-0.338402 2.00924,-2.75165 4.46686,-5.361951 4.55185,-4.834695 8.46353,-10.940576 10.1202,-15.797506 1.61226,-4.725984 1.05768,-13.701481 -0.90005,-14.568118 -0.39556,-0.175103 -2.49856,0.09659 -4.67414,0.604451 -2.17558,0.507855 -6.02259,1.108823 -8.54825,1.335089 l -4.59187,0.410975 -0.3427,-1.574227 c -0.45616,-2.096618 -1.70515,-2.452195 -5.75649,-1.637903 -6.50263,1.307007 -7.81336,1.346938 -12.00776,0.366518 -2.32328,-0.543057 -7.9345,-2.668866 -12.46822,-4.723864 -10.35628,-4.694154 -15.1112,-6.472234 -20.51019,-7.670407 -4.56361,-1.012761 -12.16049,-1.520694 -18.87783,-1.36873 z m -0.6292,3.565429 c 1.30814,-0.02766 2.1978,0.130321 2.40741,0.521535 0.16328,0.304815 -0.9628,0.884502 -2.50219,1.288218 -4.01932,1.054066 -8.74177,2.980897 -12.186959,4.97141 -1.64321,0.949378 -5.003314,2.192272 -7.466943,2.762697 -6.671566,1.544732 -9.770786,3.069367 -12.201543,6.001269 -2.858081,3.447318 -2.810187,4.604255 0.121946,2.643714 1.246706,-0.835146 3.741551,-1.953589 5.543966,-2.486294 3.414537,-1.009138 8.196718,-1.305482 8.182605,-0.507123 -0.0037,0.253799 -1.221445,1.234415 -2.705317,2.178677 -1.483873,0.944262 -4.186861,3.06584 -6.006478,4.715456 -2.648218,2.401067 -3.498455,2.877731 -4.257475,2.387735 -2.197639,-1.41808 -6.252974,4.48995 -7.403406,10.786421 -0.706492,3.866558 -1.226801,4.444045 -3.427217,3.80698 -1.351552,-0.391328 -1.392876,-0.531228 -1.104209,-3.7577 0.164894,-1.843309 0.182231,-3.351535 0.03749,-3.351535 -1.048653,0 -2.489547,1.67417 -3.19805,3.716835 -0.679617,1.959374 -1.234796,2.56182 -2.893862,3.135227 -1.724259,0.595941 -2.269259,0.545104 -3.402215,-0.311236 -1.39203,-1.052184 -1.611716,-1.728596 -2.169879,-6.694628 -0.180618,-1.607409 -0.565943,-2.922539 -0.856283,-2.922539 -1.09407,0 -2.044373,4.101319 -1.708415,7.373602 0.246435,2.400254 0.141714,3.343148 -0.417719,3.751697 -0.410927,0.300206 -0.987958,0.511988 -1.281301,0.471054 -2.228599,-0.310748 -3.132094,-0.886731 -4.407468,-2.809548 -0.802481,-1.209863 -2.253475,-3.249263 -3.224075,-4.531589 -1.71408,-2.264663 -1.740346,-2.383588 -0.940667,-4.167482 0.928572,-2.071417 2.999432,-3.929333 5.372082,-4.818814 1.256809,-0.471175 1.611937,-0.974531 1.655277,-2.346882 0.112891,-3.579385 4.117713,-5.062775 6.619013,-2.451457 0.482368,0.503573 1.038514,0.915685 1.235461,0.915685 0.675404,0 0.357588,-3.502614 -0.496881,-5.47852 -0.799296,-1.848199 -0.785045,-2.057501 0.132237,-3.23376 1.310129,-1.670027 3.569408,-2.977802 5.146027,-2.977802 1.566985,0 3.042833,1.76945 3.042833,3.648347 0,1.28005 0.190899,1.372485 2.266758,1.105558 3.27756,-0.421531 20.49936,-6.531653 26.479182,-9.394851 4.400006,-2.106796 12.091865,-3.857315 16.016255,-3.940357 z m 14.44017,4.602491 c 8.30493,-0.01814 9.76419,0.13685 13.23908,1.403579 8.30261,3.026607 18.0375,8.645826 16.66835,9.621969 -0.33861,0.241429 -2.28705,0.09444 -4.33038,-0.326858 -2.04332,-0.421299 -3.8934,-0.559316 -4.1116,-0.307631 -0.21819,0.251699 0.38333,1.261094 1.33649,2.243552 2.13981,2.205464 2.16277,2.749198 0.13225,3.957192 -2.47565,1.476831 -1.91369,2.153405 1.78757,2.153405 3.99723,0 6.57686,-0.898003 8.16804,-2.844384 0.63502,-0.776789 1.71506,-1.544796 2.40011,-1.706404 0.68501,-0.161647 1.95246,-0.469089 2.81677,-0.682564 0.8643,-0.213569 2.37424,-1.370398 3.35532,-2.570424 1.92639,-2.356258 4.15296,-3.232637 8.27326,-3.256592 2.81974,-0.01626 2.77397,-0.06666 1.91466,2.108977 -0.76825,1.945067 -4.02005,4.170666 -8.04824,5.507367 -1.68673,0.559695 -3.0668,1.249088 -3.0668,1.532155 0,0.837233 -2.82499,4.180462 -4.26681,5.049523 -0.74574,0.449496 -4.03658,0.95204 -7.46697,1.140407 l -6.13358,0.336465 v 1.845802 c 0,1.799964 -0.0795,1.855775 -3.20013,2.257983 -3.84298,0.495267 -6.13442,1.428296 -6.12836,2.494709 0.002,0.431393 2.07352,1.875733 4.60225,3.209737 5.10976,2.695556 9.66229,7.022097 11.12129,10.568895 1.21455,2.952539 0.47105,3.458157 -3.2741,2.229149 -1.58184,-0.518843 -3.04521,-0.749499 -3.25116,-0.511919 -0.38851,0.448182 -0.1647,0.917962 3.24388,6.790759 1.69439,2.91929 4.28526,9.77235 5.53564,14.64507 0.34884,1.3594 1.00192,1.38197 1.44484,0.0504 0.48896,-1.46985 1.44246,-0.20067 2.28239,3.0379 0.83972,3.23831 0.94808,17.67693 0.12598,17.67693 -0.31056,0 -1.45059,-0.82021 -2.53343,-1.82296 -1.30996,-1.21305 -3.21821,-2.1356 -5.70231,-2.75669 -5.23318,-1.30845 -6.13359,-1.64069 -6.13359,-2.26038 0,-0.29894 0.26972,-0.54318 0.59899,-0.54318 1.03136,0 -0.63967,-1.84518 -2.84803,-3.14482 -1.12951,-0.66473 -4.22854,-1.86018 -6.88778,-2.65697 -4.1551,-1.24495 -5.05324,-1.75382 -6.38463,-3.61709 -0.85208,-1.19248 -3.10801,-3.1736 -5.01373,-4.40303 -2.40011,-1.54834 -3.46578,-2.60023 -3.46578,-3.42362 0,-1.38877 -0.73041,-1.623 -6.66692,-2.13299 -7.82041,-0.67182 -12.53385,-1.61877 -12.53385,-2.51876 0,-1.0622 -2.0336,-0.67713 -7.466967,1.41439 -5.208259,2.00488 -9.533471,4.5 -13.584907,7.83505 -5.316441,4.37638 -6.243869,6.40293 -1.171919,2.56081 3.246652,-2.45941 8.814248,-5.49941 11.823397,-6.4555 3.067059,-0.97452 10.154316,-0.85543 11.894206,0.18254 2.11924,1.27719 4.67719,4.56758 4.07622,5.243 -0.27674,0.31102 -2.18321,0.85222 -4.23664,1.2017 -7.616942,1.29645 -16.749994,4.20201 -10.667097,3.39358 1.466745,-0.19487 3.506826,-0.63575 4.533518,-0.97938 1.02673,-0.34361 6.906959,-0.75745 13.067189,-0.9193 9.21131,-0.24195 11.72142,-0.12086 14.1339,0.68377 l 2.93345,0.97936 -3.20013,-0.38574 c -5.6251,-0.67716 -16.98487,-0.3382 -22.40611,0.66815 -5.415709,1.0053 -17.891261,5.39717 -17.019413,5.99166 0.269902,0.18416 1.690696,-0.0415 3.157404,-0.50232 5.397219,-1.69565 15.034499,-3.95205 18.505949,-4.3321 3.49791,-0.38294 3.5779,-0.3586 3.91057,1.17044 0.61443,2.82401 -1.35269,8.46715 -4.04181,11.59514 -4.97424,5.78605 -12.057561,6.44733 -19.903935,1.85783 -2.3866,-1.39594 -4.518134,-2.53799 -4.737675,-2.53799 -0.89422,0 -0.299796,1.59748 1.305251,3.50777 h 10e-4 c 1.696363,2.01888 1.698319,2.02937 0.400019,1.98518 -0.717578,-0.0244 -4.425385,-1.49785 -8.23887,-3.27461 -8.537478,-3.97772 -15.722434,-6.14556 -22.13422,-6.67782 -1.741777,-0.14463 -1.866737,-0.29519 -1.866737,-2.25077 0,-1.95024 0.438462,-2.48469 6.300249,-7.69084 3.464766,-3.07724 6.806666,-6.52958 7.427379,-7.67161 l 1.129208,-2.07655 -1.561522,0.95294 c -1.5028,0.91696 -1.604075,0.89118 -2.712599,-0.69216 l -1.152126,-1.64511 -1.781327,1.49972 c -2.241541,1.88678 -2.933696,2.93711 -5.249177,7.97444 -1.254773,2.72974 -2.382024,4.34409 -3.439709,4.92333 -1.52568,0.83551 -1.627117,0.79063 -3.333475,-1.4865 l -1.760483,-2.34931 v 1.94794 c 0,1.54608 -0.222265,1.94915 -1.079214,1.94915 -0.696489,0 -1.264792,-0.60072 -1.600063,-1.69197 -0.867815,-2.82463 -1.337987,-3.48256 -3.500144,-4.89571 -1.915038,-1.25167 -2.176652,-1.28416 -3.333455,-0.40977 -1.770421,1.33819 -3.553401,0.61901 -5.139798,-2.07415 -1.294625,-2.19781 -1.710691,-5.11821 -1.024,-7.18252 0.472571,-1.42064 2.6948,-1.19053 4.644993,0.48189 2.761544,2.36817 6.490161,3.66251 10.675423,3.70483 3.426486,0.0347 4.264808,-0.21184 7.830505,-2.30605 2.196307,-1.28995 4.952931,-3.30685 6.126305,-4.48113 2.102973,-2.1046 2.05564,-2.09047 -3.336599,1.00941 -7.599795,4.36895 -10.158726,4.91632 -14.865182,3.1773 -8.412657,-3.10844 -10.332693,-4.61496 -10.332693,-8.10905 0,-2.474109 1.544709,-4.687626 2.863645,-4.103789 0.423284,0.18744 0.931656,1.18989 1.129208,2.22795 0.537359,2.822279 1.340687,2.275529 1.340687,-0.91208 0,-4.162879 1.423699,-6.887038 3.387639,-6.481957 0.249781,0.05135 1.453654,-0.968746 2.675105,-2.267589 2.731206,-2.904166 6.649996,-4.372597 8.970155,-3.362347 1.306215,0.568773 1.994722,0.439252 4.327257,-0.813549 2.749549,-1.47675 7.307579,-2.051676 7.307579,-0.921675 0,0.319203 -0.54004,1.039571 -1.200062,1.60184 l -1.200043,1.022648 1.33339,-0.314841 c 0.733358,-0.173001 2.673008,-0.664394 4.310587,-1.092332 1.637599,-0.427912 3.3928,-0.594776 3.900163,-0.37015 0.845197,0.374187 0.860219,0.523667 0.0895,1.780927 -1.285755,2.117621 -1.027367,2.330025 1.583403,1.303843 3.36024,-1.320794 9.949969,-0.92612 12.751535,0.763061 1.155415,0.69663 2.18329,1.553239 2.284484,1.903497 0.101145,0.350232 -0.964535,1.136898 -2.367816,1.748462 -1.403293,0.611591 -3.947938,2.175343 -5.655424,3.475297 -3.495042,2.660865 -3.845797,2.771295 -4.314761,1.361535 -0.704026,-2.116454 -7.353442,0.0765 -11.248365,3.709629 l -1.600064,1.49249 2.510512,-0.65971 c 3.24486,-0.85243 4.286882,-0.006 4.079332,3.30944 -0.202954,3.24243 0.285803,3.448 1.712567,0.71984 1.699995,-3.25066 4.310533,-7.067239 4.603304,-6.729479 0.134054,0.15464 1.485878,-0.35072 3.003245,-1.1224 1.517343,-0.77172 3.958501,-1.688486 5.425221,-2.036888 2.602068,-0.618041 6.133544,-0.393781 6.133581,0.38935 2.5e-5,0.215328 -0.900024,1.284428 -2.000083,2.375768 l -2.000071,1.983999 2.666766,-1.439639 c 6.141154,-3.315685 12.857615,-6.052661 17.475695,-7.122446 11.79654,-2.732709 16.06258,-2.945304 18.73721,-0.932515 0.61715,0.464428 2.7766,1.147669 4.79915,1.518943 4.55843,0.83676 5.39855,1.344045 6.10651,3.686795 0.30894,1.022353 0.81246,1.859023 1.11983,1.859023 1.48508,0 8.80101,4.533269 10.87544,6.739099 1.28789,1.36946 2.52413,2.48993 2.74802,2.48993 1.50257,0 -2.03343,-7.72983 -5.62939,-12.305368 -0.9308,-1.184388 -2.30177,-3.067141 -3.04596,-4.184296 -0.74416,-1.117156 -2.69123,-3.055245 -4.32725,-4.306881 -2.90098,-2.219298 -3.08692,-2.272562 -7.51594,-2.141414 -2.49783,0.07398 -4.87619,-0.106501 -5.28562,-0.400163 -1.30995,-0.939493 -0.23898,-2.503122 1.71466,-2.503122 2.2467,0 5.03716,-2.113463 6.43358,-4.871672 1.77639,-3.508724 1.27544,-11.740561 -0.71461,-11.740561 -0.20884,0 -0.27801,2.145737 -0.14998,4.768328 0.20489,4.258074 0.0933,4.99874 -1.04275,6.921747 -0.94516,1.599782 -1.67825,2.169735 -2.85117,2.218336 -0.86833,0.03604 -2.53526,0.658894 -3.7043,1.384356 -2.34781,1.456994 -6.14243,1.797226 -6.14088,0.550373 5.2e-4,-0.422993 1.08115,-1.556747 2.40116,-2.51876 1.32,-0.962025 2.2656,-2.000281 2.10111,-2.307249 -0.16449,-0.30698 -1.35731,-0.557595 -2.65011,-0.557595 -2.2324,0 -3.4095,-0.434741 -8.6316,-3.185687 -1.92881,-1.016075 -2.56702,-1.083905 -4.53352,-0.480661 -4.14895,1.272747 -7.677879,4.494612 -9.54204,8.709856 -1.221195,2.761393 -1.235645,2.954991 -0.213537,2.954991 1.858178,0 0.328596,2.447271 -2.658457,4.252803 -3.719528,2.248281 -4.80855,1.347879 -2.700098,-2.231547 0.747461,-1.268912 1.358389,-2.517458 1.358389,-2.774713 0,-0.25724 -1.432591,0.398902 -3.183462,1.457632 -3.776515,2.283619 -6.249412,2.444005 -9.793095,0.635709 -1.900583,-0.969843 -2.720103,-1.824434 -3.308473,-3.448862 -0.991104,-2.733928 -1.023428,-5.346626 -0.01,-8.063374 0.951905,-2.628064 2.222439,-2.763181 2.693858,-0.287211 0.19332,1.015193 0.655895,1.845801 1.027127,1.845801 0.695232,0 2.439676,-1.916327 2.439676,-2.679769 0,-0.236171 0.760565,-1.392621 1.68965,-2.570425 0.929072,-1.177776 2.309122,-2.93365 3.066796,-3.900689 1.354428,-1.728747 4.252082,-3.769718 5.351231,-3.769718 1.272192,0 0.384387,1.028894 -2.359457,2.736259 -2.694381,1.676567 -4.177955,3.416397 -2.913661,3.416397 0.293893,0 1.782374,-0.729581 3.307427,-1.621081 6.049003,-3.535946 13.719446,-3.607339 19.851846,-0.166959 5.22166,2.92384 10.60281,1.982436 15.45477,-2.703807 3.68537,-3.559523 3.22377,-4.285865 -1.60007,-2.518746 -4.92803,1.805343 -6.72595,1.832645 -12.33695,0.181443 -3.8054,-1.119689 -4.9828,-1.214415 -8.81806,-0.707793 -4.906049,0.648067 -5.889886,0.473113 -5.648119,-1.001008 0.10239,-0.625005 0.81141,-1.070423 1.89172,-1.190879 1.316749,-0.146879 1.805279,-0.550049 2.054259,-1.694399 0.64508,-2.964929 4.86211,-5.935452 11.40982,-8.035726 2.72124,-0.87287 5.47418,-1.115719 12.80052,-1.131996 z m -50.588479,0.429005 c 1.574516,0.03818 2.853235,0.306484 2.853235,0.781102 0,0.338395 -1.320061,1.338988 -2.933453,2.223135 -4.387608,2.404416 -5.101957,2.569569 -6.103359,1.414393 -1.342603,-1.548823 -0.775953,-2.936301 1.559445,-3.818985 1.179999,-0.445993 3.049628,-0.637836 4.624132,-0.599645 z M 202.2301,50.48524 c 0.007,0.0018 0.0162,0.003 0.023,0.0049 0.0254,0.0019 0.0508,0.0042 0.076,0.0061 -0.0125,-0.0013 -0.0232,0.0023 -0.0345,-0.0037 -0.0215,-0.0023 -0.043,-0.0049 -0.0645,-0.0072 z m -6.55025,9.31554 c 0.66222,0.05894 0.68572,0.532298 0.6396,2.221927 -0.0382,1.402769 -0.97406,4.466198 -2.323,7.606723 -2.53534,5.902313 -7.29986,12.043491 -11.06086,14.256896 -1.23414,0.726302 -2.673,1.316823 -3.19804,1.309845 -0.52504,-0.0068 -2.17831,-1.32105 -3.67411,-2.922526 -1.49578,-1.601447 -4.42689,-3.8597 -6.51275,-5.01825 -2.08585,-1.158577 -3.91434,-2.473477 -4.06372,-2.922539 -0.41166,-1.237599 2.62836,-4.857932 5.45231,-6.492739 3.43499,-1.989198 5.42161,-3.471137 7.30966,-5.454496 1.51691,-1.593453 1.94659,-1.699086 8.267,-2.02005 3.6668,-0.186213 7.38695,-0.418089 8.26701,-0.515524 0.38365,-0.04241 0.67617,-0.06883 0.8969,-0.04932 z M 41.042427,71.143564 c 0.09979,0.0233 0.184247,0.07018 0.250024,0.14673 0.124578,0.143707 -0.118335,1.438783 -0.539618,2.876849 -0.421288,1.438066 -0.651113,3.125526 -0.509399,3.750478 0.276652,1.220403 1.460245,1.529228 2.000084,0.521553 0.784198,-1.463716 1.808924,-0.465431 2.31155,2.253172 0.817499,4.42162 -0.273286,6.501613 -4.444961,8.480365 -1.173374,0.556593 -3.01941,1.830057 -4.102252,2.829995 -1.082841,0.999897 -2.235008,1.818147 -2.560524,1.818147 -0.325516,0 -0.964877,-1.030208 -1.420878,-2.289214 -1.080908,-2.984258 -0.739385,-7.687751 0.83024,-11.428121 1.623084,-3.867803 6.690332,-9.297978 8.185734,-8.959845 z m 70.130923,6.150271 c 0.20492,-0.03536 0.41456,-0.02331 0.60939,0.04552 0.2598,0.09051 0.49372,0.27709 0.65837,0.576809 0.63892,1.162926 0.58052,4.493391 -0.10625,6.236785 -0.31836,0.805988 -1.21838,1.894567 -2.00008,2.41902 -1.90812,1.280172 -4.20752,1.675578 -6.59402,1.133199 -4.223179,-0.95979 -5.000099,-4.127294 -1.51568,-6.177926 2.51457,-1.479853 3.91956,-1.572681 4.82104,-0.31965 0.36518,0.507624 1.11491,0.922922 1.66567,0.922922 0.95159,0 1.11052,-0.433738 1.23652,-3.377984 0.0346,-0.810174 0.61033,-1.352703 1.22506,-1.458852 z m 3.88141,7.373601 c 0.83082,-0.0014 2.06326,0.396396 4.04183,1.194484 1.73267,0.698918 4.59019,1.536639 6.35025,1.861425 4.08339,0.753483 8.79416,2.415741 8.79931,3.103969 -0.002,0.548856 -2.82648,0.755529 -3.27409,0.239151 -0.13909,-0.160454 -3.68149,-0.727345 -7.87218,-1.260592 -4.19069,-0.53322 -8.13643,-1.301418 -8.76911,-1.707595 -0.63268,-0.406165 -1.22998,-0.784417 -1.32714,-0.839998 -0.0972,-0.05555 0.0913,-0.678581 0.41877,-1.384341 0.37266,-0.802858 0.80153,-1.204782 1.63236,-1.206503 z m 42.27356,1.885449 c 2.63711,-0.588204 16.92174,12.070616 19.05493,16.886215 0.42992,0.97051 1.60157,3.2222 2.60427,5.00387 1.93397,3.43646 1.95046,4.38787 0.0615,3.22054 -0.63695,-0.39297 -1.28595,-0.56666 -1.44277,-0.38574 -0.15684,0.18091 0.45893,3.04069 1.3688,6.35575 2.31915,8.44942 3.00818,13.51132 3.00012,22.02466 -0.007,8.65233 -0.55175,13.22826 -1.56987,13.22826 -0.39147,0 -1.4958,-1.40983 -2.45425,-3.1328 -3.51344,-6.31614 -4.2356,-6.18105 -4.2356,0.7907 0,2.73255 -0.25518,6.10815 -0.56772,7.50097 -1.39772,6.22916 -2.18223,8.99229 -2.55219,8.99229 -0.21944,0 -0.69508,-0.94614 -1.05732,-2.10177 -1.09879,-3.5053 -9.55305,-13.27993 -11.48587,-13.27993 -0.18546,0 -0.33753,0.55375 -0.33753,1.23054 0,1.69218 -1.07527,1.52401 -2.66676,-0.417 -2.96236,-3.61291 -5.86691,-4.5674 -5.86691,-1.92751 0,0.66878 -0.22369,1.12462 -0.4969,1.01183 -0.27321,-0.11273 -2.62301,-2.5589 -5.22209,-5.43528 -2.59906,-2.87635 -5.9155,-6.45151 -7.37006,-7.94439 -1.45456,-1.49284 -4.12033,-4.36424 -5.9242,-6.38099 -1.80387,-2.01677 -3.53724,-3.48413 -3.85121,-3.2602 -0.58986,0.42056 0.26599,3.42164 2.63137,9.2266 0.64301,1.57804 1.04059,3.01754 0.88336,3.19892 -0.15704,0.18138 -1.68731,-1.13704 -3.40116,-2.92972 -2.83154,-2.96176 -3.13216,-3.13598 -3.28557,-1.9059 -0.18323,1.46962 2.24619,8.37331 3.59078,10.20479 0.75789,1.03242 0.73888,1.20589 -0.15099,1.96117 -1.16512,0.98281 -1.25425,0.6938 1.93028,6.24401 3.11248,5.42467 3.3451,7.19836 0.6344,4.83319 -1.30857,-1.14185 -2.90218,-1.20118 -2.90218,-0.10812 0,0.45891 0.84003,2.10439 1.86673,3.65553 1.0267,1.55115 1.86673,2.9911 1.86673,3.20131 0,0.21022 -1.08003,0.19604 -2.40008,-0.0323 -3.31739,-0.57387 -3.15727,0.58438 0.53542,3.87427 2.65282,2.36344 3.78115,4.4643 2.39801,4.4643 -0.29335,0 -0.53335,0.50937 -0.53335,1.13198 0,0.77753 0.67689,1.38913 2.16051,1.95397 3.46426,1.31895 3.08514,1.95958 -0.90524,1.52854 -4.74271,-0.51229 -7.92137,0.23961 -7.92219,1.87466 -5.1e-4,0.98244 -0.49044,1.27075 -2.6876,1.58022 -1.47775,0.20813 -3.47975,0.85115 -4.44811,1.42881 -1.72974,1.03185 -1.74323,1.07228 -0.7792,2.31447 0.95401,1.22921 0.953,1.28352 -0.05,1.95516 -2.16308,1.44855 -5.57072,5.44289 -6.43462,7.54304 -1.0344,2.51462 -0.71957,6.04374 0.59064,6.62374 0.45602,0.20184 1.64946,0.36771 2.65218,0.36771 1.5533,0 1.823,0.21185 1.823,1.43241 0,2.01756 -2.571,6.2592 -7.07426,11.66967 -2.12242,2.55 -4.58612,5.67161 -5.47521,6.93619 -1.38914,1.97582 -1.768719,2.20555 -2.695949,1.6331 -1.38565,-0.85549 -2.124096,-0.2974 -3.103242,2.34569 -1.026219,2.77025 -4.726738,7.22404 -6.405451,7.71008 -1.295796,0.37518 -4.58039,-1.294 -4.58039,-2.32768 0,-0.2654 -0.495671,-0.48187 -1.102139,-0.48187 -1.200544,0 -1.111506,1.06939 0.369813,4.42944 0.990917,2.24766 0.946423,2.60705 -0.671902,5.42806 -0.951954,1.65943 -1.767961,2.42303 -2.533433,2.37094 -1.841354,-0.12507 -10.800463,-3.98617 -12.511962,-5.39201 -0.870112,-0.71475 -1.725307,-1.29903 -1.900079,-1.29903 -0.174772,0 -0.317715,1.10749 -0.317715,2.46108 0,1.35358 -0.256434,2.46106 -0.570863,2.46106 -1.269245,0 -5.423626,-3.36245 -7.482572,-6.05654 -2.646683,-3.46307 -3.998195,-6.39445 -4.762697,-10.32975 -0.585155,-3.01208 -0.81361,-9.9332 -0.345856,-10.47278 0.141914,-0.1637 2.686675,0.0416 5.655447,0.45665 7.884045,1.10227 17.95944,-0.58685 26.707308,-4.47752 4.44184,-1.97557 14.263523,-7.82795 16.054802,-9.5667 1.92419,-1.86777 3.01284,-4.7097 3.4345,-8.96463 0.70716,-7.13584 2.89854,-10.77412 7.33572,-12.17677 7.62696,-2.41097 9.38344,-6.33264 6.7482,-15.07165 -2.09723,-6.95492 -2.53422,-9.4792 -2.71887,-15.71457 -0.13708,-4.62887 -0.0125,-6.34074 0.48024,-6.53003 0.45564,-0.17533 0.6678,-1.74986 0.66982,-4.9738 0.001,-2.59437 0.15944,-7.02611 0.35,-9.84908 0.43703,-6.47698 0.67244,-6.65005 7.89823,-5.79097 4.67881,0.55627 5.4065,0.82374 8.13888,2.99464 1.65033,1.31118 3.43976,3.24239 3.9762,4.29123 0.67423,1.31823 1.67414,2.14738 3.23866,2.6858 5.79251,1.9933 10.69296,5.3572 17.69341,12.14671 1.15284,1.11812 2.50491,2.03327 3.00534,2.03327 0.50043,0 1.77526,1.02768 2.83241,2.28323 2.24131,2.66196 2.64915,2.40844 3.47617,-2.15947 1.29142,-7.13285 0.51529,-15.21138 -2.42301,-25.22476 -1.02251,-3.4846 -1.76211,-6.66859 -1.64278,-7.07556 0.23235,-0.7923 3.10167,2.28422 4.99708,5.35835 0.78672,1.27589 1.37488,1.67235 2.04176,1.37713 1.31729,-0.58313 0.71713,-4.66847 -1.72925,-11.77299 -3.12167,-9.06568 -6.15948,-14.849237 -10.82959,-20.621093 -1.3756,-1.700144 -1.56032,-2.193622 -0.87818,-2.345704 z m -56.85331,3.137627 c 0.69662,-0.01857 1.4787,0.03536 2.40738,0.143016 4.32734,0.50131 4.10904,0.820432 -1.84174,2.688184 -2.276699,0.714583 -4.48283,1.299033 -4.902269,1.299033 -0.71485,0 -1.689201,-1.121139 -1.279229,-1.472062 2.204839,-1.887345 3.525999,-2.601101 5.615858,-2.658171 z m 77.89893,1.053878 h 0.001 c 1.96585,0 9.3742,12.05666 14.77248,24.04232 3.72023,8.25995 7.22756,22.636 7.23362,29.6398 0.002,2.89661 -0.70387,2.91966 -2.90326,0.0601 -1.00963,-1.30887 -1.99033,-2.06476 -2.348,-1.80976 -0.38652,0.27556 -0.61571,2.41965 -0.61773,5.78498 -0.007,10.97707 -1.86557,18.90937 -7.30133,31.18877 -1.82832,4.13014 -4.2917,8.61954 -5.97315,10.88495 -0.8964,1.20771 -2.16487,0.48155 -2.2199,-1.2702 -0.0476,-1.51391 -2.27517,-6.41236 -3.04804,-6.70304 -0.41812,-0.1572 -1.38874,1.51635 -2.52613,4.35615 -1.05498,2.63409 -3.01602,6.08827 -4.57414,8.05494 -2.66946,3.36938 -4.07274,4.21469 -4.43663,2.67377 -1.30442,-5.52373 -2.08042,-7.78496 -2.77721,-8.0934 -1.3072,-0.57866 -1.62252,-0.0618 -2.87407,4.70822 -1.76236,6.71687 -2.54923,7.43597 -3.87619,3.53899 -0.82621,-2.42631 -1.83481,-3.19392 -2.223,-1.69197 -0.83538,3.23229 -0.68509,3.12986 -2.59907,1.7653 -2.4056,-1.71509 -7.44431,-3.15167 -11.01502,-3.14004 -4.37516,0.014 -4.69381,0.43809 -3.69389,4.91252 0.16287,0.7285 -0.52398,0.98769 -3.26056,1.23055 -3.06307,0.27181 -3.48652,0.46494 -3.63347,1.65592 -0.0915,0.74137 0.21675,2.02286 0.68545,2.84801 0.7824,1.37647 0.75137,1.53146 -0.01,1.88188 -0.47452,0.21021 -1.42555,0.38212 -2.11361,0.38212 -1.9996,0 -7.70845,3.76144 -11.96507,7.88433 -2.16057,2.09271 -4.19227,3.81201 -4.51373,3.81899 -0.32148,0.006 -1.18442,0.55557 -1.91778,1.21731 -1.41464,1.27649 -2.13341,1.53149 -2.13341,0.75827 0,-0.25932 1.26004,-1.346 2.8001,-2.41542 1.54006,-1.0694 4.87354,-4.14873 7.40865,-6.84245 2.8202,-2.99667 5.40795,-5.19182 6.66692,-5.65638 1.13174,-0.41757 2.27553,-0.99061 2.54177,-1.27379 0.63629,-0.67672 -0.60645,-2.38085 -2.26884,-3.10998 -1.61134,-0.7067 -1.21025,-1.20369 1.91883,-2.37936 3.03,-1.13844 3.38108,-2.13654 1.24693,-3.53778 -2.27712,-1.49509 -2.06111,-2.46789 0.88647,-4.00524 3.46207,-1.80566 12.37983,-2.2367 17.14654,-0.82798 1.83708,0.54291 3.80071,0.98778 4.3637,0.98778 1.15108,0 1.35123,-1.22196 0.38336,-2.33848 -0.49782,-0.57438 -0.38606,-0.73783 0.50209,-0.73783 0.62803,0 1.29531,-0.28713 1.48339,-0.6381 0.40291,-0.75207 -2.15139,-6.64224 -5.32729,-12.28253 -3.94246,-7.00168 -10.41812,-20.96356 -10.41812,-22.46208 0,-1.65928 0.93532,-0.51066 7.29821,8.95983 3.14996,4.68837 5.81247,8.42657 5.91689,8.30611 0.10439,-0.12045 -0.43056,-1.63069 -1.18858,-3.35631 -0.75804,-1.72563 -1.15016,-3.13765 -0.87191,-3.13765 0.27825,0 1.66275,1.41478 3.07617,3.14363 1.41344,1.72889 3.04991,3.35988 3.6366,3.62432 0.6473,0.29177 1.57362,1.96933 2.35634,4.26722 0.70943,2.08269 1.48948,3.92863 1.73341,4.10257 0.61412,0.43782 0.56143,-2.17489 -0.13445,-5.87868 -0.31766,-1.70893 -0.4926,-3.40232 -0.38857,-3.76251 0.1921,-0.66517 2.20244,1.02046 2.61679,2.19431 0.67628,1.91592 3.8535,7.69085 4.2314,7.69085 0.75831,0 1.17023,-2.45681 0.80836,-4.82241 l -0.3448,-2.25317 1.31464,1.8458 c 0.72311,1.01518 1.57976,3.36858 1.9032,5.22978 0.32346,1.86117 0.82881,3.79928 1.12295,4.30686 0.46183,0.79702 0.64872,0.75504 1.37403,-0.30763 1.53144,-2.2438 4.43015,-9.60996 5.50438,-13.98891 0.58232,-2.37379 1.18565,-4.46215 1.34067,-4.64097 0.15502,-0.17882 0.6481,0.68639 1.09589,1.92274 0.92871,2.56407 1.95752,2.87606 2.8522,0.864 0.53,-1.19194 0.57303,-1.03023 0.31042,1.16685 -0.35473,2.96744 0.56929,4.18716 1.35838,1.79292 0.87931,-2.66795 1.02103,-1.74581 0.25003,1.62589 -1.48119,6.47728 0.63895,4.1073 2.58864,-2.89367 3.22198,-11.56955 4.34476,-21.88473 3.58138,-32.90961 -0.24488,-3.54926 -0.34823,-6.63805 -0.22708,-6.86408 0.12095,-0.22603 0.6728,-0.27722 1.22609,-0.10812 0.55328,0.16697 1.14638,0.0442 1.31671,-0.27397 0.7636,-1.42528 -1.76116,-14.98534 -3.9512,-21.22316 -1.79772,-5.12041 -7.23882,-15.60603 -8.71911,-16.802086 -0.59987,-0.484617 -0.80724,-0.88085 -0.46043,-0.88085 z m -70.11112,3.243382 c -2.60475,-0.0027 -5.78141,1.001441 -11.493157,3.290239 -4.29457,1.72088 -8.48944,4.153369 -6.124215,3.551009 0.810166,-0.20626 1.466721,-0.10785 1.466721,0.22 0,0.86527 -3.693133,6.30767 -4.28037,6.30767 -0.274211,0 -1.84737,1.03828 -3.495976,2.30726 -4.193761,3.22813 -6.821987,5.05351 -7.290926,5.06514 -0.220002,0.004 -0.399994,-0.40449 -0.399994,-0.91207 0,-1.37905 -0.829759,-1.12544 -2.781363,0.85079 -0.963564,0.97576 -3.504982,3.16747 -5.64815,4.87045 -2.782267,2.21087 -3.621213,3.16052 -2.933453,3.3191 0.96927,0.22348 2.728525,0.0815 5.854413,-0.47226 1.112677,-0.19697 2.666105,-1.40707 4.541838,-3.53659 5.528769,-6.27678 11.254247,-9.91514 21.767533,-13.83392 7.997669,-2.98107 11.691089,-3.7966 19.305979,-4.26 3.16899,-0.19278 5.76169,-0.52435 5.76169,-0.73666 0,-0.425229 -4.93685,-2.952599 -9.75664,-4.995412 -1.57447,-0.66732 -2.9311,-1.032877 -4.49393,-1.034679 z m 18.56742,7.964848 c -1.26296,-0.0163 -2.78137,0.0305 -4.58353,0.13468 -3.81348,0.22022 -7.77364,0.61359 -8.80035,0.87364 -1.64407,0.41643 -1.38137,0.52185 2.20009,0.88205 4.55963,0.45858 12.26028,3.03582 13.27241,4.44265 0.36458,0.50676 2.85284,1.71524 5.52938,2.68461 6.6435,2.40613 8.44372,3.34173 11.33484,5.88829 1.36667,1.20377 2.69061,2.18829 2.94178,2.18829 0.63245,0 0.57598,-2.29249 -0.098,-3.73727 -1.14868,-2.47595 -5.90229,-6.09167 -9.75873,-7.42286 -4.86113,-1.67803 -6.75444,-2.78384 -6.75444,-3.94517 0,-1.3281 -1.49471,-1.94093 -5.28352,-1.98879 z m -98.145586,1.35431 c 0.485673,-0.11518 0.736463,0.31986 0.569813,1.34709 -0.537398,3.31245 -0.20392,9.30501 0.618779,11.11446 1.077118,2.369 2.479247,3.55082 8.414914,7.09723 5.41637,3.23616 6.71801,4.23846 7.784686,5.99525 1.074013,1.76886 0.312192,2.74915 -3.173054,4.08454 -3.667297,1.40517 -8.803648,4.91413 -10.90148,7.44812 -0.941673,1.13746 -1.86835,3.03014 -2.05945,4.20474 -0.429331,2.63999 -2.040623,2.8825 -4.151196,0.62607 -1.855852,-1.98407 -1.780581,-3.25171 0.321888,-5.41002 1.635562,-1.67902 1.658119,-1.75697 0.4,-1.37956 -3.278422,0.98341 -3.785624,1.01585 -4.536621,0.29682 -0.438342,-0.41965 -0.796918,-1.42097 -0.796918,-2.22553 0,-1.67971 -1.269366,-1.87511 -5.27,-0.81114 -3.211013,0.85397 -3.341296,0.31582 -0.22918,-0.94815 4.049376,-1.64463 4.168452,-1.76763 3.992873,-4.1194 -0.197753,-2.64828 0.918089,-3.9895 2.504263,-3.01026 2.26803,1.40024 2.863545,0.64108 0.810443,-1.03345 -2.041065,-1.6647 -2.201384,-1.69158 -9.937892,-1.66555 -4.3247777,0.014 -7.6698633,-0.19626 -7.4336286,-0.46865 0.8819455,-1.01743 8.9049416,-2.39667 11.6962996,-2.01045 l 2.800106,0.38816 v -2.16785 c 0,-1.37887 0.322533,-2.37528 0.885453,-2.73867 0.749102,-0.48362 0.53236,-0.86496 -1.4136,-2.49111 -1.264086,-1.05632 -4.303007,-2.79859 -6.752339,-3.87187 -4.8218207,-2.11288 -5.8582797,-3.38787 -2.208421,-2.71462 2.497732,0.46075 5.179228,1.78844 9.343082,4.62291 l 2.787609,1.8975 -0.318763,-1.84102 c -0.351581,-2.02803 0.852494,-3.1588 2.095917,-1.96837 0.520426,0.49818 0.672944,0.11679 0.672944,-1.68958 0,-1.61063 0.465254,-3.03633 1.503184,-4.60612 0.774359,-1.17116 1.494614,-1.83649 1.980289,-1.95152 z m 1.591718,23.31527 c -0.795688,-0.1672 -1.433596,0.0347 -1.729239,0.64412 -0.269435,0.55542 -1.018154,1.01437 -1.663602,1.01902 -0.790769,0.006 -0.955018,0.16906 -0.50315,0.49991 0.368815,0.27013 2.278691,0.50903 4.243922,0.52995 l 3.573057,0.0383 -1.244835,-1.16207 c -0.927624,-0.8665 -1.880446,-1.40216 -2.676153,-1.5694 z m -25.885393,6.90253 c -0.00199,0.003 -0.0061,0.004 -0.00399,0.009 0.00399,0.0163 0.0061,0.0322 0.0081,0.0481 -4.11e-5,-0.003 5.98e-5,-0.004 0,-0.006 0,-0.0186 -0.00125,-0.0347 -0.00399,-0.0505 z m 44.151761,2.17747 c 1.226651,-0.026 1.90006,0.20045 1.701096,0.572 -0.389295,0.72667 -1.200848,0.72667 -2.666759,0 -0.851828,-0.42227 -0.656636,-0.53758 0.965663,-0.572 z m 4.357455,0.0251 c 0.567798,-0.0315 1.187504,0.36649 1.903203,1.19208 0.893477,1.03062 1.063592,1.89861 0.93337,4.76232 -0.189287,4.16257 -1.278418,4.91491 -3.023037,2.08855 -1.943602,-3.14876 -2.336688,-5.01449 -1.404226,-6.65619 0.507666,-0.89374 1.022891,-1.35514 1.59069,-1.38676 z m 5.886702,0.54677 c 0.699009,0 1.480041,0.43115 1.735487,0.95775 0.415825,0.85716 0.637083,0.84556 2.105291,-0.12859 2.531719,-1.67616 3.441322,-0.45702 3.240747,4.34413 -0.189085,4.52721 -1.13463,4.95666 -2.903237,1.31947 l -1.181295,-2.42742 -0.346904,1.81215 c -0.191302,0.99698 -0.440256,2.15944 -0.553143,2.58243 -0.513775,1.92383 -2.424538,-0.13883 -3.41054,-3.68198 -0.829352,-2.98023 -0.335353,-4.77795 1.313594,-4.77795 z m 10.632709,1.35672 c 1.353969,-0.006 2.882447,1.89963 3.832458,4.90171 0.860289,2.71863 1.238759,3.25324 2.215688,3.13163 1.080166,-0.13441 1.177412,0.12045 1.185471,3.0763 0.0062,2.307 0.154819,2.96091 0.52503,2.30007 0.284363,-0.50759 0.523261,-2.03038 0.533338,-3.38398 0.0075,-1.35359 0.271359,-2.87636 0.582341,-3.38397 0.412077,-0.67266 0.482181,0.0782 0.25833,2.76871 -0.168932,2.03037 -0.08209,5.07596 0.193719,6.76796 0.275905,1.69197 0.576823,3.63024 0.667741,4.30686 0.120202,0.89394 -0.178398,1.28578 -1.090692,1.43483 -1.801843,0.29462 -6.160773,-5.13006 -8.238846,-10.25288 -1.990227,-4.90616 -2.632994,-10.92464 -1.232357,-11.54467 0.184046,-0.0815 0.37432,-0.12168 0.567739,-0.12249 z m -23.113427,0.11531 c 0.928934,-0.18347 2.053241,0.38318 2.834496,1.80494 0.404274,0.73574 0.901055,2.79104 1.103161,4.56764 0.338318,2.97367 0.281653,3.23015 -0.713562,3.23015 -1.426501,0 -4.88665,-4.89237 -4.88665,-6.90974 0,-1.57605 0.733641,-2.50952 1.662555,-2.69299 z m -4.211631,1.78571 c 0.115706,-0.0275 0.215291,-0.0163 0.291691,0.0373 0.673771,0.48037 3.857448,6.89341 3.857448,7.77017 0,1.0778 -1.92443,0.68053 -2.933453,-0.60566 -1.147147,-1.46226 -1.866738,-1.58084 -1.866738,-0.30763 0,1.26628 -0.514117,1.15868 -1.963618,-0.41218 -0.677781,-0.7346 -1.402149,-1.1392 -1.610486,-0.89887 -0.208335,0.24034 0.630773,1.50125 1.864662,2.80235 1.409406,1.4862 2.246177,2.90703 2.25424,3.82139 0.0061,0.80049 0.578422,3.30926 1.271927,5.57587 0.693525,2.26661 1.128583,4.27396 0.966712,4.46068 -1.489054,1.71774 -7.172036,-4.37239 -9.777474,-10.47757 -1.387294,-3.2508 -1.562327,-4.09854 -1.005254,-4.87287 0.489826,-0.68084 0.861283,-0.75711 1.358386,-0.2812 0.51188,0.49006 0.772487,0.33647 1.032347,-0.60807 0.1911,-0.69461 0.571245,-1.26297 0.844814,-1.26297 0.273567,0 0.496901,-0.8306 0.496901,-1.84582 0,-2.07957 0.113688,-2.15436 1.631309,-1.07671 0.938792,0.66663 1.212561,0.57241 2.053222,-0.70419 0.400081,-0.60754 0.88636,-1.03164 1.233364,-1.11396 z m -19.669525,4.77554 c 0.445558,-0.0302 1.037708,0.68499 1.817773,2.00683 0.839834,1.42314 1.20234,2.94484 1.208388,5.07113 0.01009,3.63412 1.223104,9.94061 2.104263,10.93904 0.479909,0.5438 0.864387,0.38376 1.611513,-0.67056 0.539557,-0.76138 1.238061,-1.38434 1.552148,-1.38434 0.314066,0 0.683387,0.62296 0.820866,1.38434 1.570148,8.69336 3.554006,15.96521 4.449135,16.30941 0.328741,0.12656 1.12344,-0.96079 1.766732,-2.41542 1.162306,-2.62818 1.174623,-2.63671 1.960494,-1.27137 0.434955,0.75567 1.220766,1.37472 1.745909,1.37472 0.696306,0 1.050771,0.65784 1.310469,2.43104 0.556369,3.79886 3.868436,13.70469 7.522165,22.49692 0.705338,1.69734 1.282349,3.55017 1.282349,4.11702 0,2.346 -1.066051,1.39207 -3.984527,-3.56423 -1.923785,-3.26709 -3.590493,-7.01973 -4.430387,-9.97528 -0.740515,-2.60589 -1.579806,-5.08438 -1.864662,-5.50737 -1.010616,-1.50076 -2.535771,-0.78062 -4.234549,1.99963 -0.930466,1.52278 -1.880627,2.7687 -2.11154,2.7687 -1.330689,0 -4.175165,-10.84175 -4.175165,-15.91405 0,-4.91902 -1.392654,-5.65727 -4.800191,-2.54399 -2.416978,2.2083 -3.090607,2.29836 -3.452226,0.46147 -0.149978,-0.7614 -0.508352,-2.63026 -0.796898,-4.15307 -0.288546,-1.52278 -0.529457,-6.67949 -0.537521,-11.45935 -0.01411,-8.76039 0.255244,-12.43482 1.235462,-12.50122 z m 22.222753,7.05034 c 0.274758,0.0825 0.675081,0.46471 1.206313,1.12599 1.692913,2.10726 5.820159,11.75764 7.005487,16.38029 0.644561,2.51374 2.451126,14.17091 2.451126,15.81671 0,0.10948 -0.210996,0.19951 -0.46876,0.19951 -0.257745,0 -0.761641,-0.81888 -1.120882,-1.81937 -0.437737,-1.2191 -1.261727,-2.05045 -2.498014,-2.52114 -2.346989,-0.89352 -2.891888,-2.45648 -3.313679,-9.503 l -0.33229,-5.5374 -1.426098,0.19114 c -1.406201,0.18906 -1.418417,0.16068 -0.834411,-2.03449 0.477448,-1.79457 0.40377,-3.10008 -0.377101,-6.71747 -0.759604,-3.51886 -0.95006,-5.29742 -0.525022,-5.56263 0.0637,-0.0398 0.141712,-0.0415 0.233331,-0.0186 z m 57.670014,0.95775 c 0.38897,-0.0406 0.72696,-0.0298 1.00732,0.0348 0.37384,0.0863 0.64424,0.26763 0.7938,0.54676 0.18444,0.34426 -0.58463,1.83074 -1.7084,3.30348 -4.175019,5.47153 -4.501699,8.46293 -0.45419,4.15905 2.32518,-2.47244 4.02307,-3.26302 4.02307,-1.87344 0,0.37261 -1.56005,2.62091 -3.4668,4.99665 -3.141829,3.91471 -4.202089,6.01568 -3.035529,6.01568 0.23728,0 0.897279,-0.40685 1.466719,-0.90368 0.56941,-0.49684 1.36318,-0.91126 1.7636,-0.92289 0.83405,-0.0233 -0.0689,1.83766 -2.18445,4.50034 -0.665769,0.8379 -2.650509,3.62135 -4.410595,6.18514 -1.760051,2.56377 -3.426744,4.66392 -3.704318,4.66857 -0.277587,0.004 -1.396592,-0.70527 -2.486549,-1.57662 -2.468624,-1.9735 -4.700867,-1.83311 -5.655449,0.3545 -0.369141,0.84598 -0.698645,3.61468 -0.732314,6.15267 -0.03351,2.53798 -0.224175,5.28609 -0.422939,6.10702 -0.472763,1.95166 -1.202075,2.17254 -2.514687,0.76187 -0.905269,-0.9729 -2.025419,-1.16101 -7.347141,-1.23774 -3.808207,-0.0548 -6.723094,0.18301 -7.407609,0.60566 -0.964816,0.59566 -1.311095,0.45047 -2.390712,-0.99743 -0.994912,-1.33428 -1.187484,-2.10253 -0.905247,-3.62071 0.405321,-2.18028 4.011921,-10.79044 5.590858,-13.34843 0.573222,-0.92865 1.041701,-1.99535 1.041701,-2.37093 0,-1.02752 8.932075,-11.1253 9.841005,-11.1253 0.434012,0 1.60973,-0.83117 2.612618,-1.84697 1.898366,-1.92343 5.147074,-3.15003 5.147074,-1.94436 0,0.93746 -1.977488,6.82413 -2.99282,8.90936 -0.464567,0.95403 -0.700376,1.90191 -0.523996,2.10539 0.499644,0.57637 2.894839,-2.25694 5.201271,-6.1539 3.02751,-5.1153 5.49429,-7.73199 9.19305,-9.75054 1.87273,-1.02201 3.494769,-1.61192 4.661659,-1.73404 z m -66.271392,7.38921 c 0.298564,-0.0709 0.724449,0.1844 1.236509,0.77511 0.393691,0.45412 1.251306,1.15606 1.90528,1.5598 0.653976,0.40375 1.188593,1.27823 1.188593,1.94312 0,1.71281 -1.313856,1.50041 -2.03653,-0.32926 -0.356379,-0.90228 -1.053049,-1.53817 -1.685495,-1.53817 -0.722574,0 -1.078166,-0.40583 -1.078166,-1.23054 0,-0.71219 0.171346,-1.10923 0.469809,-1.18006 z m 33.112783,6.26081 c 0.246354,0.0122 0.465596,0.11043 0.642727,0.31488 0.644566,0.74354 -0.245811,2.80291 -2.387588,5.52538 -1.29271,1.64316 -1.884597,1.73957 -2.336547,0.38092 -0.700257,-2.10506 2.356887,-6.30033 4.081408,-6.22118 z m 38.279649,1.15847 c 0.32026,0.0568 0.64174,0.24165 0.96669,0.55278 0.92097,0.88173 1.00749,3.82697 0.1782,5.70805 -0.32804,0.73914 -1.45686,2.38173 -2.50844,3.65073 -2.14745,2.5915 -3.26414,2.8776 -4.23453,1.08514 -0.91115,-1.68307 -0.83241,-2.48688 0.38752,-3.98484 0.57666,-0.70811 1.61588,-2.5268 2.30947,-4.04009 0.99146,-2.1632 1.94035,-3.14237 2.90115,-2.97177 z m -43.847589,7.91193 c 1.728049,0 1.666768,0.69114 -0.413547,4.65779 -0.953366,1.81784 -1.872684,3.31337 -2.043827,3.32266 -1.158296,0.065 -0.950848,-3.18712 0.401048,-6.28845 0.505953,-1.16065 1.151038,-1.692 2.056326,-1.692 z m 35.45558,4.36696 c 0.42372,-0.0209 0.81054,0.0653 1.111509,0.28001 0.97194,0.69296 0.16691,4.40007 -1.675079,7.71129 -0.92493,1.66278 -1.988385,3.02344 -2.363616,3.02344 -1.437585,0 -1.80822,-5.78658 -0.550042,-8.59332 0.60379,-1.3469 2.206088,-2.36073 3.477228,-2.42142 z m -11.917129,3.26261 c 1.102488,0.0163 3.340908,2.91656 4.8408,6.4531 2.191921,5.16813 1.935784,11.07021 -0.483327,11.13369 -0.197356,0.004 -0.648558,-1.02865 -1.003187,-2.29763 -0.354603,-1.26898 -0.788204,-2.58412 -0.963576,-2.92252 -0.384548,-0.74242 -0.99088,2.23261 -1.078173,5.28866 -0.03662,1.28537 -0.471779,2.63843 -1.038575,3.23016 -1.237488,1.29191 -3.225801,1.31251 -3.649113,0.0422 -0.178597,-0.53663 -0.02093,-2.54396 0.351054,-4.46069 0.372067,-1.91675 0.987118,-6.21745 1.365688,-9.5571 0.378557,-3.33962 0.945278,-6.36949 1.260482,-6.73309 0.105629,-0.12181 0.24043,-0.17904 0.397927,-0.17672 z m -36.073315,0.41579 c 0.238009,0.0388 0.501236,0.42142 1.01878,1.18367 0.57441,0.84598 1.902356,3.47627 2.951173,5.84503 1.048835,2.3688 2.733826,5.37964 3.743897,6.69105 l 1.83652,2.38417 0.637525,-1.61508 c 0.90279,-2.28569 1.87206,-2.0087 3.160558,0.90487 1.216552,2.75085 1.524208,2.71951 2.354246,-0.24275 0.716565,-2.55736 1.326959,-2.47423 2.94075,0.40258 l 1.320892,2.35533 0.420846,-1.87226 c 0.612087,-2.72487 1.466434,-3.00722 2.889682,-0.95535 1.23486,1.78028 1.79133,6.40625 0.770879,6.40625 -0.261955,0 -0.627906,0.45641 -0.813566,1.01423 -0.303646,0.91281 0.170538,0.97923 4.742881,0.66452 4.853007,-0.334 6.191715,0.0828 4.147038,1.29064 -0.513346,0.30325 -1.77338,0.71826 -2.800109,0.92289 -1.026692,0.20463 -3.545876,0.79658 -5.599184,1.31587 -3.5533,0.89865 -10.946326,1.21189 -12.429653,0.52633 -0.949294,-0.43876 0.838724,-1.99713 2.321972,-2.02365 0.601361,-0.0122 1.35383,-0.31922 1.671928,-0.68617 0.318077,-0.36693 2.030563,-0.82002 3.806407,-1.00581 2.808358,-0.29375 3.129753,-0.4525 2.462598,-1.22212 -0.421867,-0.48666 -0.767727,-1.18475 -0.767727,-1.55141 0,-0.36667 -0.480922,-0.16441 -1.068794,0.44943 -0.890593,0.92975 -1.295008,0.99656 -2.425102,0.40258 -1.905543,-1.00156 -2.373014,-0.89564 -2.373014,0.53715 0,1.51848 -1.337098,2.22777 -2.35739,1.25096 -0.409253,-0.39181 -1.175308,-1.73757 -1.702145,-2.991 -0.784721,-1.86696 -0.996001,-2.05596 -1.167749,-1.04788 -0.376497,2.20922 -0.935486,2.18929 -3.229297,-0.0673 -2.508759,-2.47714 -3.264996,-2.35059 -2.365716,0.39775 0.327854,1.00229 0.437234,1.82299 0.242706,1.82297 -0.667037,-2e-5 -3.365385,-4.35416 -4.448086,-7.17772 -1.476574,-3.85067 -1.924391,-11.73771 -0.762528,-13.43374 0.417741,-0.60982 0.630754,-0.91485 0.868782,-0.87604 z m 26.645847,13.77262 c 0.485992,0.15416 1.119142,1.06989 1.849039,2.73146 1.576759,3.58947 1.687271,4.70678 0.516672,5.22496 -1.129119,0.49985 -1.094815,0.50955 -2.05007,-0.59242 -1.032135,-1.19066 -1.512136,-3.25921 -1.28131,-5.5266 0.141117,-1.38509 0.47969,-1.99168 0.965669,-1.8374 z m -34.630543,12.90618 c -0.004,5.4e-4 0.004,0.001 0.02601,0.001 -0.0019,-6.9e-4 -0.002,-0.001 -0.004,-0.001 -0.004,-0.001 -0.01814,-5.6e-4 -0.02197,0 z m 0.077,0.001 v 0.001 c 0.002,1e-4 0.004,-6e-5 0.0061,0 -0.002,-4.1e-4 -0.004,-7.9e-4 -0.0061,-0.001 z m 1.763608,3.89351 c -0.0061,0 -0.01009,0.004 -0.01411,0.009 -7.66e-4,7.4e-4 -0.002,0.001 -0.002,0.001 0.002,-8.2e-4 0.004,-0.001 0.0081,-0.001 0.002,-0.003 0.01208,-0.0122 0.0081,-0.009 z m 87.120151,3.32388 c 0.002,0.004 0.004,0.009 0.006,0.014 -2.4e-4,-0.004 -0.002,-0.009 -0.002,-0.014 -0.002,-9.1e-4 -0.004,-0.001 -0.004,0 z m 0.31876,1.5658 v 0.001 c 6.6e-4,7e-5 0.002,-1.2e-4 0.002,0 -6.2e-4,-3.9e-4 -0.002,-8.1e-4 -0.002,-0.001 z" /></g></svg>
